<?xml version="1.0" encoding="utf-8" standalone="no"?>
<!DOCTYPE svg PUBLIC "-//W3C//DTD SVG 1.1//EN"
  "http://www.w3.org/Graphics/SVG/1.1/DTD/svg11.dtd">
<svg xmlns:xlink="http://www.w3.org/1999/xlink" width="540pt" height="288pt" viewBox="0 0 540 288" xmlns="http://www.w3.org/2000/svg" version="1.1">
 <metadata>
  <rdf:RDF xmlns:dc="http://purl.org/dc/elements/1.1/" xmlns:cc="http://creativecommons.org/ns#" xmlns:rdf="http://www.w3.org/1999/02/22-rdf-syntax-ns#">
   <cc:Work>
    <dc:type rdf:resource="http://purl.org/dc/dcmitype/StillImage"/>
    <dc:date>2024-04-07T16:25:07.263048</dc:date>
    <dc:format>image/svg+xml</dc:format>
    <dc:creator>
     <cc:Agent>
      <dc:title>Matplotlib v3.8.3, https://matplotlib.org/</dc:title>
     </cc:Agent>
    </dc:creator>
   </cc:Work>
  </rdf:RDF>
 </metadata>
 <defs>
  <style type="text/css">*{stroke-linejoin: round; stroke-linecap: butt}</style>
 </defs>
 <g id="figure_1">
  <g id="patch_1">
   <path d="M 0 288 
L 540 288 
L 540 0 
L 0 0 
z
" style="fill: #ffffff"/>
  </g>
  <g id="axes_1">
   <g id="patch_2">
    <path d="M 47.802 263.62 
L 250.546 263.62 
L 250.546 25.44 
L 47.802 25.44 
z
" style="fill: #eaeaf2"/>
   </g>
   <g id="matplotlib.axis_1">
    <g id="xtick_1">
     <g id="line2d_1">
      <path d="M 78.449349 263.62 
L 78.449349 25.44 
" clip-path="url(#p7e7fb33422)" style="fill: none; stroke: #ffffff; stroke-width: 0.8; stroke-linecap: round"/>
     </g>
     <g id="line2d_2"/>
     <g id="text_1">
      <!-- 12.5 mA -->
      <g style="fill: #262626" transform="translate(59.829818 274.277812) scale(0.1 -0.1)">
       <defs>
        <path id="ArialMT-31" d="M 2384 0 
L 1822 0 
L 1822 3584 
Q 1619 3391 1289 3197 
Q 959 3003 697 2906 
L 697 3450 
Q 1169 3672 1522 3987 
Q 1875 4303 2022 4600 
L 2384 4600 
L 2384 0 
z
" transform="scale(0.015625)"/>
        <path id="ArialMT-32" d="M 3222 541 
L 3222 0 
L 194 0 
Q 188 203 259 391 
Q 375 700 629 1000 
Q 884 1300 1366 1694 
Q 2113 2306 2375 2664 
Q 2638 3022 2638 3341 
Q 2638 3675 2398 3904 
Q 2159 4134 1775 4134 
Q 1369 4134 1125 3890 
Q 881 3647 878 3216 
L 300 3275 
Q 359 3922 746 4261 
Q 1134 4600 1788 4600 
Q 2447 4600 2831 4234 
Q 3216 3869 3216 3328 
Q 3216 3053 3103 2787 
Q 2991 2522 2730 2228 
Q 2469 1934 1863 1422 
Q 1356 997 1212 845 
Q 1069 694 975 541 
L 3222 541 
z
" transform="scale(0.015625)"/>
        <path id="ArialMT-2e" d="M 581 0 
L 581 641 
L 1222 641 
L 1222 0 
L 581 0 
z
" transform="scale(0.015625)"/>
        <path id="ArialMT-35" d="M 266 1200 
L 856 1250 
Q 922 819 1161 601 
Q 1400 384 1738 384 
Q 2144 384 2425 690 
Q 2706 997 2706 1503 
Q 2706 1984 2436 2262 
Q 2166 2541 1728 2541 
Q 1456 2541 1237 2417 
Q 1019 2294 894 2097 
L 366 2166 
L 809 4519 
L 3088 4519 
L 3088 3981 
L 1259 3981 
L 1013 2750 
Q 1425 3038 1878 3038 
Q 2478 3038 2890 2622 
Q 3303 2206 3303 1553 
Q 3303 931 2941 478 
Q 2500 -78 1738 -78 
Q 1113 -78 717 272 
Q 322 622 266 1200 
z
" transform="scale(0.015625)"/>
        <path id="ArialMT-20" transform="scale(0.015625)"/>
        <path id="ArialMT-6d" d="M 422 0 
L 422 3319 
L 925 3319 
L 925 2853 
Q 1081 3097 1340 3245 
Q 1600 3394 1931 3394 
Q 2300 3394 2536 3241 
Q 2772 3088 2869 2813 
Q 3263 3394 3894 3394 
Q 4388 3394 4653 3120 
Q 4919 2847 4919 2278 
L 4919 0 
L 4359 0 
L 4359 2091 
Q 4359 2428 4304 2576 
Q 4250 2725 4106 2815 
Q 3963 2906 3769 2906 
Q 3419 2906 3187 2673 
Q 2956 2441 2956 1928 
L 2956 0 
L 2394 0 
L 2394 2156 
Q 2394 2531 2256 2718 
Q 2119 2906 1806 2906 
Q 1569 2906 1367 2781 
Q 1166 2656 1075 2415 
Q 984 2175 984 1722 
L 984 0 
L 422 0 
z
" transform="scale(0.015625)"/>
        <path id="ArialMT-41" d="M -9 0 
L 1750 4581 
L 2403 4581 
L 4278 0 
L 3588 0 
L 3053 1388 
L 1138 1388 
L 634 0 
L -9 0 
z
M 1313 1881 
L 2866 1881 
L 2388 3150 
Q 2169 3728 2063 4100 
Q 1975 3659 1816 3225 
L 1313 1881 
z
" transform="scale(0.015625)"/>
       </defs>
       <use xlink:href="#ArialMT-31"/>
       <use xlink:href="#ArialMT-32" x="55.615234"/>
       <use xlink:href="#ArialMT-2e" x="111.230469"/>
       <use xlink:href="#ArialMT-35" x="139.013672"/>
       <use xlink:href="#ArialMT-20" x="194.628906"/>
       <use xlink:href="#ArialMT-6d" x="222.412109"/>
       <use xlink:href="#ArialMT-41" x="305.712891"/>
      </g>
     </g>
    </g>
    <g id="xtick_2">
     <g id="line2d_3">
      <path d="M 125.599116 263.62 
L 125.599116 25.44 
" clip-path="url(#p7e7fb33422)" style="fill: none; stroke: #ffffff; stroke-width: 0.8; stroke-linecap: round"/>
     </g>
     <g id="line2d_4"/>
     <g id="text_2">
      <!-- 25 mA -->
      <g style="fill: #262626" transform="translate(111.149116 274.277812) scale(0.1 -0.1)">
       <use xlink:href="#ArialMT-32"/>
       <use xlink:href="#ArialMT-35" x="55.615234"/>
       <use xlink:href="#ArialMT-20" x="111.230469"/>
       <use xlink:href="#ArialMT-6d" x="139.013672"/>
       <use xlink:href="#ArialMT-41" x="222.314453"/>
      </g>
     </g>
    </g>
    <g id="xtick_3">
     <g id="line2d_5">
      <path d="M 172.748884 263.62 
L 172.748884 25.44 
" clip-path="url(#p7e7fb33422)" style="fill: none; stroke: #ffffff; stroke-width: 0.8; stroke-linecap: round"/>
     </g>
     <g id="line2d_6"/>
     <g id="text_3">
      <!-- 50 mA -->
      <g style="fill: #262626" transform="translate(158.298884 274.277812) scale(0.1 -0.1)">
       <defs>
        <path id="ArialMT-30" d="M 266 2259 
Q 266 3072 433 3567 
Q 600 4063 929 4331 
Q 1259 4600 1759 4600 
Q 2128 4600 2406 4451 
Q 2684 4303 2865 4023 
Q 3047 3744 3150 3342 
Q 3253 2941 3253 2259 
Q 3253 1453 3087 958 
Q 2922 463 2592 192 
Q 2263 -78 1759 -78 
Q 1097 -78 719 397 
Q 266 969 266 2259 
z
M 844 2259 
Q 844 1131 1108 757 
Q 1372 384 1759 384 
Q 2147 384 2411 759 
Q 2675 1134 2675 2259 
Q 2675 3391 2411 3762 
Q 2147 4134 1753 4134 
Q 1366 4134 1134 3806 
Q 844 3388 844 2259 
z
" transform="scale(0.015625)"/>
       </defs>
       <use xlink:href="#ArialMT-35"/>
       <use xlink:href="#ArialMT-30" x="55.615234"/>
       <use xlink:href="#ArialMT-20" x="111.230469"/>
       <use xlink:href="#ArialMT-6d" x="139.013672"/>
       <use xlink:href="#ArialMT-41" x="222.314453"/>
      </g>
     </g>
    </g>
    <g id="xtick_4">
     <g id="line2d_7">
      <path d="M 219.898651 263.62 
L 219.898651 25.44 
" clip-path="url(#p7e7fb33422)" style="fill: none; stroke: #ffffff; stroke-width: 0.8; stroke-linecap: round"/>
     </g>
     <g id="line2d_8"/>
     <g id="text_4">
      <!-- 100 mA -->
      <g style="fill: #262626" transform="translate(202.668182 274.277812) scale(0.1 -0.1)">
       <use xlink:href="#ArialMT-31"/>
       <use xlink:href="#ArialMT-30" x="55.615234"/>
       <use xlink:href="#ArialMT-30" x="111.230469"/>
       <use xlink:href="#ArialMT-20" x="166.845703"/>
       <use xlink:href="#ArialMT-6d" x="194.628906"/>
       <use xlink:href="#ArialMT-41" x="277.929688"/>
      </g>
     </g>
    </g>
   </g>
   <g id="matplotlib.axis_2">
    <g id="ytick_1">
     <g id="line2d_9">
      <path d="M 47.802 263.62 
L 250.546 263.62 
" clip-path="url(#p7e7fb33422)" style="fill: none; stroke: #ffffff; stroke-width: 0.8; stroke-linecap: round"/>
     </g>
     <g id="line2d_10"/>
     <g id="text_5">
      <!-- 0.0 -->
      <g style="fill: #262626" transform="translate(30.402 267.198906) scale(0.1 -0.1)">
       <use xlink:href="#ArialMT-30"/>
       <use xlink:href="#ArialMT-2e" x="55.615234"/>
       <use xlink:href="#ArialMT-30" x="83.398438"/>
      </g>
     </g>
    </g>
    <g id="ytick_2">
     <g id="line2d_11">
      <path d="M 47.802 215.380113 
L 250.546 215.380113 
" clip-path="url(#p7e7fb33422)" style="fill: none; stroke: #ffffff; stroke-width: 0.8; stroke-linecap: round"/>
     </g>
     <g id="line2d_12"/>
     <g id="text_6">
      <!-- 0.2 -->
      <g style="fill: #262626" transform="translate(30.402 218.959019) scale(0.1 -0.1)">
       <use xlink:href="#ArialMT-30"/>
       <use xlink:href="#ArialMT-2e" x="55.615234"/>
       <use xlink:href="#ArialMT-32" x="83.398438"/>
      </g>
     </g>
    </g>
    <g id="ytick_3">
     <g id="line2d_13">
      <path d="M 47.802 167.140225 
L 250.546 167.140225 
" clip-path="url(#p7e7fb33422)" style="fill: none; stroke: #ffffff; stroke-width: 0.8; stroke-linecap: round"/>
     </g>
     <g id="line2d_14"/>
     <g id="text_7">
      <!-- 0.4 -->
      <g style="fill: #262626" transform="translate(30.402 170.719132) scale(0.1 -0.1)">
       <defs>
        <path id="ArialMT-34" d="M 2069 0 
L 2069 1097 
L 81 1097 
L 81 1613 
L 2172 4581 
L 2631 4581 
L 2631 1613 
L 3250 1613 
L 3250 1097 
L 2631 1097 
L 2631 0 
L 2069 0 
z
M 2069 1613 
L 2069 3678 
L 634 1613 
L 2069 1613 
z
" transform="scale(0.015625)"/>
       </defs>
       <use xlink:href="#ArialMT-30"/>
       <use xlink:href="#ArialMT-2e" x="55.615234"/>
       <use xlink:href="#ArialMT-34" x="83.398438"/>
      </g>
     </g>
    </g>
    <g id="ytick_4">
     <g id="line2d_15">
      <path d="M 47.802 118.900338 
L 250.546 118.900338 
" clip-path="url(#p7e7fb33422)" style="fill: none; stroke: #ffffff; stroke-width: 0.8; stroke-linecap: round"/>
     </g>
     <g id="line2d_16"/>
     <g id="text_8">
      <!-- 0.6 -->
      <g style="fill: #262626" transform="translate(30.402 122.479244) scale(0.1 -0.1)">
       <defs>
        <path id="ArialMT-36" d="M 3184 3459 
L 2625 3416 
Q 2550 3747 2413 3897 
Q 2184 4138 1850 4138 
Q 1581 4138 1378 3988 
Q 1113 3794 959 3422 
Q 806 3050 800 2363 
Q 1003 2672 1297 2822 
Q 1591 2972 1913 2972 
Q 2475 2972 2870 2558 
Q 3266 2144 3266 1488 
Q 3266 1056 3080 686 
Q 2894 316 2569 119 
Q 2244 -78 1831 -78 
Q 1128 -78 684 439 
Q 241 956 241 2144 
Q 241 3472 731 4075 
Q 1159 4600 1884 4600 
Q 2425 4600 2770 4297 
Q 3116 3994 3184 3459 
z
M 888 1484 
Q 888 1194 1011 928 
Q 1134 663 1356 523 
Q 1578 384 1822 384 
Q 2178 384 2434 671 
Q 2691 959 2691 1453 
Q 2691 1928 2437 2201 
Q 2184 2475 1800 2475 
Q 1419 2475 1153 2201 
Q 888 1928 888 1484 
z
" transform="scale(0.015625)"/>
       </defs>
       <use xlink:href="#ArialMT-30"/>
       <use xlink:href="#ArialMT-2e" x="55.615234"/>
       <use xlink:href="#ArialMT-36" x="83.398438"/>
      </g>
     </g>
    </g>
    <g id="ytick_5">
     <g id="line2d_17">
      <path d="M 47.802 70.660451 
L 250.546 70.660451 
" clip-path="url(#p7e7fb33422)" style="fill: none; stroke: #ffffff; stroke-width: 0.8; stroke-linecap: round"/>
     </g>
     <g id="line2d_18"/>
     <g id="text_9">
      <!-- 0.8 -->
      <g style="fill: #262626" transform="translate(30.402 74.239357) scale(0.1 -0.1)">
       <defs>
        <path id="ArialMT-38" d="M 1131 2484 
Q 781 2613 612 2850 
Q 444 3088 444 3419 
Q 444 3919 803 4259 
Q 1163 4600 1759 4600 
Q 2359 4600 2725 4251 
Q 3091 3903 3091 3403 
Q 3091 3084 2923 2848 
Q 2756 2613 2416 2484 
Q 2838 2347 3058 2040 
Q 3278 1734 3278 1309 
Q 3278 722 2862 322 
Q 2447 -78 1769 -78 
Q 1091 -78 675 323 
Q 259 725 259 1325 
Q 259 1772 486 2073 
Q 713 2375 1131 2484 
z
M 1019 3438 
Q 1019 3113 1228 2906 
Q 1438 2700 1772 2700 
Q 2097 2700 2305 2904 
Q 2513 3109 2513 3406 
Q 2513 3716 2298 3927 
Q 2084 4138 1766 4138 
Q 1444 4138 1231 3931 
Q 1019 3725 1019 3438 
z
M 838 1322 
Q 838 1081 952 856 
Q 1066 631 1291 507 
Q 1516 384 1775 384 
Q 2178 384 2440 643 
Q 2703 903 2703 1303 
Q 2703 1709 2433 1975 
Q 2163 2241 1756 2241 
Q 1359 2241 1098 1978 
Q 838 1716 838 1322 
z
" transform="scale(0.015625)"/>
       </defs>
       <use xlink:href="#ArialMT-30"/>
       <use xlink:href="#ArialMT-2e" x="55.615234"/>
       <use xlink:href="#ArialMT-38" x="83.398438"/>
      </g>
     </g>
    </g>
    <g id="text_10">
     <!-- Average test $R^2$ score -->
     <g style="fill: #262626" transform="translate(24.202 193.83) rotate(-90) scale(0.1 -0.1)">
      <defs>
       <path id="ArialMT-76" d="M 1344 0 
L 81 3319 
L 675 3319 
L 1388 1331 
Q 1503 1009 1600 663 
Q 1675 925 1809 1294 
L 2547 3319 
L 3125 3319 
L 1869 0 
L 1344 0 
z
" transform="scale(0.015625)"/>
       <path id="ArialMT-65" d="M 2694 1069 
L 3275 997 
Q 3138 488 2766 206 
Q 2394 -75 1816 -75 
Q 1088 -75 661 373 
Q 234 822 234 1631 
Q 234 2469 665 2931 
Q 1097 3394 1784 3394 
Q 2450 3394 2872 2941 
Q 3294 2488 3294 1666 
Q 3294 1616 3291 1516 
L 816 1516 
Q 847 969 1125 678 
Q 1403 388 1819 388 
Q 2128 388 2347 550 
Q 2566 713 2694 1069 
z
M 847 1978 
L 2700 1978 
Q 2663 2397 2488 2606 
Q 2219 2931 1791 2931 
Q 1403 2931 1139 2672 
Q 875 2413 847 1978 
z
" transform="scale(0.015625)"/>
       <path id="ArialMT-72" d="M 416 0 
L 416 3319 
L 922 3319 
L 922 2816 
Q 1116 3169 1280 3281 
Q 1444 3394 1641 3394 
Q 1925 3394 2219 3213 
L 2025 2691 
Q 1819 2813 1613 2813 
Q 1428 2813 1281 2702 
Q 1134 2591 1072 2394 
Q 978 2094 978 1738 
L 978 0 
L 416 0 
z
" transform="scale(0.015625)"/>
       <path id="ArialMT-61" d="M 2588 409 
Q 2275 144 1986 34 
Q 1697 -75 1366 -75 
Q 819 -75 525 192 
Q 231 459 231 875 
Q 231 1119 342 1320 
Q 453 1522 633 1644 
Q 813 1766 1038 1828 
Q 1203 1872 1538 1913 
Q 2219 1994 2541 2106 
Q 2544 2222 2544 2253 
Q 2544 2597 2384 2738 
Q 2169 2928 1744 2928 
Q 1347 2928 1158 2789 
Q 969 2650 878 2297 
L 328 2372 
Q 403 2725 575 2942 
Q 747 3159 1072 3276 
Q 1397 3394 1825 3394 
Q 2250 3394 2515 3294 
Q 2781 3194 2906 3042 
Q 3031 2891 3081 2659 
Q 3109 2516 3109 2141 
L 3109 1391 
Q 3109 606 3145 398 
Q 3181 191 3288 0 
L 2700 0 
Q 2613 175 2588 409 
z
M 2541 1666 
Q 2234 1541 1622 1453 
Q 1275 1403 1131 1340 
Q 988 1278 909 1158 
Q 831 1038 831 891 
Q 831 666 1001 516 
Q 1172 366 1500 366 
Q 1825 366 2078 508 
Q 2331 650 2450 897 
Q 2541 1088 2541 1459 
L 2541 1666 
z
" transform="scale(0.015625)"/>
       <path id="ArialMT-67" d="M 319 -275 
L 866 -356 
Q 900 -609 1056 -725 
Q 1266 -881 1628 -881 
Q 2019 -881 2231 -725 
Q 2444 -569 2519 -288 
Q 2563 -116 2559 434 
Q 2191 0 1641 0 
Q 956 0 581 494 
Q 206 988 206 1678 
Q 206 2153 378 2554 
Q 550 2956 876 3175 
Q 1203 3394 1644 3394 
Q 2231 3394 2613 2919 
L 2613 3319 
L 3131 3319 
L 3131 450 
Q 3131 -325 2973 -648 
Q 2816 -972 2473 -1159 
Q 2131 -1347 1631 -1347 
Q 1038 -1347 672 -1080 
Q 306 -813 319 -275 
z
M 784 1719 
Q 784 1066 1043 766 
Q 1303 466 1694 466 
Q 2081 466 2343 764 
Q 2606 1063 2606 1700 
Q 2606 2309 2336 2618 
Q 2066 2928 1684 2928 
Q 1309 2928 1046 2623 
Q 784 2319 784 1719 
z
" transform="scale(0.015625)"/>
       <path id="ArialMT-74" d="M 1650 503 
L 1731 6 
Q 1494 -44 1306 -44 
Q 1000 -44 831 53 
Q 663 150 594 308 
Q 525 466 525 972 
L 525 2881 
L 113 2881 
L 113 3319 
L 525 3319 
L 525 4141 
L 1084 4478 
L 1084 3319 
L 1650 3319 
L 1650 2881 
L 1084 2881 
L 1084 941 
Q 1084 700 1114 631 
Q 1144 563 1211 522 
Q 1278 481 1403 481 
Q 1497 481 1650 503 
z
" transform="scale(0.015625)"/>
       <path id="ArialMT-73" d="M 197 991 
L 753 1078 
Q 800 744 1014 566 
Q 1228 388 1613 388 
Q 2000 388 2187 545 
Q 2375 703 2375 916 
Q 2375 1106 2209 1216 
Q 2094 1291 1634 1406 
Q 1016 1563 777 1677 
Q 538 1791 414 1992 
Q 291 2194 291 2438 
Q 291 2659 392 2848 
Q 494 3038 669 3163 
Q 800 3259 1026 3326 
Q 1253 3394 1513 3394 
Q 1903 3394 2198 3281 
Q 2494 3169 2634 2976 
Q 2775 2784 2828 2463 
L 2278 2388 
Q 2241 2644 2061 2787 
Q 1881 2931 1553 2931 
Q 1166 2931 1000 2803 
Q 834 2675 834 2503 
Q 834 2394 903 2306 
Q 972 2216 1119 2156 
Q 1203 2125 1616 2013 
Q 2213 1853 2448 1751 
Q 2684 1650 2818 1456 
Q 2953 1263 2953 975 
Q 2953 694 2789 445 
Q 2625 197 2315 61 
Q 2006 -75 1616 -75 
Q 969 -75 630 194 
Q 291 463 197 991 
z
" transform="scale(0.015625)"/>
       <path id="DejaVuSans-Oblique-52" d="M 1613 4147 
L 1294 2491 
L 2106 2491 
Q 2584 2491 2879 2755 
Q 3175 3019 3175 3444 
Q 3175 3784 2976 3965 
Q 2778 4147 2406 4147 
L 1613 4147 
z
M 2772 2241 
Q 2972 2194 3105 2009 
Q 3238 1825 3413 1275 
L 3809 0 
L 3144 0 
L 2778 1197 
Q 2638 1659 2453 1815 
Q 2269 1972 1888 1972 
L 1191 1972 
L 806 0 
L 172 0 
L 1081 4666 
L 2503 4666 
Q 3150 4666 3495 4373 
Q 3841 4081 3841 3531 
Q 3841 3044 3547 2687 
Q 3253 2331 2772 2241 
z
" transform="scale(0.015625)"/>
       <path id="DejaVuSans-32" d="M 1228 531 
L 3431 531 
L 3431 0 
L 469 0 
L 469 531 
Q 828 903 1448 1529 
Q 2069 2156 2228 2338 
Q 2531 2678 2651 2914 
Q 2772 3150 2772 3378 
Q 2772 3750 2511 3984 
Q 2250 4219 1831 4219 
Q 1534 4219 1204 4116 
Q 875 4013 500 3803 
L 500 4441 
Q 881 4594 1212 4672 
Q 1544 4750 1819 4750 
Q 2544 4750 2975 4387 
Q 3406 4025 3406 3419 
Q 3406 3131 3298 2873 
Q 3191 2616 2906 2266 
Q 2828 2175 2409 1742 
Q 1991 1309 1228 531 
z
" transform="scale(0.015625)"/>
       <path id="ArialMT-63" d="M 2588 1216 
L 3141 1144 
Q 3050 572 2676 248 
Q 2303 -75 1759 -75 
Q 1078 -75 664 370 
Q 250 816 250 1647 
Q 250 2184 428 2587 
Q 606 2991 970 3192 
Q 1334 3394 1763 3394 
Q 2303 3394 2647 3120 
Q 2991 2847 3088 2344 
L 2541 2259 
Q 2463 2594 2264 2762 
Q 2066 2931 1784 2931 
Q 1359 2931 1093 2626 
Q 828 2322 828 1663 
Q 828 994 1084 691 
Q 1341 388 1753 388 
Q 2084 388 2306 591 
Q 2528 794 2588 1216 
z
" transform="scale(0.015625)"/>
       <path id="ArialMT-6f" d="M 213 1659 
Q 213 2581 725 3025 
Q 1153 3394 1769 3394 
Q 2453 3394 2887 2945 
Q 3322 2497 3322 1706 
Q 3322 1066 3130 698 
Q 2938 331 2570 128 
Q 2203 -75 1769 -75 
Q 1072 -75 642 372 
Q 213 819 213 1659 
z
M 791 1659 
Q 791 1022 1069 705 
Q 1347 388 1769 388 
Q 2188 388 2466 706 
Q 2744 1025 2744 1678 
Q 2744 2294 2464 2611 
Q 2184 2928 1769 2928 
Q 1347 2928 1069 2612 
Q 791 2297 791 1659 
z
" transform="scale(0.015625)"/>
      </defs>
      <use xlink:href="#ArialMT-41" transform="translate(0 0.765625)"/>
      <use xlink:href="#ArialMT-76" transform="translate(66.699219 0.765625)"/>
      <use xlink:href="#ArialMT-65" transform="translate(116.699219 0.765625)"/>
      <use xlink:href="#ArialMT-72" transform="translate(172.314453 0.765625)"/>
      <use xlink:href="#ArialMT-61" transform="translate(205.615234 0.765625)"/>
      <use xlink:href="#ArialMT-67" transform="translate(261.230469 0.765625)"/>
      <use xlink:href="#ArialMT-65" transform="translate(316.845703 0.765625)"/>
      <use xlink:href="#ArialMT-20" transform="translate(372.460938 0.765625)"/>
      <use xlink:href="#ArialMT-74" transform="translate(400.244141 0.765625)"/>
      <use xlink:href="#ArialMT-65" transform="translate(428.027344 0.765625)"/>
      <use xlink:href="#ArialMT-73" transform="translate(483.642578 0.765625)"/>
      <use xlink:href="#ArialMT-74" transform="translate(533.642578 0.765625)"/>
      <use xlink:href="#ArialMT-20" transform="translate(561.425781 0.765625)"/>
      <use xlink:href="#DejaVuSans-Oblique-52" transform="translate(589.208984 0.765625)"/>
      <use xlink:href="#DejaVuSans-32" transform="translate(665.708177 39.046875) scale(0.7)"/>
      <use xlink:href="#ArialMT-20" transform="translate(712.978685 0.765625)"/>
      <use xlink:href="#ArialMT-73" transform="translate(740.761888 0.765625)"/>
      <use xlink:href="#ArialMT-63" transform="translate(790.761888 0.765625)"/>
      <use xlink:href="#ArialMT-6f" transform="translate(840.761888 0.765625)"/>
      <use xlink:href="#ArialMT-72" transform="translate(896.377122 0.765625)"/>
      <use xlink:href="#ArialMT-65" transform="translate(929.677904 0.765625)"/>
     </g>
    </g>
   </g>
   <g id="patch_3">
    <path d="M 59.589442 263.62 
L 67.133405 263.62 
L 67.133405 88.282035 
L 59.589442 88.282035 
z
" clip-path="url(#p7e7fb33422)" style="fill: #1f77b4"/>
   </g>
   <g id="patch_4">
    <path d="M 106.739209 263.62 
L 114.283172 263.62 
L 114.283172 79.740659 
L 106.739209 79.740659 
z
" clip-path="url(#p7e7fb33422)" style="fill: #1f77b4"/>
   </g>
   <g id="patch_5">
    <path d="M 153.888977 263.62 
L 161.43294 263.62 
L 161.43294 112.168672 
L 153.888977 112.168672 
z
" clip-path="url(#p7e7fb33422)" style="fill: #1f77b4"/>
   </g>
   <g id="patch_6">
    <path d="M 201.038744 263.62 
L 208.582707 263.62 
L 208.582707 95.458025 
L 201.038744 95.458025 
z
" clip-path="url(#p7e7fb33422)" style="fill: #1f77b4"/>
   </g>
   <g id="patch_7">
    <path d="M 67.133405 263.62 
L 74.677367 263.62 
L 74.677367 76.47279 
L 67.133405 76.47279 
z
" clip-path="url(#p7e7fb33422)" style="fill: #ff7f0e"/>
   </g>
   <g id="patch_8">
    <path d="M 114.283172 263.62 
L 121.827135 263.62 
L 121.827135 87.562617 
L 114.283172 87.562617 
z
" clip-path="url(#p7e7fb33422)" style="fill: #ff7f0e"/>
   </g>
   <g id="patch_9">
    <path d="M 161.43294 263.62 
L 168.976902 263.62 
L 168.976902 93.970916 
L 161.43294 93.970916 
z
" clip-path="url(#p7e7fb33422)" style="fill: #ff7f0e"/>
   </g>
   <g id="patch_10">
    <path d="M 208.582707 263.62 
L 216.12667 263.62 
L 216.12667 129.185594 
L 208.582707 129.185594 
z
" clip-path="url(#p7e7fb33422)" style="fill: #ff7f0e"/>
   </g>
   <g id="patch_11">
    <path d="M 74.677367 263.62 
L 82.22133 263.62 
L 82.22133 83.32938 
L 74.677367 83.32938 
z
" clip-path="url(#p7e7fb33422)" style="fill: #2ca02c"/>
   </g>
   <g id="patch_12">
    <path d="M 121.827135 263.62 
L 129.371098 263.62 
L 129.371098 98.424776 
L 121.827135 98.424776 
z
" clip-path="url(#p7e7fb33422)" style="fill: #2ca02c"/>
   </g>
   <g id="patch_13">
    <path d="M 168.976902 263.62 
L 176.520865 263.62 
L 176.520865 96.890268 
L 168.976902 96.890268 
z
" clip-path="url(#p7e7fb33422)" style="fill: #2ca02c"/>
   </g>
   <g id="patch_14">
    <path d="M 216.12667 263.62 
L 223.670633 263.62 
L 223.670633 143.455895 
L 216.12667 143.455895 
z
" clip-path="url(#p7e7fb33422)" style="fill: #2ca02c"/>
   </g>
   <g id="patch_15">
    <path d="M 82.22133 263.62 
L 89.765293 263.62 
L 89.765293 84.751711 
L 82.22133 84.751711 
z
" clip-path="url(#p7e7fb33422)" style="fill: #d62728"/>
   </g>
   <g id="patch_16">
    <path d="M 129.371098 263.62 
L 136.91506 263.62 
L 136.91506 99.04823 
L 129.371098 99.04823 
z
" clip-path="url(#p7e7fb33422)" style="fill: #d62728"/>
   </g>
   <g id="patch_17">
    <path d="M 176.520865 263.62 
L 184.064828 263.62 
L 184.064828 123.807435 
L 176.520865 123.807435 
z
" clip-path="url(#p7e7fb33422)" style="fill: #d62728"/>
   </g>
   <g id="patch_18">
    <path d="M 223.670633 263.62 
L 231.214595 263.62 
L 231.214595 117.832886 
L 223.670633 117.832886 
z
" clip-path="url(#p7e7fb33422)" style="fill: #d62728"/>
   </g>
   <g id="patch_19">
    <path d="M 89.765293 263.62 
L 97.309256 263.62 
L 97.309256 91.106846 
L 89.765293 91.106846 
z
" clip-path="url(#p7e7fb33422)" style="fill: #9467bd"/>
   </g>
   <g id="patch_20">
    <path d="M 136.91506 263.62 
L 144.459023 263.62 
L 144.459023 104.209919 
L 136.91506 104.209919 
z
" clip-path="url(#p7e7fb33422)" style="fill: #9467bd"/>
   </g>
   <g id="patch_21">
    <path d="M 184.064828 263.62 
L 191.608791 263.62 
L 191.608791 109.781907 
L 184.064828 109.781907 
z
" clip-path="url(#p7e7fb33422)" style="fill: #9467bd"/>
   </g>
   <g id="patch_22">
    <path d="M 231.214595 263.62 
L 238.758558 263.62 
L 238.758558 96.796412 
L 231.214595 96.796412 
z
" clip-path="url(#p7e7fb33422)" style="fill: #9467bd"/>
   </g>
   <g id="LineCollection_1">
    <path d="M 63.361423 130.054259 
L 63.361423 46.509812 
" clip-path="url(#p7e7fb33422)" style="fill: none; stroke: #262626; stroke-width: 1.5"/>
    <path d="M 110.511191 102.875401 
L 110.511191 56.605918 
" clip-path="url(#p7e7fb33422)" style="fill: none; stroke: #262626; stroke-width: 1.5"/>
    <path d="M 157.660958 157.105543 
L 157.660958 67.231802 
" clip-path="url(#p7e7fb33422)" style="fill: none; stroke: #262626; stroke-width: 1.5"/>
    <path d="M 204.810726 118.207988 
L 204.810726 72.708062 
" clip-path="url(#p7e7fb33422)" style="fill: none; stroke: #262626; stroke-width: 1.5"/>
   </g>
   <g id="LineCollection_2">
    <path d="M 70.905386 94.4607 
L 70.905386 58.48488 
" clip-path="url(#p7e7fb33422)" style="fill: none; stroke: #262626; stroke-width: 1.5"/>
    <path d="M 118.055153 112.99962 
L 118.055153 62.125615 
" clip-path="url(#p7e7fb33422)" style="fill: none; stroke: #262626; stroke-width: 1.5"/>
    <path d="M 165.204921 117.957492 
L 165.204921 69.98434 
" clip-path="url(#p7e7fb33422)" style="fill: none; stroke: #262626; stroke-width: 1.5"/>
    <path d="M 212.354688 191.477463 
L 212.354688 66.893725 
" clip-path="url(#p7e7fb33422)" style="fill: none; stroke: #262626; stroke-width: 1.5"/>
   </g>
   <g id="LineCollection_3">
    <path d="M 78.449349 106.497143 
L 78.449349 60.161617 
" clip-path="url(#p7e7fb33422)" style="fill: none; stroke: #262626; stroke-width: 1.5"/>
    <path d="M 125.599116 118.574465 
L 125.599116 78.275086 
" clip-path="url(#p7e7fb33422)" style="fill: none; stroke: #262626; stroke-width: 1.5"/>
    <path d="M 172.748884 131.19198 
L 172.748884 62.588556 
" clip-path="url(#p7e7fb33422)" style="fill: none; stroke: #262626; stroke-width: 1.5"/>
    <path d="M 219.898651 217.003143 
L 219.898651 69.908648 
" clip-path="url(#p7e7fb33422)" style="fill: none; stroke: #262626; stroke-width: 1.5"/>
   </g>
   <g id="LineCollection_4">
    <path d="M 85.993312 110.169715 
L 85.993312 59.333707 
" clip-path="url(#p7e7fb33422)" style="fill: none; stroke: #262626; stroke-width: 1.5"/>
    <path d="M 133.143079 136.53747 
L 133.143079 61.55899 
" clip-path="url(#p7e7fb33422)" style="fill: none; stroke: #262626; stroke-width: 1.5"/>
    <path d="M 180.292847 176.732613 
L 180.292847 70.882257 
" clip-path="url(#p7e7fb33422)" style="fill: none; stroke: #262626; stroke-width: 1.5"/>
    <path d="M 227.442614 149.261675 
L 227.442614 86.404097 
" clip-path="url(#p7e7fb33422)" style="fill: none; stroke: #262626; stroke-width: 1.5"/>
   </g>
   <g id="LineCollection_5">
    <path d="M 93.537274 137.586925 
L 93.537274 44.626766 
" clip-path="url(#p7e7fb33422)" style="fill: none; stroke: #262626; stroke-width: 1.5"/>
    <path d="M 140.687042 152.894519 
L 140.687042 55.52532 
" clip-path="url(#p7e7fb33422)" style="fill: none; stroke: #262626; stroke-width: 1.5"/>
    <path d="M 187.836809 144.806237 
L 187.836809 74.757577 
" clip-path="url(#p7e7fb33422)" style="fill: none; stroke: #262626; stroke-width: 1.5"/>
    <path d="M 234.986577 114.10937 
L 234.986577 79.483455 
" clip-path="url(#p7e7fb33422)" style="fill: none; stroke: #262626; stroke-width: 1.5"/>
   </g>
   <g id="patch_23">
    <path d="M 47.802 263.62 
L 47.802 25.44 
" style="fill: none"/>
   </g>
   <g id="patch_24">
    <path d="M 250.546 263.62 
L 250.546 25.44 
" style="fill: none"/>
   </g>
   <g id="patch_25">
    <path d="M 47.802 263.62 
L 250.546 263.62 
" style="fill: none"/>
   </g>
   <g id="patch_26">
    <path d="M 47.802 25.44 
L 250.546 25.44 
" style="fill: none"/>
   </g>
   <g id="text_11">
    <!-- AS7262 -->
    <g style="fill: #262626" transform="translate(127.823375 19.44) scale(0.12 -0.12)">
     <defs>
      <path id="ArialMT-53" d="M 288 1472 
L 859 1522 
Q 900 1178 1048 958 
Q 1197 738 1509 602 
Q 1822 466 2213 466 
Q 2559 466 2825 569 
Q 3091 672 3220 851 
Q 3350 1031 3350 1244 
Q 3350 1459 3225 1620 
Q 3100 1781 2813 1891 
Q 2628 1963 1997 2114 
Q 1366 2266 1113 2400 
Q 784 2572 623 2826 
Q 463 3081 463 3397 
Q 463 3744 659 4045 
Q 856 4347 1234 4503 
Q 1613 4659 2075 4659 
Q 2584 4659 2973 4495 
Q 3363 4331 3572 4012 
Q 3781 3694 3797 3291 
L 3216 3247 
Q 3169 3681 2898 3903 
Q 2628 4125 2100 4125 
Q 1550 4125 1298 3923 
Q 1047 3722 1047 3438 
Q 1047 3191 1225 3031 
Q 1400 2872 2139 2705 
Q 2878 2538 3153 2413 
Q 3553 2228 3743 1945 
Q 3934 1663 3934 1294 
Q 3934 928 3725 604 
Q 3516 281 3123 101 
Q 2731 -78 2241 -78 
Q 1619 -78 1198 103 
Q 778 284 539 648 
Q 300 1013 288 1472 
z
" transform="scale(0.015625)"/>
      <path id="ArialMT-37" d="M 303 3981 
L 303 4522 
L 3269 4522 
L 3269 4084 
Q 2831 3619 2401 2847 
Q 1972 2075 1738 1259 
Q 1569 684 1522 0 
L 944 0 
Q 953 541 1156 1306 
Q 1359 2072 1739 2783 
Q 2119 3494 2547 3981 
L 303 3981 
z
" transform="scale(0.015625)"/>
     </defs>
     <use xlink:href="#ArialMT-41"/>
     <use xlink:href="#ArialMT-53" x="66.699219"/>
     <use xlink:href="#ArialMT-37" x="133.398438"/>
     <use xlink:href="#ArialMT-32" x="189.013672"/>
     <use xlink:href="#ArialMT-36" x="244.628906"/>
     <use xlink:href="#ArialMT-32" x="300.244141"/>
    </g>
   </g>
  </g>
  <g id="axes_2">
   <g id="patch_27">
    <path d="M 261.346 263.62 
L 464.09 263.62 
L 464.09 25.44 
L 261.346 25.44 
z
" style="fill: #eaeaf2"/>
   </g>
   <g id="matplotlib.axis_3">
    <g id="xtick_5">
     <g id="line2d_19">
      <path d="M 291.993349 263.62 
L 291.993349 25.44 
" clip-path="url(#p25681b629e)" style="fill: none; stroke: #ffffff; stroke-width: 0.8; stroke-linecap: round"/>
     </g>
     <g id="line2d_20"/>
     <g id="text_12">
      <!-- 12.5 mA -->
      <g style="fill: #262626" transform="translate(273.373818 274.277812) scale(0.1 -0.1)">
       <use xlink:href="#ArialMT-31"/>
       <use xlink:href="#ArialMT-32" x="55.615234"/>
       <use xlink:href="#ArialMT-2e" x="111.230469"/>
       <use xlink:href="#ArialMT-35" x="139.013672"/>
       <use xlink:href="#ArialMT-20" x="194.628906"/>
       <use xlink:href="#ArialMT-6d" x="222.412109"/>
       <use xlink:href="#ArialMT-41" x="305.712891"/>
      </g>
     </g>
    </g>
    <g id="xtick_6">
     <g id="line2d_21">
      <path d="M 339.143116 263.62 
L 339.143116 25.44 
" clip-path="url(#p25681b629e)" style="fill: none; stroke: #ffffff; stroke-width: 0.8; stroke-linecap: round"/>
     </g>
     <g id="line2d_22"/>
     <g id="text_13">
      <!-- 25 mA -->
      <g style="fill: #262626" transform="translate(324.693116 274.277812) scale(0.1 -0.1)">
       <use xlink:href="#ArialMT-32"/>
       <use xlink:href="#ArialMT-35" x="55.615234"/>
       <use xlink:href="#ArialMT-20" x="111.230469"/>
       <use xlink:href="#ArialMT-6d" x="139.013672"/>
       <use xlink:href="#ArialMT-41" x="222.314453"/>
      </g>
     </g>
    </g>
    <g id="xtick_7">
     <g id="line2d_23">
      <path d="M 386.292884 263.62 
L 386.292884 25.44 
" clip-path="url(#p25681b629e)" style="fill: none; stroke: #ffffff; stroke-width: 0.8; stroke-linecap: round"/>
     </g>
     <g id="line2d_24"/>
     <g id="text_14">
      <!-- 50 mA -->
      <g style="fill: #262626" transform="translate(371.842884 274.277812) scale(0.1 -0.1)">
       <use xlink:href="#ArialMT-35"/>
       <use xlink:href="#ArialMT-30" x="55.615234"/>
       <use xlink:href="#ArialMT-20" x="111.230469"/>
       <use xlink:href="#ArialMT-6d" x="139.013672"/>
       <use xlink:href="#ArialMT-41" x="222.314453"/>
      </g>
     </g>
    </g>
    <g id="xtick_8">
     <g id="line2d_25">
      <path d="M 433.442651 263.62 
L 433.442651 25.44 
" clip-path="url(#p25681b629e)" style="fill: none; stroke: #ffffff; stroke-width: 0.8; stroke-linecap: round"/>
     </g>
     <g id="line2d_26"/>
     <g id="text_15">
      <!-- 100 mA -->
      <g style="fill: #262626" transform="translate(416.212182 274.277812) scale(0.1 -0.1)">
       <use xlink:href="#ArialMT-31"/>
       <use xlink:href="#ArialMT-30" x="55.615234"/>
       <use xlink:href="#ArialMT-30" x="111.230469"/>
       <use xlink:href="#ArialMT-20" x="166.845703"/>
       <use xlink:href="#ArialMT-6d" x="194.628906"/>
       <use xlink:href="#ArialMT-41" x="277.929688"/>
      </g>
     </g>
    </g>
   </g>
   <g id="matplotlib.axis_4">
    <g id="ytick_6">
     <g id="line2d_27">
      <path d="M 261.346 263.62 
L 464.09 263.62 
" clip-path="url(#p25681b629e)" style="fill: none; stroke: #ffffff; stroke-width: 0.8; stroke-linecap: round"/>
     </g>
     <g id="line2d_28"/>
    </g>
    <g id="ytick_7">
     <g id="line2d_29">
      <path d="M 261.346 215.380113 
L 464.09 215.380113 
" clip-path="url(#p25681b629e)" style="fill: none; stroke: #ffffff; stroke-width: 0.8; stroke-linecap: round"/>
     </g>
     <g id="line2d_30"/>
    </g>
    <g id="ytick_8">
     <g id="line2d_31">
      <path d="M 261.346 167.140225 
L 464.09 167.140225 
" clip-path="url(#p25681b629e)" style="fill: none; stroke: #ffffff; stroke-width: 0.8; stroke-linecap: round"/>
     </g>
     <g id="line2d_32"/>
    </g>
    <g id="ytick_9">
     <g id="line2d_33">
      <path d="M 261.346 118.900338 
L 464.09 118.900338 
" clip-path="url(#p25681b629e)" style="fill: none; stroke: #ffffff; stroke-width: 0.8; stroke-linecap: round"/>
     </g>
     <g id="line2d_34"/>
    </g>
    <g id="ytick_10">
     <g id="line2d_35">
      <path d="M 261.346 70.660451 
L 464.09 70.660451 
" clip-path="url(#p25681b629e)" style="fill: none; stroke: #ffffff; stroke-width: 0.8; stroke-linecap: round"/>
     </g>
     <g id="line2d_36"/>
    </g>
   </g>
   <g id="patch_28">
    <path d="M 273.133442 263.62 
L 280.677405 263.62 
L 280.677405 73.731728 
L 273.133442 73.731728 
z
" clip-path="url(#p25681b629e)" style="fill: #1f77b4"/>
   </g>
   <g id="patch_29">
    <path d="M 320.283209 263.62 
L 327.827172 263.62 
L 327.827172 89.793205 
L 320.283209 89.793205 
z
" clip-path="url(#p25681b629e)" style="fill: #1f77b4"/>
   </g>
   <g id="patch_30">
    <path d="M 367.432977 263.62 
L 374.97694 263.62 
L 374.97694 89.609887 
L 367.432977 89.609887 
z
" clip-path="url(#p25681b629e)" style="fill: #1f77b4"/>
   </g>
   <g id="patch_31">
    <path d="M 414.582744 263.62 
L 422.126707 263.62 
L 422.126707 123.753169 
L 414.582744 123.753169 
z
" clip-path="url(#p25681b629e)" style="fill: #1f77b4"/>
   </g>
   <g id="patch_32">
    <path d="M 280.677405 263.62 
L 288.221367 263.62 
L 288.221367 112.507693 
L 280.677405 112.507693 
z
" clip-path="url(#p25681b629e)" style="fill: #ff7f0e"/>
   </g>
   <g id="patch_33">
    <path d="M 327.827172 263.62 
L 335.371135 263.62 
L 335.371135 88.852294 
L 327.827172 88.852294 
z
" clip-path="url(#p25681b629e)" style="fill: #ff7f0e"/>
   </g>
   <g id="patch_34">
    <path d="M 374.97694 263.62 
L 382.520902 263.62 
L 382.520902 92.842775 
L 374.97694 92.842775 
z
" clip-path="url(#p25681b629e)" style="fill: #ff7f0e"/>
   </g>
   <g id="patch_35">
    <path d="M 422.126707 263.62 
L 429.67067 263.62 
L 429.67067 88.35695 
L 422.126707 88.35695 
z
" clip-path="url(#p25681b629e)" style="fill: #ff7f0e"/>
   </g>
   <g id="patch_36">
    <path d="M 288.221367 263.62 
L 295.76533 263.62 
L 295.76533 80.017911 
L 288.221367 80.017911 
z
" clip-path="url(#p25681b629e)" style="fill: #2ca02c"/>
   </g>
   <g id="patch_37">
    <path d="M 335.371135 263.62 
L 342.915098 263.62 
L 342.915098 80.949583 
L 335.371135 80.949583 
z
" clip-path="url(#p25681b629e)" style="fill: #2ca02c"/>
   </g>
   <g id="patch_38">
    <path d="M 382.520902 263.62 
L 390.064865 263.62 
L 390.064865 94.405679 
L 382.520902 94.405679 
z
" clip-path="url(#p25681b629e)" style="fill: #2ca02c"/>
   </g>
   <g id="patch_39">
    <path d="M 429.67067 263.62 
L 437.214633 263.62 
L 437.214633 105.725761 
L 429.67067 105.725761 
z
" clip-path="url(#p25681b629e)" style="fill: #2ca02c"/>
   </g>
   <g id="patch_40">
    <path d="M 295.76533 263.62 
L 303.309293 263.62 
L 303.309293 92.532154 
L 295.76533 92.532154 
z
" clip-path="url(#p25681b629e)" style="fill: #d62728"/>
   </g>
   <g id="patch_41">
    <path d="M 342.915098 263.62 
L 350.45906 263.62 
L 350.45906 85.948595 
L 342.915098 85.948595 
z
" clip-path="url(#p25681b629e)" style="fill: #d62728"/>
   </g>
   <g id="patch_42">
    <path d="M 390.064865 263.62 
L 397.608828 263.62 
L 397.608828 74.27181 
L 390.064865 74.27181 
z
" clip-path="url(#p25681b629e)" style="fill: #d62728"/>
   </g>
   <g id="patch_43">
    <path d="M 437.214633 263.62 
L 444.758595 263.62 
L 444.758595 84.711047 
L 437.214633 84.711047 
z
" clip-path="url(#p25681b629e)" style="fill: #d62728"/>
   </g>
   <g id="patch_44">
    <path d="M 303.309293 263.62 
L 310.853256 263.62 
L 310.853256 82.014622 
L 303.309293 82.014622 
z
" clip-path="url(#p25681b629e)" style="fill: #9467bd"/>
   </g>
   <g id="patch_45">
    <path d="M 350.45906 263.62 
L 358.003023 263.62 
L 358.003023 81.363293 
L 350.45906 81.363293 
z
" clip-path="url(#p25681b629e)" style="fill: #9467bd"/>
   </g>
   <g id="patch_46">
    <path d="M 397.608828 263.62 
L 405.152791 263.62 
L 405.152791 79.999291 
L 397.608828 79.999291 
z
" clip-path="url(#p25681b629e)" style="fill: #9467bd"/>
   </g>
   <g id="patch_47">
    <path d="M 444.758595 263.62 
L 452.302558 263.62 
L 452.302558 85.092523 
L 444.758595 85.092523 
z
" clip-path="url(#p25681b629e)" style="fill: #9467bd"/>
   </g>
   <g id="LineCollection_6">
    <path d="M 276.905423 91.836151 
L 276.905423 55.627305 
" clip-path="url(#p25681b629e)" style="fill: none; stroke: #262626; stroke-width: 1.5"/>
    <path d="M 324.055191 118.468877 
L 324.055191 61.117534 
" clip-path="url(#p25681b629e)" style="fill: none; stroke: #262626; stroke-width: 1.5"/>
    <path d="M 371.204958 131.440935 
L 371.204958 47.778839 
" clip-path="url(#p25681b629e)" style="fill: none; stroke: #262626; stroke-width: 1.5"/>
    <path d="M 418.354726 186.627961 
L 418.354726 60.878376 
" clip-path="url(#p25681b629e)" style="fill: none; stroke: #262626; stroke-width: 1.5"/>
   </g>
   <g id="LineCollection_7">
    <path d="M 284.449386 166.832584 
L 284.449386 58.182802 
" clip-path="url(#p25681b629e)" style="fill: none; stroke: #262626; stroke-width: 1.5"/>
    <path d="M 331.599153 140.922683 
L 331.599153 36.781905 
" clip-path="url(#p25681b629e)" style="fill: none; stroke: #262626; stroke-width: 1.5"/>
    <path d="M 378.748921 129.31608 
L 378.748921 56.369471 
" clip-path="url(#p25681b629e)" style="fill: none; stroke: #262626; stroke-width: 1.5"/>
    <path d="M 425.898688 108.912942 
L 425.898688 67.800959 
" clip-path="url(#p25681b629e)" style="fill: none; stroke: #262626; stroke-width: 1.5"/>
   </g>
   <g id="LineCollection_8">
    <path d="M 291.993349 107.597557 
L 291.993349 52.438266 
" clip-path="url(#p25681b629e)" style="fill: none; stroke: #262626; stroke-width: 1.5"/>
    <path d="M 339.143116 107.20082 
L 339.143116 54.698346 
" clip-path="url(#p25681b629e)" style="fill: none; stroke: #262626; stroke-width: 1.5"/>
    <path d="M 386.292884 136.153638 
L 386.292884 52.65772 
" clip-path="url(#p25681b629e)" style="fill: none; stroke: #262626; stroke-width: 1.5"/>
    <path d="M 433.442651 156.595399 
L 433.442651 54.856123 
" clip-path="url(#p25681b629e)" style="fill: none; stroke: #262626; stroke-width: 1.5"/>
   </g>
   <g id="LineCollection_9">
    <path d="M 299.537312 127.269307 
L 299.537312 57.795001 
" clip-path="url(#p25681b629e)" style="fill: none; stroke: #262626; stroke-width: 1.5"/>
    <path d="M 346.687079 123.004239 
L 346.687079 48.892952 
" clip-path="url(#p25681b629e)" style="fill: none; stroke: #262626; stroke-width: 1.5"/>
    <path d="M 393.836847 91.691314 
L 393.836847 56.852307 
" clip-path="url(#p25681b629e)" style="fill: none; stroke: #262626; stroke-width: 1.5"/>
    <path d="M 440.986614 105.955579 
L 440.986614 63.466514 
" clip-path="url(#p25681b629e)" style="fill: none; stroke: #262626; stroke-width: 1.5"/>
   </g>
   <g id="LineCollection_10">
    <path d="M 307.081274 117.642952 
L 307.081274 46.386292 
" clip-path="url(#p25681b629e)" style="fill: none; stroke: #262626; stroke-width: 1.5"/>
    <path d="M 354.231042 118.253592 
L 354.231042 44.472993 
" clip-path="url(#p25681b629e)" style="fill: none; stroke: #262626; stroke-width: 1.5"/>
    <path d="M 401.380809 108.409737 
L 401.380809 51.588845 
" clip-path="url(#p25681b629e)" style="fill: none; stroke: #262626; stroke-width: 1.5"/>
    <path d="M 448.530577 109.824295 
L 448.530577 60.360752 
" clip-path="url(#p25681b629e)" style="fill: none; stroke: #262626; stroke-width: 1.5"/>
   </g>
   <g id="patch_48">
    <path d="M 261.346 263.62 
L 261.346 25.44 
" style="fill: none"/>
   </g>
   <g id="patch_49">
    <path d="M 464.09 263.62 
L 464.09 25.44 
" style="fill: none"/>
   </g>
   <g id="patch_50">
    <path d="M 261.346 263.62 
L 464.09 263.62 
" style="fill: none"/>
   </g>
   <g id="patch_51">
    <path d="M 261.346 25.44 
L 464.09 25.44 
" style="fill: none"/>
   </g>
   <g id="text_16">
    <!-- AS7263 -->
    <g style="fill: #262626" transform="translate(341.367375 19.44) scale(0.12 -0.12)">
     <defs>
      <path id="ArialMT-33" d="M 269 1209 
L 831 1284 
Q 928 806 1161 595 
Q 1394 384 1728 384 
Q 2125 384 2398 659 
Q 2672 934 2672 1341 
Q 2672 1728 2419 1979 
Q 2166 2231 1775 2231 
Q 1616 2231 1378 2169 
L 1441 2663 
Q 1497 2656 1531 2656 
Q 1891 2656 2178 2843 
Q 2466 3031 2466 3422 
Q 2466 3731 2256 3934 
Q 2047 4138 1716 4138 
Q 1388 4138 1169 3931 
Q 950 3725 888 3313 
L 325 3413 
Q 428 3978 793 4289 
Q 1159 4600 1703 4600 
Q 2078 4600 2393 4439 
Q 2709 4278 2876 4000 
Q 3044 3722 3044 3409 
Q 3044 3113 2884 2869 
Q 2725 2625 2413 2481 
Q 2819 2388 3044 2092 
Q 3269 1797 3269 1353 
Q 3269 753 2831 336 
Q 2394 -81 1725 -81 
Q 1122 -81 723 278 
Q 325 638 269 1209 
z
" transform="scale(0.015625)"/>
     </defs>
     <use xlink:href="#ArialMT-41"/>
     <use xlink:href="#ArialMT-53" x="66.699219"/>
     <use xlink:href="#ArialMT-37" x="133.398438"/>
     <use xlink:href="#ArialMT-32" x="189.013672"/>
     <use xlink:href="#ArialMT-36" x="244.628906"/>
     <use xlink:href="#ArialMT-33" x="300.244141"/>
    </g>
   </g>
   <g id="legend_1">
    <g id="text_17">
     <!-- Integration -->
     <g style="fill: #262626" transform="translate(473.09 41.597813) scale(0.1 -0.1)">
      <defs>
       <path id="ArialMT-49" d="M 597 0 
L 597 4581 
L 1203 4581 
L 1203 0 
L 597 0 
z
" transform="scale(0.015625)"/>
       <path id="ArialMT-6e" d="M 422 0 
L 422 3319 
L 928 3319 
L 928 2847 
Q 1294 3394 1984 3394 
Q 2284 3394 2536 3286 
Q 2788 3178 2913 3003 
Q 3038 2828 3088 2588 
Q 3119 2431 3119 2041 
L 3119 0 
L 2556 0 
L 2556 2019 
Q 2556 2363 2490 2533 
Q 2425 2703 2258 2804 
Q 2091 2906 1866 2906 
Q 1506 2906 1245 2678 
Q 984 2450 984 1813 
L 984 0 
L 422 0 
z
" transform="scale(0.015625)"/>
       <path id="ArialMT-69" d="M 425 3934 
L 425 4581 
L 988 4581 
L 988 3934 
L 425 3934 
z
M 425 0 
L 425 3319 
L 988 3319 
L 988 0 
L 425 0 
z
" transform="scale(0.015625)"/>
      </defs>
      <use xlink:href="#ArialMT-49"/>
      <use xlink:href="#ArialMT-6e" x="27.783203"/>
      <use xlink:href="#ArialMT-74" x="83.398438"/>
      <use xlink:href="#ArialMT-65" x="111.181641"/>
      <use xlink:href="#ArialMT-67" x="166.796875"/>
      <use xlink:href="#ArialMT-72" x="222.412109"/>
      <use xlink:href="#ArialMT-61" x="255.712891"/>
      <use xlink:href="#ArialMT-74" x="311.328125"/>
      <use xlink:href="#ArialMT-69" x="339.111328"/>
      <use xlink:href="#ArialMT-6f" x="361.328125"/>
      <use xlink:href="#ArialMT-6e" x="416.943359"/>
     </g>
     <!-- time (msec) -->
     <g style="fill: #262626" transform="translate(473.09 52.438125) scale(0.1 -0.1)">
      <defs>
       <path id="ArialMT-28" d="M 1497 -1347 
Q 1031 -759 709 28 
Q 388 816 388 1659 
Q 388 2403 628 3084 
Q 909 3875 1497 4659 
L 1900 4659 
Q 1522 4009 1400 3731 
Q 1209 3300 1100 2831 
Q 966 2247 966 1656 
Q 966 153 1900 -1347 
L 1497 -1347 
z
" transform="scale(0.015625)"/>
       <path id="ArialMT-29" d="M 791 -1347 
L 388 -1347 
Q 1322 153 1322 1656 
Q 1322 2244 1188 2822 
Q 1081 3291 891 3722 
Q 769 4003 388 4659 
L 791 4659 
Q 1378 3875 1659 3084 
Q 1900 2403 1900 1659 
Q 1900 816 1576 28 
Q 1253 -759 791 -1347 
z
" transform="scale(0.015625)"/>
      </defs>
      <use xlink:href="#ArialMT-74"/>
      <use xlink:href="#ArialMT-69" x="27.783203"/>
      <use xlink:href="#ArialMT-6d" x="50"/>
      <use xlink:href="#ArialMT-65" x="133.300781"/>
      <use xlink:href="#ArialMT-20" x="188.916016"/>
      <use xlink:href="#ArialMT-28" x="216.699219"/>
      <use xlink:href="#ArialMT-6d" x="250"/>
      <use xlink:href="#ArialMT-73" x="333.300781"/>
      <use xlink:href="#ArialMT-65" x="383.300781"/>
      <use xlink:href="#ArialMT-63" x="438.916016"/>
      <use xlink:href="#ArialMT-29" x="488.916016"/>
     </g>
    </g>
    <g id="patch_52">
     <path d="M 476.857969 66.700625 
L 496.857969 66.700625 
L 496.857969 59.700625 
L 476.857969 59.700625 
z
" style="fill: #1f77b4"/>
    </g>
    <g id="text_18">
     <!-- 50 -->
     <g style="fill: #262626" transform="translate(504.857969 66.700625) scale(0.1 -0.1)">
      <use xlink:href="#ArialMT-35"/>
      <use xlink:href="#ArialMT-30" x="55.615234"/>
     </g>
    </g>
    <g id="patch_53">
     <path d="M 476.857969 80.845937 
L 496.857969 80.845937 
L 496.857969 73.845937 
L 476.857969 73.845937 
z
" style="fill: #ff7f0e"/>
    </g>
    <g id="text_19">
     <!-- 100 -->
     <g style="fill: #262626" transform="translate(504.857969 80.845937) scale(0.1 -0.1)">
      <use xlink:href="#ArialMT-31"/>
      <use xlink:href="#ArialMT-30" x="55.615234"/>
      <use xlink:href="#ArialMT-30" x="111.230469"/>
     </g>
    </g>
    <g id="patch_54">
     <path d="M 476.857969 94.99125 
L 496.857969 94.99125 
L 496.857969 87.99125 
L 476.857969 87.99125 
z
" style="fill: #2ca02c"/>
    </g>
    <g id="text_20">
     <!-- 150 -->
     <g style="fill: #262626" transform="translate(504.857969 94.99125) scale(0.1 -0.1)">
      <use xlink:href="#ArialMT-31"/>
      <use xlink:href="#ArialMT-35" x="55.615234"/>
      <use xlink:href="#ArialMT-30" x="111.230469"/>
     </g>
    </g>
    <g id="patch_55">
     <path d="M 476.857969 109.136562 
L 496.857969 109.136562 
L 496.857969 102.136562 
L 476.857969 102.136562 
z
" style="fill: #d62728"/>
    </g>
    <g id="text_21">
     <!-- 200 -->
     <g style="fill: #262626" transform="translate(504.857969 109.136562) scale(0.1 -0.1)">
      <use xlink:href="#ArialMT-32"/>
      <use xlink:href="#ArialMT-30" x="55.615234"/>
      <use xlink:href="#ArialMT-30" x="111.230469"/>
     </g>
    </g>
    <g id="patch_56">
     <path d="M 476.857969 123.281875 
L 496.857969 123.281875 
L 496.857969 116.281875 
L 476.857969 116.281875 
z
" style="fill: #9467bd"/>
    </g>
    <g id="text_22">
     <!-- 250 -->
     <g style="fill: #262626" transform="translate(504.857969 123.281875) scale(0.1 -0.1)">
      <use xlink:href="#ArialMT-32"/>
      <use xlink:href="#ArialMT-35" x="55.615234"/>
      <use xlink:href="#ArialMT-30" x="111.230469"/>
     </g>
    </g>
   </g>
  </g>
 </g>
 <defs>
  <clipPath id="p7e7fb33422">
   <rect x="47.802" y="25.44" width="202.744" height="238.18"/>
  </clipPath>
  <clipPath id="p25681b629e">
   <rect x="261.346" y="25.44" width="202.744" height="238.18"/>
  </clipPath>
 </defs>
</svg>
