solid AS7262_cap_v1_1_holes
facet normal 0.00025683030169434317 0.00030646907259475174 -0.9999999200574488
  outer loop
    vertex 22.650000000000002 33.2 0.01927399999999921
    vertex 19.55 3.2000000000000006 0.0
    vertex 19.55 33.2 0.01927399999999921
  endloop
endfacet
facet normal 0.00025683030169434317 0.00030646907259475174 -0.9999999200574488
  outer loop
    vertex 19.55 3.2000000000000006 0.0
    vertex 22.650000000000002 33.2 0.01927399999999921
    vertex 22.650000000000002 3.2000000000000006 0.0
  endloop
endfacet
facet normal 0.00025683030169434317 0.00030646907259475174 -0.9999999200574488
  outer loop
    vertex 19.55 36.5 0.01927399999999921
    vertex 6.149999999999999 33.2 0.006707316430565432
    vertex 6.149999999999999 36.5 0.006707316430565432
  endloop
endfacet
facet normal 0.00025683030169434317 0.00030646907259475174 -0.9999999200574488
  outer loop
    vertex 6.149999999999999 33.2 0.006707316430565432
    vertex 19.55 36.5 0.01927399999999921
    vertex 6.15 3.2000000000000006 3.524958103184872e-16
  endloop
endfacet
facet normal 0.00025683030169434317 0.00030646907259475174 -0.9999999200574488
  outer loop
    vertex 6.15 3.2000000000000006 3.524958103184872e-16
    vertex 19.55 36.5 0.01927399999999921
    vertex 6.15 0.0 3.524958103184872e-16
  endloop
endfacet
facet normal 0.00025683030169434317 0.00030646907259475174 -0.9999999200574488
  outer loop
    vertex 6.15 0.0 3.524958103184872e-16
    vertex 19.55 36.5 0.01927399999999921
    vertex 19.55 0.0 0.0
  endloop
endfacet
facet normal 0.00025683030169434317 0.00030646907259475174 -0.9999999200574488
  outer loop
    vertex 19.55 0.0 0.0
    vertex 19.55 36.5 0.01927399999999921
    vertex 19.55 33.2 0.01927399999999921
  endloop
endfacet
facet normal 0.00025683030169434317 0.00030646907259475174 -0.9999999200574488
  outer loop
    vertex 19.55 0.0 0.0
    vertex 19.55 33.2 0.01927399999999921
    vertex 19.55 3.2000000000000006 0.0
  endloop
endfacet
facet normal 0.00025683030169434317 0.00030646907259475174 -0.9999999200574488
  outer loop
    vertex 6.149999999999999 33.2 0.006707316430565432
    vertex 3.0500000000000003 3.2000000000000006 3.524958103184872e-16
    vertex 3.049999999999999 33.2 0.006707316430565432
  endloop
endfacet
facet normal 0.00025683030169434317 0.00030646907259475174 -0.9999999200574488
  outer loop
    vertex 3.0500000000000003 3.2000000000000006 3.524958103184872e-16
    vertex 6.149999999999999 33.2 0.006707316430565432
    vertex 6.15 3.2000000000000006 3.524958103184872e-16
  endloop
endfacet
facet normal 0.00025683030169434317 0.00030646907259475174 -0.9999999200574488
  outer loop
    vertex 3.049999999999999 36.5 0.006707316430565432
    vertex 0.0 0.0 0.0
    vertex 0.0 36.5 0.0
  endloop
endfacet
facet normal 0.00025683030169434317 0.00030646907259475174 -0.9999999200574488
  outer loop
    vertex 0.0 0.0 0.0
    vertex 3.049999999999999 36.5 0.006707316430565432
    vertex 3.049999999999999 33.2 0.006707316430565432
  endloop
endfacet
facet normal 0.00025683030169434317 0.00030646907259475174 -0.9999999200574488
  outer loop
    vertex 0.0 0.0 0.0
    vertex 3.049999999999999 33.2 0.006707316430565432
    vertex 3.0500000000000003 0.0 3.524958103184872e-16
  endloop
endfacet
facet normal 0.00025683030169434317 0.00030646907259475174 -0.9999999200574488
  outer loop
    vertex 3.0500000000000003 0.0 3.524958103184872e-16
    vertex 3.049999999999999 33.2 0.006707316430565432
    vertex 3.0500000000000003 3.2000000000000006 3.524958103184872e-16
  endloop
endfacet
facet normal 0.00025683030169434317 0.00030646907259475174 -0.9999999200574488
  outer loop
    vertex 35.249999999536826 36.50003379455158 9.011880379703667e-05
    vertex 22.650000000000002 33.2 0.01927399999999921
    vertex 22.650000000000002 36.5 0.01927399999999921
  endloop
endfacet
facet normal 0.00025683030169434317 0.00030646907259475174 -0.9999999200574488
  outer loop
    vertex 22.650000000000002 33.2 0.01927399999999921
    vertex 35.249999999536826 36.50003379455158 9.011880379703667e-05
    vertex 25.25005407128228 28.500000000730935 2.7774289517972983e-08
  endloop
endfacet
facet normal 0.00025683030169434317 0.00030646907259475174 -0.9999999200574488
  outer loop
    vertex 22.650000000000002 33.2 0.01927399999999921
    vertex 25.25005407128228 28.500000000730935 2.7774289517972983e-08
    vertex 22.650000000000002 3.2000000000000006 0.0
  endloop
endfacet
facet normal 0.00025683030169434317 0.00030646907259475174 -0.9999999200574488
  outer loop
    vertex 22.650000000000002 3.2000000000000006 0.0
    vertex 25.25005407128228 28.500000000730935 2.7774289517972983e-08
    vertex 22.650000000000002 0.0 0.0
  endloop
endfacet
facet normal 0.00025683030169434317 0.00030646907259475174 -0.9999999200574488
  outer loop
    vertex 25.25005407128228 28.500000000730935 2.7774289517972983e-08
    vertex 35.249999999536826 36.50003379455158 9.011880379703667e-05
    vertex 35.250054070819104 28.500033795282512 9.014657808655463e-05
  endloop
endfacet
facet normal 0.00025683030169434317 0.00030646907259475174 -0.9999999200574488
  outer loop
    vertex 22.650000000000002 0.0 0.0
    vertex 25.250385245457927 8.000919407230638 9.894271468663395e-08
    vertex 35.24999997649059 -0.00024077841302016996 0.0006420388661370587
  endloop
endfacet
facet normal 0.00025683030169434317 0.00030646907259475174 -0.9999999200574488
  outer loop
    vertex 25.250385245457927 8.000919407230638 9.894271468663395e-08
    vertex 22.650000000000002 0.0 0.0
    vertex 25.25005407128228 28.500000000730935 2.7774289517972983e-08
  endloop
endfacet
facet normal 0.00025683030169434317 0.00030646907259475174 -0.9999999200574488
  outer loop
    vertex 35.24999997649059 -0.00024077841302016996 0.0006420388661370587
    vertex 25.250385245457927 8.000919407230638 9.894271468663395e-08
    vertex 35.25038522194852 8.000678628817619 0.0006421378088517453
  endloop
endfacet
facet normal 0.0 -1.0 0.0
  outer loop
    vertex 3.0500000000000003 0.0 3.524958103184872e-16
    vertex 0.0 0.0 3.0
    vertex 0.0 0.0 0.0
  endloop
endfacet
facet normal 0.0 -1.0 0.0
  outer loop
    vertex 0.0 0.0 3.0
    vertex 3.0500000000000003 0.0 3.524958103184872e-16
    vertex 3.0500000000000003 0.0 3.0
  endloop
endfacet
facet normal -1.0 0.0 0.0
  outer loop
    vertex 0.0 36.5 3.0
    vertex 0.0 0.0 0.0
    vertex 0.0 0.0 3.0
  endloop
endfacet
facet normal -1.0 0.0 0.0
  outer loop
    vertex 0.0 0.0 0.0
    vertex 0.0 36.5 3.0
    vertex 0.0 36.5 0.0
  endloop
endfacet
facet normal -0.0 -1.0 -0.0
  outer loop
    vertex 6.15 3.2000000000000006 3.0
    vertex 3.0500000000000003 3.2000000000000006 3.524958103184872e-16
    vertex 6.15 3.2000000000000006 3.524958103184872e-16
  endloop
endfacet
facet normal -0.0 -1.0 -0.0
  outer loop
    vertex 3.0500000000000003 3.2000000000000006 3.524958103184872e-16
    vertex 6.15 3.2000000000000006 3.0
    vertex 3.0500000000000003 3.2000000000000006 3.0
  endloop
endfacet
facet normal 1.0 0.0 0.0
  outer loop
    vertex 3.0500000000000003 3.2000000000000006 3.524958103184872e-16
    vertex 3.0500000000000003 0.0 3.0
    vertex 3.0500000000000003 0.0 3.524958103184872e-16
  endloop
endfacet
facet normal 1.0 0.0 0.0
  outer loop
    vertex 3.0500000000000003 0.0 3.0
    vertex 3.0500000000000003 3.2000000000000006 3.524958103184872e-16
    vertex 3.0500000000000003 3.2000000000000006 3.0
  endloop
endfacet
facet normal -1.0 0.0 0.0
  outer loop
    vertex 22.650000000000002 3.2000000000000006 3.0
    vertex 22.650000000000002 0.0 0.0
    vertex 22.650000000000002 0.0 3.0
  endloop
endfacet
facet normal -1.0 0.0 0.0
  outer loop
    vertex 22.650000000000002 0.0 0.0
    vertex 22.650000000000002 3.2000000000000006 3.0
    vertex 22.650000000000002 3.2000000000000006 0.0
  endloop
endfacet
facet normal -0.0 -1.0 -0.0
  outer loop
    vertex 22.650000000000002 3.2000000000000006 3.0
    vertex 19.55 3.2000000000000006 0.0
    vertex 22.650000000000002 3.2000000000000006 0.0
  endloop
endfacet
facet normal -0.0 -1.0 -0.0
  outer loop
    vertex 19.55 3.2000000000000006 0.0
    vertex 22.650000000000002 3.2000000000000006 3.0
    vertex 19.55 3.2000000000000006 3.0
  endloop
endfacet
facet normal 1.0 0.0 0.0
  outer loop
    vertex 19.55 3.2000000000000006 0.0
    vertex 19.55 0.0 3.0
    vertex 19.55 0.0 0.0
  endloop
endfacet
facet normal 1.0 0.0 0.0
  outer loop
    vertex 19.55 0.0 3.0
    vertex 19.55 3.2000000000000006 0.0
    vertex 19.55 3.2000000000000006 3.0
  endloop
endfacet
facet normal 1.0 0.0 0.0
  outer loop
    vertex 19.55 36.5 0.01927399999999921
    vertex 19.55 33.2 3.0
    vertex 19.55 33.2 0.01927399999999921
  endloop
endfacet
facet normal 1.0 0.0 0.0
  outer loop
    vertex 19.55 33.2 3.0
    vertex 19.55 36.5 0.01927399999999921
    vertex 19.55 36.5 3.0
  endloop
endfacet
facet normal 0.0 1.0 0.0
  outer loop
    vertex 19.55 33.2 3.0
    vertex 22.650000000000002 33.2 0.01927399999999921
    vertex 19.55 33.2 0.01927399999999921
  endloop
endfacet
facet normal 0.0 1.0 0.0
  outer loop
    vertex 22.650000000000002 33.2 0.01927399999999921
    vertex 19.55 33.2 3.0
    vertex 22.650000000000002 33.2 3.0
  endloop
endfacet
facet normal -0.0 1.0 -0.0
  outer loop
    vertex 22.650000000000002 36.5 3.0
    vertex 25.250000003071985 36.50000697312767 2.9999761770960673
    vertex 22.650000000000002 36.5 0.01927399999999921
  endloop
endfacet
facet normal -0.0 1.0 -0.0
  outer loop
    vertex 22.650000000000002 36.5 0.01927399999999921
    vertex 35.24998469499169 36.50003602794882 4.500090118724058
    vertex 35.249999999536826 36.50003379455158 9.011880379703667e-05
  endloop
endfacet
facet normal -0.0 1.0 -0.0
  outer loop
    vertex 35.24998469499169 36.50003602794882 4.500090118724058
    vertex 22.650000000000002 36.5 0.01927399999999921
    vertex 25.250000003071985 36.50000697312767 2.9999761770960673
  endloop
endfacet
facet normal -0.0 1.0 -0.0
  outer loop
    vertex 35.24998469499169 36.50003602794882 4.500090118724058
    vertex 25.250000003071985 36.50000697312767 2.9999761770960673
    vertex 25.24998469852685 36.500009206524915 4.499976177016329
  endloop
endfacet
facet normal -0.0 1.0 -0.0
  outer loop
    vertex 6.149999999999999 36.5 3.0
    vertex 19.55 36.5 0.01927399999999921
    vertex 6.149999999999999 36.5 0.006707316430565432
  endloop
endfacet
facet normal -0.0 1.0 -0.0
  outer loop
    vertex 19.55 36.5 0.01927399999999921
    vertex 6.149999999999999 36.5 3.0
    vertex 19.55 36.5 3.0
  endloop
endfacet
facet normal -0.0 1.0 -0.0
  outer loop
    vertex 3.0500000000000003 33.2 3.0
    vertex 6.149999999999999 33.2 0.006707316430565432
    vertex 3.049999999999999 33.2 0.006707316430565432
  endloop
endfacet
facet normal -0.0 1.0 -0.0
  outer loop
    vertex 6.149999999999999 33.2 0.006707316430565432
    vertex 3.0500000000000003 33.2 3.0
    vertex 6.149999999999999 33.2 3.0
  endloop
endfacet
facet normal -0.0 1.0 -0.0
  outer loop
    vertex 0.0 36.5 3.0
    vertex 3.049999999999999 36.5 0.006707316430565432
    vertex 0.0 36.5 0.0
  endloop
endfacet
facet normal -0.0 1.0 -0.0
  outer loop
    vertex 3.049999999999999 36.5 0.006707316430565432
    vertex 0.0 36.5 3.0
    vertex 3.049999999999999 36.5 3.0
  endloop
endfacet
facet normal -1.0 0.0 0.0
  outer loop
    vertex 6.149999999999999 36.5 3.0
    vertex 6.149999999999999 33.2 0.006707316430565432
    vertex 6.149999999999999 33.2 3.0
  endloop
endfacet
facet normal -1.0 0.0 0.0
  outer loop
    vertex 6.149999999999999 33.2 0.006707316430565432
    vertex 6.149999999999999 36.5 3.0
    vertex 6.149999999999999 36.5 0.006707316430565432
  endloop
endfacet
facet normal 0.0 -1.0 0.0
  outer loop
    vertex 35.24999997649059 -0.00024077841302016996 0.0006420388661370587
    vertex 22.650000000000002 0.0 3.0
    vertex 22.650000000000002 0.0 0.0
  endloop
endfacet
facet normal 0.0 -1.0 0.0
  outer loop
    vertex 22.650000000000002 0.0 3.0
    vertex 35.24999997649059 -0.00024077841302016996 0.0006420388661370587
    vertex 25.249999996624602 -4.968443439640053e-05 3.000066242105188
  endloop
endfacet
facet normal 0.0 -1.0 0.0
  outer loop
    vertex 25.249999996624602 -4.968443439640053e-05 3.000066242105188
    vertex 35.24999997649059 -0.00024077841302016996 0.0006420388661370587
    vertex 35.24990863895263 -0.00023456821565122395 4.500642036072433
  endloop
endfacet
facet normal 0.0 -1.0 0.0
  outer loop
    vertex 25.249999996624602 -4.968443439640053e-05 3.000066242105188
    vertex 35.24990863895263 -0.00023456821565122395 4.500642036072433
    vertex 25.249908659086643 -4.3474237027454526e-05 4.500066239311484
  endloop
endfacet
facet normal 0.0 -1.0 0.0
  outer loop
    vertex 19.55 0.0 3.0
    vertex 6.15 0.0 3.524958103184872e-16
    vertex 19.55 0.0 0.0
  endloop
endfacet
facet normal 0.0 -1.0 0.0
  outer loop
    vertex 6.15 0.0 3.524958103184872e-16
    vertex 19.55 0.0 3.0
    vertex 6.15 0.0 3.0
  endloop
endfacet
facet normal -1.0 0.0 0.0
  outer loop
    vertex 6.15 3.2000000000000006 3.0
    vertex 6.15 0.0 3.524958103184872e-16
    vertex 6.15 0.0 3.0
  endloop
endfacet
facet normal -1.0 0.0 0.0
  outer loop
    vertex 6.15 0.0 3.524958103184872e-16
    vertex 6.15 3.2000000000000006 3.0
    vertex 6.15 3.2000000000000006 3.524958103184872e-16
  endloop
endfacet
facet normal 0.0 0.0 1.0
  outer loop
    vertex 22.5 7.1 5.000000000000001
    vertex 19.5 10.1 5.000000000000001
    vertex 19.5 7.1 5.000000000000001
  endloop
endfacet
facet normal 0.0 0.0 1.0
  outer loop
    vertex 19.5 10.1 5.000000000000001
    vertex 22.5 7.1 5.000000000000001
    vertex 22.5 10.1 5.000000000000001
  endloop
endfacet
facet normal -1.0 -0.0 -0.0
  outer loop
    vertex 19.5 10.1 5.000000000000001
    vertex 19.5 7.1 3.0
    vertex 19.5 7.1 5.000000000000001
  endloop
endfacet
facet normal -1.0 -0.0 -0.0
  outer loop
    vertex 19.5 7.1 3.0
    vertex 19.5 10.1 5.000000000000001
    vertex 19.5 10.1 3.0
  endloop
endfacet
facet normal 0.0 -1.0 0.0
  outer loop
    vertex 22.5 7.1 5.000000000000001
    vertex 19.5 7.1 3.0
    vertex 22.5 7.1 3.0
  endloop
endfacet
facet normal 0.0 -1.0 0.0
  outer loop
    vertex 19.5 7.1 3.0
    vertex 22.5 7.1 5.000000000000001
    vertex 19.5 7.1 5.000000000000001
  endloop
endfacet
facet normal 1.0 -0.0 0.0
  outer loop
    vertex 22.5 10.1 3.0
    vertex 22.5 7.1 5.000000000000001
    vertex 22.5 7.1 3.0
  endloop
endfacet
facet normal 1.0 -0.0 0.0
  outer loop
    vertex 22.5 7.1 5.000000000000001
    vertex 22.5 10.1 3.0
    vertex 22.5 10.1 5.000000000000001
  endloop
endfacet
facet normal 0.0 1.0 0.0
  outer loop
    vertex 19.5 10.1 5.000000000000001
    vertex 22.5 10.1 3.0
    vertex 19.5 10.1 3.0
  endloop
endfacet
facet normal 0.0 1.0 0.0
  outer loop
    vertex 22.5 10.1 3.0
    vertex 19.5 10.1 5.000000000000001
    vertex 22.5 10.1 5.000000000000001
  endloop
endfacet
facet normal 0.0 0.0 1.0
  outer loop
    vertex 22.400000000000002 26.300000000000004 5.000000000000001
    vertex 19.400000000000002 29.300000000000004 5.000000000000001
    vertex 19.400000000000002 26.300000000000004 5.000000000000001
  endloop
endfacet
facet normal 0.0 0.0 1.0
  outer loop
    vertex 19.400000000000002 29.300000000000004 5.000000000000001
    vertex 22.400000000000002 26.300000000000004 5.000000000000001
    vertex 22.400000000000002 29.300000000000004 5.000000000000001
  endloop
endfacet
facet normal -1.0 -0.0 -0.0
  outer loop
    vertex 19.400000000000002 29.300000000000004 5.000000000000001
    vertex 19.400000000000002 26.300000000000004 3.0
    vertex 19.400000000000002 26.300000000000004 5.000000000000001
  endloop
endfacet
facet normal -1.0 -0.0 -0.0
  outer loop
    vertex 19.400000000000002 26.300000000000004 3.0
    vertex 19.400000000000002 29.300000000000004 5.000000000000001
    vertex 19.400000000000002 29.300000000000004 3.0
  endloop
endfacet
facet normal 0.0 -1.0 0.0
  outer loop
    vertex 22.400000000000002 26.300000000000004 5.000000000000001
    vertex 19.400000000000002 26.300000000000004 3.0
    vertex 22.400000000000002 26.300000000000004 3.0
  endloop
endfacet
facet normal 0.0 -1.0 0.0
  outer loop
    vertex 19.400000000000002 26.300000000000004 3.0
    vertex 22.400000000000002 26.300000000000004 5.000000000000001
    vertex 19.400000000000002 26.300000000000004 5.000000000000001
  endloop
endfacet
facet normal 1.0 -0.0 0.0
  outer loop
    vertex 22.400000000000002 29.300000000000004 3.0
    vertex 22.400000000000002 26.300000000000004 5.000000000000001
    vertex 22.400000000000002 26.300000000000004 3.0
  endloop
endfacet
facet normal 1.0 -0.0 0.0
  outer loop
    vertex 22.400000000000002 26.300000000000004 5.000000000000001
    vertex 22.400000000000002 29.300000000000004 3.0
    vertex 22.400000000000002 29.300000000000004 5.000000000000001
  endloop
endfacet
facet normal 0.0 1.0 0.0
  outer loop
    vertex 19.400000000000002 29.300000000000004 5.000000000000001
    vertex 22.400000000000002 29.300000000000004 3.0
    vertex 19.400000000000002 29.300000000000004 3.0
  endloop
endfacet
facet normal 0.0 1.0 0.0
  outer loop
    vertex 22.400000000000002 29.300000000000004 3.0
    vertex 19.400000000000002 29.300000000000004 5.000000000000001
    vertex 22.400000000000002 29.300000000000004 5.000000000000001
  endloop
endfacet
facet normal 0.0 0.0 1.0
  outer loop
    vertex 5.500000000000001 16.75 4.8
    vertex 3.0 19.75 4.8
    vertex 3.0 16.75 4.8
  endloop
endfacet
facet normal 0.0 0.0 1.0
  outer loop
    vertex 3.0 19.75 4.8
    vertex 5.500000000000001 16.75 4.8
    vertex 5.500000000000001 19.75 4.8
  endloop
endfacet
facet normal -1.0 -0.0 -0.0
  outer loop
    vertex 3.0 19.75 4.8
    vertex 3.0 16.75 3.0
    vertex 3.0 16.75 4.8
  endloop
endfacet
facet normal -1.0 -0.0 -0.0
  outer loop
    vertex 3.0 16.75 3.0
    vertex 3.0 19.75 4.8
    vertex 3.0 19.75 3.0
  endloop
endfacet
facet normal -2.6207027077035427e-16 -1.0 -2.9047197499177194e-16
  outer loop
    vertex 5.500000000000001 16.75 4.8
    vertex 3.05 16.750000000000004 3.0
    vertex 5.500000000000001 16.75 3.0
  endloop
endfacet
facet normal -2.6207027077035427e-16 -1.0 -2.9047197499177194e-16
  outer loop
    vertex 3.05 16.750000000000004 3.0
    vertex 5.500000000000001 16.75 4.8
    vertex 3.0 16.75 3.0
  endloop
endfacet
facet normal -2.6207027077035427e-16 -1.0 -2.9047197499177194e-16
  outer loop
    vertex 3.0 16.75 3.0
    vertex 5.500000000000001 16.75 4.8
    vertex 3.0 16.75 4.8
  endloop
endfacet
facet normal 1.0 0.0 0.0
  outer loop
    vertex 5.500000000000001 19.75 3.0
    vertex 5.500000000000001 16.75 4.8
    vertex 5.500000000000001 16.75 3.0
  endloop
endfacet
facet normal 1.0 0.0 0.0
  outer loop
    vertex 5.500000000000001 16.75 4.8
    vertex 5.500000000000001 19.75 3.0
    vertex 5.500000000000001 19.75 4.8
  endloop
endfacet
facet normal 2.6207027077035417e-16 1.0 2.90471974991772e-16
  outer loop
    vertex 3.0 19.75 4.8
    vertex 3.0500000000000003 19.750000000000004 3.0
    vertex 3.0 19.75 3.0
  endloop
endfacet
facet normal 2.6207027077035417e-16 1.0 2.90471974991772e-16
  outer loop
    vertex 3.0500000000000003 19.750000000000004 3.0
    vertex 3.0 19.75 4.8
    vertex 5.500000000000001 19.75 3.0
  endloop
endfacet
facet normal 2.6207027077035417e-16 1.0 2.90471974991772e-16
  outer loop
    vertex 5.500000000000001 19.75 3.0
    vertex 3.0 19.75 4.8
    vertex 5.500000000000001 19.75 4.8
  endloop
endfacet
facet normal -0.0 -0.0 1.0
  outer loop
    vertex 3.05 16.750000000000004 3.0
    vertex 3.0 19.75 3.0
    vertex 3.0 16.75 3.0
  endloop
endfacet
facet normal -0.0 -0.0 1.0
  outer loop
    vertex 3.0 19.75 3.0
    vertex 3.05 16.750000000000004 3.0
    vertex 3.0500000000000003 19.750000000000004 3.0
  endloop
endfacet
facet normal -0.0 -0.0 1.0
  outer loop
    vertex 5.500000000000001 16.75 3.0
    vertex 3.0500000000000003 19.750000000000004 3.0
    vertex 3.05 16.750000000000004 3.0
  endloop
endfacet
facet normal -0.0 -0.0 1.0
  outer loop
    vertex 3.0500000000000003 19.750000000000004 3.0
    vertex 5.500000000000001 16.75 3.0
    vertex 5.500000000000001 19.75 3.0
  endloop
endfacet
facet normal 1.0 1.602253683265851e-16 -1.7664283829645944e-16
  outer loop
    vertex 3.049999999999999 36.5 0.006707316430565432
    vertex 3.0500000000000003 33.2 3.0
    vertex 3.049999999999999 33.2 0.006707316430565432
  endloop
endfacet
facet normal 1.0 1.602253683265851e-16 -1.7664283829645944e-16
  outer loop
    vertex 3.0500000000000003 33.2 3.0
    vertex 3.049999999999999 36.5 0.006707316430565432
    vertex 3.049999999999999 36.5 3.0
  endloop
endfacet
facet normal -1.0 0.0 0.0
  outer loop
    vertex 22.650000000000002 36.5 3.0
    vertex 22.650000000000002 33.2 0.01927399999999921
    vertex 22.650000000000002 33.2 3.0
  endloop
endfacet
facet normal -1.0 0.0 0.0
  outer loop
    vertex 22.650000000000002 33.2 0.01927399999999921
    vertex 22.650000000000002 36.5 3.0
    vertex 22.650000000000002 36.5 0.01927399999999921
  endloop
endfacet
facet normal 0.9999999972867426 8.077419015364964e-06 7.322069513475327e-05
  outer loop
    vertex 25.250385245457927 8.000919407230638 9.894271468663395e-08
    vertex 25.25 28.500000000000004 3.0
    vertex 25.25 7.999999999999999 3.0
  endloop
endfacet
facet normal 0.9999999972867426 8.077419015364964e-06 7.322069513475327e-05
  outer loop
    vertex 25.25 28.500000000000004 3.0
    vertex 25.250385245457927 8.000919407230638 9.894271468663395e-08
    vertex 25.25005407128228 28.500000000730935 2.7774289517972983e-08
  endloop
endfacet
facet normal 0.9999999976490592 -2.4077841302016998e-05 6.420388661370587e-05
  outer loop
    vertex 35.25038522194852 8.000678628817619 0.0006421378088517453
    vertex 35.24990863895263 -0.00023456821565122395 4.500642036072433
    vertex 35.24999997649059 -0.00024077841302016996 0.0006420388661370587
  endloop
endfacet
facet normal 0.9999999976490592 -2.4077841302016998e-05 6.420388661370587e-05
  outer loop
    vertex 35.24990863895263 -0.00023456821565122395 4.500642036072433
    vertex 35.25038522194852 8.000678628817619 0.0006421378088517453
    vertex 35.24990863895263 7.99976543178435 4.500642036072433
  endloop
endfacet
facet normal 2.405816351691498e-05 0.9999999527480083 0.00030647216193888853
  outer loop
    vertex 25.25 7.999999999999999 3.0
    vertex 35.25038522194852 8.000678628817619 0.0006421378088517453
    vertex 25.250385245457927 8.000919407230638 9.894271468663395e-08
  endloop
endfacet
facet normal 2.405816351691498e-05 0.9999999527480083 0.00030647216193888853
  outer loop
    vertex 35.25038522194852 8.000678628817619 0.0006421378088517453
    vertex 25.25 7.999999999999999 3.0
    vertex 35.24990863895263 7.99976543178435 4.500642036072433
  endloop
endfacet
facet normal 2.405816351691498e-05 0.9999999527480083 0.00030647216193888853
  outer loop
    vertex 35.24990863895263 7.99976543178435 4.500642036072433
    vertex 25.25 7.999999999999999 3.0
    vertex 25.24990866246204 8.000006210197368 4.499999997206296
  endloop
endfacet
facet normal 0.9999999999536826 3.3794551578781545e-06 9.011880379703667e-06
  outer loop
    vertex 35.249999999536826 36.50003379455158 9.011880379703667e-05
    vertex 35.24998469499169 28.500036027948827 4.500090118724058
    vertex 35.250054070819104 28.500033795282512 9.014657808655463e-05
  endloop
endfacet
facet normal 0.9999999999536826 3.3794551578781545e-06 9.011880379703667e-06
  outer loop
    vertex 35.24998469499169 28.500036027948827 4.500090118724058
    vertex 35.249999999536826 36.50003379455158 9.011880379703667e-05
    vertex 35.24998469499169 36.50003602794882 4.500090118724058
  endloop
endfacet
facet normal 3.37945515966215e-06 -0.9999999999942898 -1.8273273450991535e-10
  outer loop
    vertex 35.250054070819104 28.500033795282512 9.014657808655463e-05
    vertex 25.25 28.500000000000004 3.0
    vertex 25.25005407128228 28.500000000730935 2.7774289517972983e-08
  endloop
endfacet
facet normal 3.37945515966215e-06 -0.9999999999942898 -1.8273273450991535e-10
  outer loop
    vertex 25.25 28.500000000000004 3.0
    vertex 35.250054070819104 28.500033795282512 9.014657808655463e-05
    vertex 35.24998469499169 28.500036027948827 4.500090118724058
  endloop
endfacet
facet normal 3.37945515966215e-06 -0.9999999999942898 -1.8273273450991535e-10
  outer loop
    vertex 25.25 28.500000000000004 3.0
    vertex 35.24998469499169 28.500036027948827 4.500090118724058
    vertex 25.249984695454863 28.50000223339725 4.499999999920261
  endloop
endfacet
facet normal -2.3453357023260923e-07 2.7352263681005976e-07 0.9999999999999352
  outer loop
    vertex 0.0 36.5 3.0
    vertex 3.0 19.75 3.0
    vertex 3.049999999999999 36.5 3.0
  endloop
endfacet
facet normal -2.3453357023260923e-07 2.7352263681005976e-07 0.9999999999999352
  outer loop
    vertex 3.0 19.75 3.0
    vertex 0.0 36.5 3.0
    vertex 3.0 16.75 3.0
  endloop
endfacet
facet normal -2.3453357023260923e-07 2.7352263681005976e-07 0.9999999999999352
  outer loop
    vertex 3.049999999999999 36.5 3.0
    vertex 3.0 19.75 3.0
    vertex 3.0500000000000003 19.750000000000004 3.0
  endloop
endfacet
facet normal -2.3453357023260923e-07 2.7352263681005976e-07 0.9999999999999352
  outer loop
    vertex 3.049999999999999 36.5 3.0
    vertex 3.0500000000000003 19.750000000000004 3.0
    vertex 3.0500000000000003 33.2 3.0
  endloop
endfacet
facet normal -2.3453357023260923e-07 2.7352263681005976e-07 0.9999999999999352
  outer loop
    vertex 3.0500000000000003 33.2 3.0
    vertex 3.0500000000000003 19.750000000000004 3.0
    vertex 5.500000000000001 19.75 3.0
  endloop
endfacet
facet normal -2.3453357023260923e-07 2.7352263681005976e-07 0.9999999999999352
  outer loop
    vertex 3.0500000000000003 33.2 3.0
    vertex 5.500000000000001 19.75 3.0
    vertex 6.149999999999999 33.2 3.0
  endloop
endfacet
facet normal -2.3453357023260923e-07 2.7352263681005976e-07 0.9999999999999352
  outer loop
    vertex 19.400000000000002 26.300000000000004 3.0
    vertex 19.5 10.1 3.0
    vertex 22.400000000000002 26.300000000000004 3.0
  endloop
endfacet
facet normal -2.3453357023260923e-07 2.7352263681005976e-07 0.9999999999999352
  outer loop
    vertex 19.5 10.1 3.0
    vertex 19.400000000000002 26.300000000000004 3.0
    vertex 19.5 7.1 3.0
  endloop
endfacet
facet normal -2.3453357023260923e-07 2.7352263681005976e-07 0.9999999999999352
  outer loop
    vertex 22.400000000000002 26.300000000000004 3.0
    vertex 19.5 10.1 3.0
    vertex 22.5 10.1 3.0
  endloop
endfacet
facet normal -2.3453357023260923e-07 2.7352263681005976e-07 0.9999999999999352
  outer loop
    vertex 22.400000000000002 26.300000000000004 3.0
    vertex 22.5 10.1 3.0
    vertex 22.400000000000002 29.300000000000004 3.0
  endloop
endfacet
facet normal -2.3453357023260923e-07 2.7352263681005976e-07 0.9999999999999352
  outer loop
    vertex 19.55 0.0 3.0
    vertex 6.15 3.2000000000000006 3.0
    vertex 6.15 0.0 3.0
  endloop
endfacet
facet normal -2.3453357023260923e-07 2.7352263681005976e-07 0.9999999999999352
  outer loop
    vertex 6.15 3.2000000000000006 3.0
    vertex 19.55 0.0 3.0
    vertex 19.5 7.1 3.0
  endloop
endfacet
facet normal -2.3453357023260923e-07 2.7352263681005976e-07 0.9999999999999352
  outer loop
    vertex 6.15 3.2000000000000006 3.0
    vertex 19.5 7.1 3.0
    vertex 19.400000000000002 26.300000000000004 3.0
  endloop
endfacet
facet normal -2.3453357023260923e-07 2.7352263681005976e-07 0.9999999999999352
  outer loop
    vertex 19.5 7.1 3.0
    vertex 19.55 0.0 3.0
    vertex 19.55 3.2000000000000006 3.0
  endloop
endfacet
facet normal -2.3453357023260923e-07 2.7352263681005976e-07 0.9999999999999352
  outer loop
    vertex 19.5 7.1 3.0
    vertex 19.55 3.2000000000000006 3.0
    vertex 22.5 7.1 3.0
  endloop
endfacet
facet normal -2.3453357023260923e-07 2.7352263681005976e-07 0.9999999999999352
  outer loop
    vertex 22.5 7.1 3.0
    vertex 19.55 3.2000000000000006 3.0
    vertex 22.650000000000002 3.2000000000000006 3.0
  endloop
endfacet
facet normal -2.3453357023260923e-07 2.7352263681005976e-07 0.9999999999999352
  outer loop
    vertex 22.5 7.1 3.0
    vertex 22.650000000000002 3.2000000000000006 3.0
    vertex 22.5 10.1 3.0
  endloop
endfacet
facet normal -2.3453357023260923e-07 2.7352263681005976e-07 0.9999999999999352
  outer loop
    vertex 25.249999996624602 -4.968443439640053e-05 3.000066242105188
    vertex 22.650000000000002 3.2000000000000006 3.0
    vertex 22.650000000000002 0.0 3.0
  endloop
endfacet
facet normal -2.3453357023260923e-07 2.7352263681005976e-07 0.9999999999999352
  outer loop
    vertex 22.650000000000002 3.2000000000000006 3.0
    vertex 25.249999996624602 -4.968443439640053e-05 3.000066242105188
    vertex 22.650000000000002 33.2 3.0
  endloop
endfacet
facet normal -2.3453357023260923e-07 2.7352263681005976e-07 0.9999999999999352
  outer loop
    vertex 22.650000000000002 33.2 3.0
    vertex 25.249999996624602 -4.968443439640053e-05 3.000066242105188
    vertex 22.650000000000002 36.5 3.0
  endloop
endfacet
facet normal -2.3453357023260923e-07 2.7352263681005976e-07 0.9999999999999352
  outer loop
    vertex 22.650000000000002 36.5 3.0
    vertex 25.249999996624602 -4.968443439640053e-05 3.000066242105188
    vertex 25.25 28.500000000000004 3.0
  endloop
endfacet
facet normal -2.3453357023260923e-07 2.7352263681005976e-07 0.9999999999999352
  outer loop
    vertex 22.650000000000002 36.5 3.0
    vertex 25.25 28.500000000000004 3.0
    vertex 25.250000003071985 36.50000697312767 2.9999761770960673
  endloop
endfacet
facet normal -2.3453357023260923e-07 2.7352263681005976e-07 0.9999999999999352
  outer loop
    vertex 25.25 28.500000000000004 3.0
    vertex 25.249999996624602 -4.968443439640053e-05 3.000066242105188
    vertex 25.25 7.999999999999999 3.0
  endloop
endfacet
facet normal -2.3453357023260923e-07 2.7352263681005976e-07 0.9999999999999352
  outer loop
    vertex 22.400000000000002 29.300000000000004 3.0
    vertex 19.55 33.2 3.0
    vertex 19.400000000000002 29.300000000000004 3.0
  endloop
endfacet
facet normal -2.3453357023260923e-07 2.7352263681005976e-07 0.9999999999999352
  outer loop
    vertex 19.55 33.2 3.0
    vertex 22.400000000000002 29.300000000000004 3.0
    vertex 22.650000000000002 33.2 3.0
  endloop
endfacet
facet normal -2.3453357023260923e-07 2.7352263681005976e-07 0.9999999999999352
  outer loop
    vertex 22.650000000000002 33.2 3.0
    vertex 22.400000000000002 29.300000000000004 3.0
    vertex 22.5 10.1 3.0
  endloop
endfacet
facet normal -2.3453357023260923e-07 2.7352263681005976e-07 0.9999999999999352
  outer loop
    vertex 22.650000000000002 33.2 3.0
    vertex 22.5 10.1 3.0
    vertex 22.650000000000002 3.2000000000000006 3.0
  endloop
endfacet
facet normal -2.3453357023260923e-07 2.7352263681005976e-07 0.9999999999999352
  outer loop
    vertex 3.0500000000000003 0.0 3.0
    vertex 0.0 36.5 3.0
    vertex 0.0 0.0 3.0
  endloop
endfacet
facet normal -2.3453357023260923e-07 2.7352263681005976e-07 0.9999999999999352
  outer loop
    vertex 0.0 36.5 3.0
    vertex 3.0500000000000003 0.0 3.0
    vertex 3.0 16.75 3.0
  endloop
endfacet
facet normal -2.3453357023260923e-07 2.7352263681005976e-07 0.9999999999999352
  outer loop
    vertex 3.0 16.75 3.0
    vertex 3.0500000000000003 0.0 3.0
    vertex 3.05 16.750000000000004 3.0
  endloop
endfacet
facet normal -2.3453357023260923e-07 2.7352263681005976e-07 0.9999999999999352
  outer loop
    vertex 3.05 16.750000000000004 3.0
    vertex 3.0500000000000003 0.0 3.0
    vertex 3.0500000000000003 3.2000000000000006 3.0
  endloop
endfacet
facet normal -2.3453357023260923e-07 2.7352263681005976e-07 0.9999999999999352
  outer loop
    vertex 3.05 16.750000000000004 3.0
    vertex 3.0500000000000003 3.2000000000000006 3.0
    vertex 5.500000000000001 16.75 3.0
  endloop
endfacet
facet normal -2.3453357023260923e-07 2.7352263681005976e-07 0.9999999999999352
  outer loop
    vertex 5.500000000000001 16.75 3.0
    vertex 3.0500000000000003 3.2000000000000006 3.0
    vertex 6.15 3.2000000000000006 3.0
  endloop
endfacet
facet normal -2.3453357023260923e-07 2.7352263681005976e-07 0.9999999999999352
  outer loop
    vertex 5.500000000000001 16.75 3.0
    vertex 6.15 3.2000000000000006 3.0
    vertex 5.500000000000001 19.75 3.0
  endloop
endfacet
facet normal -2.3453357023260923e-07 2.7352263681005976e-07 0.9999999999999352
  outer loop
    vertex 5.500000000000001 19.75 3.0
    vertex 6.15 3.2000000000000006 3.0
    vertex 6.149999999999999 33.2 3.0
  endloop
endfacet
facet normal -2.3453357023260923e-07 2.7352263681005976e-07 0.9999999999999352
  outer loop
    vertex 6.149999999999999 33.2 3.0
    vertex 6.15 3.2000000000000006 3.0
    vertex 6.149999999999999 36.5 3.0
  endloop
endfacet
facet normal -2.3453357023260923e-07 2.7352263681005976e-07 0.9999999999999352
  outer loop
    vertex 6.149999999999999 36.5 3.0
    vertex 6.15 3.2000000000000006 3.0
    vertex 19.55 36.5 3.0
  endloop
endfacet
facet normal -2.3453357023260923e-07 2.7352263681005976e-07 0.9999999999999352
  outer loop
    vertex 19.55 36.5 3.0
    vertex 6.15 3.2000000000000006 3.0
    vertex 19.400000000000002 29.300000000000004 3.0
  endloop
endfacet
facet normal -2.3453357023260923e-07 2.7352263681005976e-07 0.9999999999999352
  outer loop
    vertex 19.400000000000002 29.300000000000004 3.0
    vertex 6.15 3.2000000000000006 3.0
    vertex 19.400000000000002 26.300000000000004 3.0
  endloop
endfacet
facet normal -2.3453357023260923e-07 2.7352263681005976e-07 0.9999999999999352
  outer loop
    vertex 19.55 36.5 3.0
    vertex 19.400000000000002 29.300000000000004 3.0
    vertex 19.55 33.2 3.0
  endloop
endfacet
facet normal -6.089169197278502e-05 4.140131579297337e-06 0.9999999981375307
  outer loop
    vertex 35.24990863895263 -0.00023456821565122395 4.500642036072433
    vertex 25.24990866246204 8.000006210197368 4.499999997206296
    vertex 25.249908659086643 -4.3474237027454526e-05 4.500066239311484
  endloop
endfacet
facet normal -6.089169197278502e-05 4.140131579297337e-06 0.9999999981375307
  outer loop
    vertex 25.24990866246204 8.000006210197368 4.499999997206296
    vertex 35.24990863895263 -0.00023456821565122395 4.500642036072433
    vertex 35.24990863895263 7.99976543178435 4.500642036072433
  endloop
endfacet
facet normal -0.9999999981461011 -8.227392780606466e-11 -6.089169197296626e-05
  outer loop
    vertex 25.249908659086643 -4.3474237027454526e-05 4.500066239311484
    vertex 25.25 7.999999999999999 3.0
    vertex 25.249999996624602 -4.968443439640053e-05 3.000066242105188
  endloop
endfacet
facet normal -0.9999999981461011 -8.227392780606466e-11 -6.089169197296626e-05
  outer loop
    vertex 25.25 7.999999999999999 3.0
    vertex 25.249908659086643 -4.3474237027454526e-05 4.500066239311484
    vertex 25.24990866246204 8.000006210197368 4.499999997206296
  endloop
endfacet
facet normal -1.0203030090297797e-05 1.4889314976717463e-06 0.9999999999468407
  outer loop
    vertex 35.24998469499169 28.500036027948827 4.500090118724058
    vertex 25.24998469852685 36.500009206524915 4.499976177016329
    vertex 25.249984695454863 28.50000223339725 4.499999999920261
  endloop
endfacet
facet normal -1.0203030090297797e-05 1.4889314976717463e-06 0.9999999999468407
  outer loop
    vertex 25.24998469852685 36.500009206524915 4.499976177016329
    vertex 35.24998469499169 28.500036027948827 4.500090118724058
    vertex 35.24998469499169 36.50003602794882 4.500090118724058
  endloop
endfacet
facet normal -0.9999999999479492 3.5361482693196916e-10 -1.0203030090835616e-05
  outer loop
    vertex 25.249984695454863 28.50000223339725 4.499999999920261
    vertex 25.250000003071985 36.50000697312767 2.9999761770960673
    vertex 25.25 28.500000000000004 3.0
  endloop
endfacet
facet normal -0.9999999999479492 3.5361482693196916e-10 -1.0203030090835616e-05
  outer loop
    vertex 25.250000003071985 36.50000697312767 2.9999761770960673
    vertex 25.249984695454863 28.50000223339725 4.499999999920261
    vertex 25.24998469852685 36.500009206524915 4.499976177016329
  endloop
endfacet
endsolid AS7262_cap_v1_1_holes
