solid as7262x_handheld_top_button_laydown_v2
facet normal 0.0 0.0 -1.0
  outer loop
    vertex 35.3 35.55 0.0
    vertex 32.199999999999996 5.5499999999999945 0.0
    vertex 32.199999999999996 35.55 0.0
  endloop
endfacet
facet normal 0.0 0.0 -1.0
  outer loop
    vertex 32.199999999999996 5.5499999999999945 0.0
    vertex 35.3 35.55 0.0
    vertex 35.300000000000004 5.5499999999999945 0.0
  endloop
endfacet
facet normal 0.0 0.0 -1.0
  outer loop
    vertex 32.199999999999996 38.75 0.0
    vertex 13.8 35.55 0.0
    vertex 13.8 38.75 0.0
  endloop
endfacet
facet normal 0.0 0.0 -1.0
  outer loop
    vertex 13.8 35.55 0.0
    vertex 32.199999999999996 38.75 0.0
    vertex 13.9 5.55 0.0
  endloop
endfacet
facet normal 0.0 0.0 -1.0
  outer loop
    vertex 13.9 5.55 0.0
    vertex 32.199999999999996 38.75 0.0
    vertex 13.9 2.250000000000001 0.0
  endloop
endfacet
facet normal 0.0 0.0 -1.0
  outer loop
    vertex 13.9 2.250000000000001 0.0
    vertex 32.199999999999996 38.75 0.0
    vertex 32.199999999999996 2.249999999999998 0.0
  endloop
endfacet
facet normal 0.0 0.0 -1.0
  outer loop
    vertex 32.199999999999996 2.249999999999998 0.0
    vertex 32.199999999999996 38.75 0.0
    vertex 32.199999999999996 35.55 0.0
  endloop
endfacet
facet normal 0.0 0.0 -1.0
  outer loop
    vertex 32.199999999999996 2.249999999999998 0.0
    vertex 32.199999999999996 35.55 0.0
    vertex 32.199999999999996 5.5499999999999945 0.0
  endloop
endfacet
facet normal 0.0 0.0 -1.0
  outer loop
    vertex 13.8 35.55 0.0
    vertex 10.7 5.55 0.0
    vertex 10.7 35.55 0.0
  endloop
endfacet
facet normal 0.0 0.0 -1.0
  outer loop
    vertex 10.7 5.55 0.0
    vertex 13.8 35.55 0.0
    vertex 13.9 5.55 0.0
  endloop
endfacet
facet normal 0.0 0.0 -1.0
  outer loop
    vertex 2.0 38.75 0.0
    vertex 10.7 2.250000000000001 0.0
    vertex 1.9999999999999998 2.2499999999999996 0.0
  endloop
endfacet
facet normal 0.0 0.0 -1.0
  outer loop
    vertex 10.7 2.250000000000001 0.0
    vertex 2.0 38.75 0.0
    vertex 10.7 38.75 0.0
  endloop
endfacet
facet normal 0.0 0.0 -1.0
  outer loop
    vertex 10.7 2.250000000000001 0.0
    vertex 10.7 38.75 0.0
    vertex 10.7 35.55 0.0
  endloop
endfacet
facet normal 0.0 0.0 -1.0
  outer loop
    vertex 10.7 2.250000000000001 0.0
    vertex 10.7 35.55 0.0
    vertex 10.7 5.55 0.0
  endloop
endfacet
facet normal 0.0 0.0 -1.0
  outer loop
    vertex 41.3 38.75 0.0
    vertex 35.3 35.55 0.0
    vertex 35.3 38.75 0.0
  endloop
endfacet
facet normal 0.0 0.0 -1.0
  outer loop
    vertex 35.3 35.55 0.0
    vertex 41.3 38.75 0.0
    vertex 35.300000000000004 5.5499999999999945 0.0
  endloop
endfacet
facet normal 0.0 0.0 -1.0
  outer loop
    vertex 35.300000000000004 5.5499999999999945 0.0
    vertex 41.3 2.2499999999999996 0.0
    vertex 35.3 2.2500000000000013 0.0
  endloop
endfacet
facet normal 0.0 0.0 -1.0
  outer loop
    vertex 41.3 2.2499999999999996 0.0
    vertex 35.300000000000004 5.5499999999999945 0.0
    vertex 41.3 38.75 0.0
  endloop
endfacet
facet normal 8.856678651218273e-17 -1.0 0.0
  outer loop
    vertex 10.7 2.250000000000001 3.0
    vertex 1.9999999999999998 2.2499999999999996 0.0
    vertex 10.7 2.250000000000001 0.0
  endloop
endfacet
facet normal 8.856678651218273e-17 -1.0 0.0
  outer loop
    vertex 1.9999999999999998 2.2499999999999996 0.0
    vertex 10.7 2.250000000000001 3.0
    vertex 1.9999999999999998 2.2499999999999996 3.0
  endloop
endfacet
facet normal -1.0 0.0 0.0
  outer loop
    vertex 2.0 38.75 3.0
    vertex 1.9999999999999998 2.2499999999999996 0.0
    vertex 1.9999999999999998 2.2499999999999996 3.0
  endloop
endfacet
facet normal -1.0 0.0 0.0
  outer loop
    vertex 1.9999999999999998 2.2499999999999996 0.0
    vertex 2.0 38.75 3.0
    vertex 2.0 38.75 0.0
  endloop
endfacet
facet normal 0.0 1.0 0.0
  outer loop
    vertex 35.3 38.75 3.0
    vertex 41.3 38.75 0.0
    vertex 35.3 38.75 0.0
  endloop
endfacet
facet normal 0.0 1.0 0.0
  outer loop
    vertex 41.3 38.75 0.0
    vertex 35.3 38.75 3.0
    vertex 41.3 38.75 3.0
  endloop
endfacet
facet normal 1.0 0.0 0.0
  outer loop
    vertex 41.3 38.75 0.0
    vertex 41.3 2.2499999999999996 3.0
    vertex 41.3 2.2499999999999996 0.0
  endloop
endfacet
facet normal 1.0 0.0 0.0
  outer loop
    vertex 41.3 2.2499999999999996 3.0
    vertex 41.3 38.75 0.0
    vertex 41.3 38.75 3.0
  endloop
endfacet
facet normal -9.030767470427783e-19 -3.272453517960645e-17 1.0
  outer loop
    vertex 13.9 2.250000000000001 3.0
    vertex 18.8 4.499999999999999 3.0
    vertex 13.9 5.55 3.0
  endloop
endfacet
facet normal -9.030767470427783e-19 -3.272453517960645e-17 1.0
  outer loop
    vertex 18.8 4.499999999999999 3.0
    vertex 13.9 2.250000000000001 3.0
    vertex 32.199999999999996 2.249999999999998 3.0
  endloop
endfacet
facet normal -9.030767470427783e-19 -3.272453517960645e-17 1.0
  outer loop
    vertex 18.8 4.499999999999999 3.0
    vertex 32.199999999999996 2.249999999999998 3.0
    vertex 28.799999999999997 4.499999999999999 3.0
  endloop
endfacet
facet normal -9.030767470427783e-19 -3.272453517960645e-17 1.0
  outer loop
    vertex 28.799999999999997 4.499999999999999 3.0
    vertex 32.199999999999996 2.249999999999998 3.0
    vertex 28.799999999999997 5.549999999999999 3.0
  endloop
endfacet
facet normal -9.030767470427783e-19 -3.272453517960645e-17 1.0
  outer loop
    vertex 28.799999999999997 5.549999999999999 3.0
    vertex 32.199999999999996 2.249999999999998 3.0
    vertex 32.199999999999996 5.5499999999999945 3.0
  endloop
endfacet
facet normal -9.030767470427783e-19 -3.272453517960645e-17 1.0
  outer loop
    vertex 18.8 5.55 3.0
    vertex 13.9 5.55 3.0
    vertex 18.8 4.499999999999999 3.0
  endloop
endfacet
facet normal -1.0 0.0 0.0
  outer loop
    vertex 35.3 38.75 3.0
    vertex 35.3 35.55 0.0
    vertex 35.3 35.55 3.0
  endloop
endfacet
facet normal -1.0 0.0 0.0
  outer loop
    vertex 35.3 35.55 0.0
    vertex 35.3 38.75 3.0
    vertex 35.3 38.75 0.0
  endloop
endfacet
facet normal 0.0 1.0 0.0
  outer loop
    vertex 32.199999999999996 35.55 3.0
    vertex 35.3 35.55 0.0
    vertex 32.199999999999996 35.55 0.0
  endloop
endfacet
facet normal 0.0 1.0 0.0
  outer loop
    vertex 35.3 35.55 0.0
    vertex 32.199999999999996 35.55 3.0
    vertex 35.3 35.55 3.0
  endloop
endfacet
facet normal 1.0 0.0 0.0
  outer loop
    vertex 32.199999999999996 38.75 0.0
    vertex 32.199999999999996 35.55 3.0
    vertex 32.199999999999996 35.55 0.0
  endloop
endfacet
facet normal 1.0 0.0 0.0
  outer loop
    vertex 32.199999999999996 35.55 3.0
    vertex 32.199999999999996 38.75 0.0
    vertex 32.199999999999996 38.75 3.0
  endloop
endfacet
facet normal -1.0 0.0 0.0
  outer loop
    vertex 13.8 38.75 3.0
    vertex 13.8 35.55 0.0
    vertex 13.8 35.55 3.0
  endloop
endfacet
facet normal -1.0 0.0 0.0
  outer loop
    vertex 13.8 35.55 0.0
    vertex 13.8 38.75 3.0
    vertex 13.8 38.75 0.0
  endloop
endfacet
facet normal 0.0 1.0 0.0
  outer loop
    vertex 10.7 35.55 3.0
    vertex 13.8 35.55 0.0
    vertex 10.7 35.55 0.0
  endloop
endfacet
facet normal 0.0 1.0 0.0
  outer loop
    vertex 13.8 35.55 0.0
    vertex 10.7 35.55 3.0
    vertex 13.8 35.55 3.0
  endloop
endfacet
facet normal 1.0 0.0 0.0
  outer loop
    vertex 10.7 38.75 0.0
    vertex 10.7 35.55 3.0
    vertex 10.7 35.55 0.0
  endloop
endfacet
facet normal 1.0 0.0 0.0
  outer loop
    vertex 10.7 35.55 3.0
    vertex 10.7 38.75 0.0
    vertex 10.7 38.75 3.0
  endloop
endfacet
facet normal -1.0 8.610584679535575e-16 0.0
  outer loop
    vertex 35.300000000000004 5.5499999999999945 3.0
    vertex 35.3 2.2500000000000013 0.0
    vertex 35.3 2.2500000000000013 3.0
  endloop
endfacet
facet normal -1.0 8.610584679535575e-16 0.0
  outer loop
    vertex 35.3 2.2500000000000013 0.0
    vertex 35.300000000000004 5.5499999999999945 3.0
    vertex 35.300000000000004 5.5499999999999945 0.0
  endloop
endfacet
facet normal 0.0 -1.0 0.0
  outer loop
    vertex 35.300000000000004 5.5499999999999945 3.0
    vertex 32.199999999999996 5.5499999999999945 0.0
    vertex 35.300000000000004 5.5499999999999945 0.0
  endloop
endfacet
facet normal 0.0 -1.0 0.0
  outer loop
    vertex 32.199999999999996 5.5499999999999945 0.0
    vertex 35.300000000000004 5.5499999999999945 3.0
    vertex 32.199999999999996 5.5499999999999945 3.0
  endloop
endfacet
facet normal 1.0 -0.0 -0.0
  outer loop
    vertex 32.199999999999996 5.5499999999999945 0.0
    vertex 32.199999999999996 2.249999999999998 3.0
    vertex 32.199999999999996 2.249999999999998 0.0
  endloop
endfacet
facet normal 1.0 -0.0 -0.0
  outer loop
    vertex 32.199999999999996 2.249999999999998 3.0
    vertex 32.199999999999996 5.5499999999999945 0.0
    vertex 32.199999999999996 5.5499999999999945 3.0
  endloop
endfacet
facet normal -1.0 0.0 0.0
  outer loop
    vertex 13.9 5.55 3.0
    vertex 13.9 2.250000000000001 0.0
    vertex 13.9 2.250000000000001 3.0
  endloop
endfacet
facet normal -1.0 0.0 0.0
  outer loop
    vertex 13.9 2.250000000000001 0.0
    vertex 13.9 5.55 3.0
    vertex 13.9 5.55 0.0
  endloop
endfacet
facet normal 0.0 -1.0 0.0
  outer loop
    vertex 13.9 5.55 3.0
    vertex 10.7 5.55 0.0
    vertex 13.9 5.55 0.0
  endloop
endfacet
facet normal 0.0 -1.0 0.0
  outer loop
    vertex 10.7 5.55 0.0
    vertex 13.9 5.55 3.0
    vertex 10.7 5.55 3.0
  endloop
endfacet
facet normal 1.0 -0.0 -0.0
  outer loop
    vertex 10.7 5.55 0.0
    vertex 10.7 2.250000000000001 3.0
    vertex 10.7 2.250000000000001 0.0
  endloop
endfacet
facet normal 1.0 -0.0 -0.0
  outer loop
    vertex 10.7 2.250000000000001 3.0
    vertex 10.7 5.55 0.0
    vertex 10.7 5.55 3.0
  endloop
endfacet
facet normal 0.0 -1.0 0.0
  outer loop
    vertex 32.199999999999996 2.249999999999998 3.0
    vertex 13.9 2.250000000000001 0.0
    vertex 32.199999999999996 2.249999999999998 0.0
  endloop
endfacet
facet normal 0.0 -1.0 0.0
  outer loop
    vertex 13.9 2.250000000000001 0.0
    vertex 32.199999999999996 2.249999999999998 3.0
    vertex 13.9 2.250000000000001 3.0
  endloop
endfacet
facet normal -1.4170685841949236e-16 -1.0 0.0
  outer loop
    vertex 41.3 2.2499999999999996 3.0
    vertex 35.3 2.2500000000000013 0.0
    vertex 41.3 2.2499999999999996 0.0
  endloop
endfacet
facet normal -1.4170685841949236e-16 -1.0 0.0
  outer loop
    vertex 35.3 2.2500000000000013 0.0
    vertex 41.3 2.2499999999999996 3.0
    vertex 35.3 2.2500000000000013 3.0
  endloop
endfacet
facet normal 0.0 1.0 0.0
  outer loop
    vertex 13.8 38.75 3.0
    vertex 32.199999999999996 38.75 0.0
    vertex 13.8 38.75 0.0
  endloop
endfacet
facet normal 0.0 1.0 0.0
  outer loop
    vertex 32.199999999999996 38.75 0.0
    vertex 13.8 38.75 3.0
    vertex 32.199999999999996 38.75 3.0
  endloop
endfacet
facet normal 0.0 1.0 0.0
  outer loop
    vertex 2.0 38.75 3.0
    vertex 10.7 38.75 0.0
    vertex 2.0 38.75 0.0
  endloop
endfacet
facet normal 0.0 1.0 0.0
  outer loop
    vertex 10.7 38.75 0.0
    vertex 2.0 38.75 3.0
    vertex 10.7 38.75 3.0
  endloop
endfacet
facet normal 0.0 0.0 1.0
  outer loop
    vertex 33.290889008453114 30.349417145876973 5.999999999999998
    vertex 33.290889008453114 30.970582854123023 5.999999999999998
    vertex 33.25 30.66 5.999999999999998
  endloop
endfacet
facet normal 0.0 0.0 1.0
  outer loop
    vertex 33.290889008453114 30.970582854123023 5.999999999999998
    vertex 33.290889008453114 30.349417145876973 5.999999999999998
    vertex 33.410769515458675 30.06 5.999999999999998
  endloop
endfacet
facet normal 0.0 0.0 1.0
  outer loop
    vertex 33.290889008453114 30.970582854123023 5.999999999999998
    vertex 33.410769515458675 30.06 5.999999999999998
    vertex 33.410769515458675 31.259999999999998 5.999999999999998
  endloop
endfacet
facet normal 0.0 0.0 1.0
  outer loop
    vertex 33.410769515458675 31.259999999999998 5.999999999999998
    vertex 33.410769515458675 30.06 5.999999999999998
    vertex 33.60147186257614 29.81147186257614 5.999999999999998
  endloop
endfacet
facet normal 0.0 0.0 1.0
  outer loop
    vertex 33.410769515458675 31.259999999999998 5.999999999999998
    vertex 33.60147186257614 29.81147186257614 5.999999999999998
    vertex 33.60147186257614 31.508528137423852 5.999999999999998
  endloop
endfacet
facet normal 0.0 0.0 1.0
  outer loop
    vertex 33.60147186257614 31.508528137423852 5.999999999999998
    vertex 33.60147186257614 29.81147186257614 5.999999999999998
    vertex 33.85 29.620769515458676 5.999999999999998
  endloop
endfacet
facet normal 0.0 0.0 1.0
  outer loop
    vertex 33.60147186257614 31.508528137423852 5.999999999999998
    vertex 33.85 29.620769515458676 5.999999999999998
    vertex 33.85 31.699230484541324 5.999999999999998
  endloop
endfacet
facet normal 0.0 0.0 1.0
  outer loop
    vertex 33.85 31.699230484541324 5.999999999999998
    vertex 33.85 29.620769515458676 5.999999999999998
    vertex 34.139417145876976 29.500889008453118 5.999999999999998
  endloop
endfacet
facet normal 0.0 0.0 1.0
  outer loop
    vertex 33.85 31.699230484541324 5.999999999999998
    vertex 34.139417145876976 29.500889008453118 5.999999999999998
    vertex 34.139417145876976 31.819110991546882 5.999999999999998
  endloop
endfacet
facet normal 0.0 0.0 1.0
  outer loop
    vertex 34.139417145876976 31.819110991546882 5.999999999999998
    vertex 34.139417145876976 29.500889008453118 5.999999999999998
    vertex 34.449999999999996 29.46 5.999999999999998
  endloop
endfacet
facet normal 0.0 0.0 1.0
  outer loop
    vertex 34.139417145876976 31.819110991546882 5.999999999999998
    vertex 34.449999999999996 29.46 5.999999999999998
    vertex 34.449999999999996 31.859999999999996 5.999999999999998
  endloop
endfacet
facet normal 0.0 0.0 1.0
  outer loop
    vertex 34.449999999999996 31.859999999999996 5.999999999999998
    vertex 34.449999999999996 29.46 5.999999999999998
    vertex 34.76058285412302 29.500889008453118 5.999999999999998
  endloop
endfacet
facet normal 0.0 0.0 1.0
  outer loop
    vertex 34.449999999999996 31.859999999999996 5.999999999999998
    vertex 34.76058285412302 29.500889008453118 5.999999999999998
    vertex 34.76058285412302 31.819110991546882 5.999999999999998
  endloop
endfacet
facet normal 0.0 0.0 1.0
  outer loop
    vertex 34.76058285412302 31.819110991546882 5.999999999999998
    vertex 34.76058285412302 29.500889008453118 5.999999999999998
    vertex 35.05 29.620769515458676 5.999999999999998
  endloop
endfacet
facet normal 0.0 0.0 1.0
  outer loop
    vertex 34.76058285412302 31.819110991546882 5.999999999999998
    vertex 35.05 29.620769515458676 5.999999999999998
    vertex 35.05 31.699230484541324 5.999999999999998
  endloop
endfacet
facet normal 0.0 0.0 1.0
  outer loop
    vertex 35.05 31.699230484541324 5.999999999999998
    vertex 35.05 29.620769515458676 5.999999999999998
    vertex 35.29852813742386 29.81147186257614 5.999999999999998
  endloop
endfacet
facet normal 0.0 0.0 1.0
  outer loop
    vertex 35.05 31.699230484541324 5.999999999999998
    vertex 35.29852813742386 29.81147186257614 5.999999999999998
    vertex 35.29852813742385 31.508528137423855 5.999999999999998
  endloop
endfacet
facet normal 0.0 0.0 1.0
  outer loop
    vertex 35.29852813742385 31.508528137423855 5.999999999999998
    vertex 35.29852813742386 29.81147186257614 5.999999999999998
    vertex 35.489230484541324 31.259999999999998 5.999999999999998
  endloop
endfacet
facet normal 0.0 0.0 1.0
  outer loop
    vertex 35.489230484541324 31.259999999999998 5.999999999999998
    vertex 35.29852813742386 29.81147186257614 5.999999999999998
    vertex 35.489230484541324 30.06 5.999999999999998
  endloop
endfacet
facet normal 0.0 0.0 1.0
  outer loop
    vertex 35.489230484541324 31.259999999999998 5.999999999999998
    vertex 35.489230484541324 30.06 5.999999999999998
    vertex 35.60911099154688 30.349417145876973 5.999999999999998
  endloop
endfacet
facet normal 0.0 0.0 1.0
  outer loop
    vertex 35.489230484541324 31.259999999999998 5.999999999999998
    vertex 35.60911099154688 30.349417145876973 5.999999999999998
    vertex 35.60911099154688 30.970582854123023 5.999999999999998
  endloop
endfacet
facet normal 0.0 0.0 1.0
  outer loop
    vertex 35.60911099154688 30.970582854123023 5.999999999999998
    vertex 35.60911099154688 30.349417145876973 5.999999999999998
    vertex 35.65 30.66 5.999999999999998
  endloop
endfacet
facet normal -0.1305261922200451 -0.9914448613738114 6.487323854318063e-32
  outer loop
    vertex 34.449999999999996 29.46 5.999999999999998
    vertex 34.139417145876976 29.500889008453118 3.0
    vertex 34.449999999999996 29.46 3.0
  endloop
endfacet
facet normal -0.1305261922200451 -0.9914448613738114 6.487323854318063e-32
  outer loop
    vertex 34.139417145876976 29.500889008453118 3.0
    vertex 34.449999999999996 29.46 5.999999999999998
    vertex 34.139417145876976 29.500889008453118 5.999999999999998
  endloop
endfacet
facet normal 0.1305261922200451 -0.9914448613738114 -6.487323854318063e-32
  outer loop
    vertex 34.76058285412302 29.500889008453118 5.999999999999998
    vertex 34.449999999999996 29.46 3.0
    vertex 34.76058285412302 29.500889008453118 3.0
  endloop
endfacet
facet normal 0.1305261922200451 -0.9914448613738114 -6.487323854318063e-32
  outer loop
    vertex 34.449999999999996 29.46 3.0
    vertex 34.76058285412302 29.500889008453118 5.999999999999998
    vertex 34.449999999999996 29.46 5.999999999999998
  endloop
endfacet
facet normal 0.3826834323650944 -0.9238795325112849 -1.6730055602095984e-18
  outer loop
    vertex 35.05 29.620769515458676 5.999999999999998
    vertex 34.76058285412302 29.500889008453118 3.0
    vertex 35.05 29.620769515458676 3.0
  endloop
endfacet
facet normal 0.3826834323650944 -0.9238795325112849 -1.6730055602095984e-18
  outer loop
    vertex 34.76058285412302 29.500889008453118 3.0
    vertex 35.05 29.620769515458676 5.999999999999998
    vertex 34.76058285412302 29.500889008453118 5.999999999999998
  endloop
endfacet
facet normal 0.6087614290087122 -0.7933533402912417 -2.661367515386578e-18
  outer loop
    vertex 35.29852813742386 29.81147186257614 5.999999999999998
    vertex 35.05 29.620769515458676 3.0
    vertex 35.29852813742386 29.81147186257614 3.0
  endloop
endfacet
facet normal 0.6087614290087122 -0.7933533402912417 -2.661367515386578e-18
  outer loop
    vertex 35.05 29.620769515458676 3.0
    vertex 35.29852813742386 29.81147186257614 5.999999999999998
    vertex 35.05 29.620769515458676 5.999999999999998
  endloop
endfacet
facet normal 0.7933533402912417 -0.6087614290087122 -2.661367515386578e-18
  outer loop
    vertex 35.489230484541324 30.06 3.0
    vertex 35.29852813742386 29.81147186257614 5.999999999999998
    vertex 35.29852813742386 29.81147186257614 3.0
  endloop
endfacet
facet normal 0.7933533402912417 -0.6087614290087122 -2.661367515386578e-18
  outer loop
    vertex 35.29852813742386 29.81147186257614 5.999999999999998
    vertex 35.489230484541324 30.06 3.0
    vertex 35.489230484541324 30.06 5.999999999999998
  endloop
endfacet
facet normal 0.9238795325112849 -0.3826834323650944 -1.6730055602095984e-18
  outer loop
    vertex 35.60911099154688 30.349417145876973 3.0
    vertex 35.489230484541324 30.06 5.999999999999998
    vertex 35.489230484541324 30.06 3.0
  endloop
endfacet
facet normal 0.9238795325112849 -0.3826834323650944 -1.6730055602095984e-18
  outer loop
    vertex 35.489230484541324 30.06 5.999999999999998
    vertex 35.60911099154688 30.349417145876973 3.0
    vertex 35.60911099154688 30.349417145876973 5.999999999999998
  endloop
endfacet
facet normal 0.9914448613738114 -0.1305261922200451 6.487323854318063e-32
  outer loop
    vertex 35.65 30.66 3.0
    vertex 35.60911099154688 30.349417145876973 5.999999999999998
    vertex 35.60911099154688 30.349417145876973 3.0
  endloop
endfacet
facet normal 0.9914448613738114 -0.1305261922200451 6.487323854318063e-32
  outer loop
    vertex 35.60911099154688 30.349417145876973 5.999999999999998
    vertex 35.65 30.66 3.0
    vertex 35.65 30.66 5.999999999999998
  endloop
endfacet
facet normal 0.9914448613738114 0.1305261922200451 6.487323854318063e-32
  outer loop
    vertex 35.60911099154688 30.970582854123023 3.0
    vertex 35.65 30.66 5.999999999999998
    vertex 35.65 30.66 3.0
  endloop
endfacet
facet normal 0.9914448613738114 0.1305261922200451 6.487323854318063e-32
  outer loop
    vertex 35.65 30.66 5.999999999999998
    vertex 35.60911099154688 30.970582854123023 3.0
    vertex 35.60911099154688 30.970582854123023 5.999999999999998
  endloop
endfacet
facet normal 0.9238795325112849 0.3826834323650944 -1.6730055602095984e-18
  outer loop
    vertex 35.489230484541324 31.259999999999998 3.0
    vertex 35.60911099154688 30.970582854123023 5.999999999999998
    vertex 35.60911099154688 30.970582854123023 3.0
  endloop
endfacet
facet normal 0.9238795325112849 0.3826834323650944 -1.6730055602095984e-18
  outer loop
    vertex 35.60911099154688 30.970582854123023 5.999999999999998
    vertex 35.489230484541324 31.259999999999998 3.0
    vertex 35.489230484541324 31.259999999999998 5.999999999999998
  endloop
endfacet
facet normal 0.7933533402912331 0.6087614290087235 -2.661367515386233e-18
  outer loop
    vertex 35.29852813742385 31.508528137423855 3.0
    vertex 35.489230484541324 31.259999999999998 5.999999999999998
    vertex 35.489230484541324 31.259999999999998 3.0
  endloop
endfacet
facet normal 0.7933533402912331 0.6087614290087235 -2.661367515386233e-18
  outer loop
    vertex 35.489230484541324 31.259999999999998 5.999999999999998
    vertex 35.29852813742385 31.508528137423855 3.0
    vertex 35.29852813742385 31.508528137423855 5.999999999999998
  endloop
endfacet
facet normal 0.6087614290087208 0.7933533402912352 -3.9430707062209487e-31
  outer loop
    vertex 35.05 31.699230484541324 5.999999999999998
    vertex 35.29852813742385 31.508528137423855 3.0
    vertex 35.05 31.699230484541324 3.0
  endloop
endfacet
facet normal 0.6087614290087208 0.7933533402912352 -3.9430707062209487e-31
  outer loop
    vertex 35.29852813742385 31.508528137423855 3.0
    vertex 35.05 31.699230484541324 5.999999999999998
    vertex 35.29852813742385 31.508528137423855 5.999999999999998
  endloop
endfacet
facet normal 0.3826834323650944 0.9238795325112849 1.6730055602095984e-18
  outer loop
    vertex 34.76058285412302 31.819110991546882 5.999999999999998
    vertex 35.05 31.699230484541324 3.0
    vertex 34.76058285412302 31.819110991546882 3.0
  endloop
endfacet
facet normal 0.3826834323650944 0.9238795325112849 1.6730055602095984e-18
  outer loop
    vertex 35.05 31.699230484541324 3.0
    vertex 34.76058285412302 31.819110991546882 5.999999999999998
    vertex 35.05 31.699230484541324 5.999999999999998
  endloop
endfacet
facet normal 0.1305261922200451 0.9914448613738114 6.487323854318063e-32
  outer loop
    vertex 34.449999999999996 31.859999999999996 5.999999999999998
    vertex 34.76058285412302 31.819110991546882 3.0
    vertex 34.449999999999996 31.859999999999996 3.0
  endloop
endfacet
facet normal 0.1305261922200451 0.9914448613738114 6.487323854318063e-32
  outer loop
    vertex 34.76058285412302 31.819110991546882 3.0
    vertex 34.449999999999996 31.859999999999996 5.999999999999998
    vertex 34.76058285412302 31.819110991546882 5.999999999999998
  endloop
endfacet
facet normal -0.1305261922200451 0.9914448613738114 6.487323854318063e-32
  outer loop
    vertex 34.139417145876976 31.819110991546882 5.999999999999998
    vertex 34.449999999999996 31.859999999999996 3.0
    vertex 34.139417145876976 31.819110991546882 3.0
  endloop
endfacet
facet normal -0.1305261922200451 0.9914448613738114 6.487323854318063e-32
  outer loop
    vertex 34.449999999999996 31.859999999999996 3.0
    vertex 34.139417145876976 31.819110991546882 5.999999999999998
    vertex 34.449999999999996 31.859999999999996 5.999999999999998
  endloop
endfacet
facet normal -0.3826834323650944 0.9238795325112849 -1.6730055602095984e-18
  outer loop
    vertex 33.85 31.699230484541324 5.999999999999998
    vertex 34.139417145876976 31.819110991546882 3.0
    vertex 33.85 31.699230484541324 3.0
  endloop
endfacet
facet normal -0.3826834323650944 0.9238795325112849 -1.6730055602095984e-18
  outer loop
    vertex 34.139417145876976 31.819110991546882 3.0
    vertex 33.85 31.699230484541324 5.999999999999998
    vertex 34.139417145876976 31.819110991546882 5.999999999999998
  endloop
endfacet
facet normal -0.6087614290087235 0.7933533402912331 -2.661367515386233e-18
  outer loop
    vertex 33.60147186257614 31.508528137423852 5.999999999999998
    vertex 33.85 31.699230484541324 3.0
    vertex 33.60147186257614 31.508528137423852 3.0
  endloop
endfacet
facet normal -0.6087614290087235 0.7933533402912331 -2.661367515386233e-18
  outer loop
    vertex 33.85 31.699230484541324 3.0
    vertex 33.60147186257614 31.508528137423852 5.999999999999998
    vertex 33.85 31.699230484541324 5.999999999999998
  endloop
endfacet
facet normal -0.7933533402912352 0.6087614290087208 -3.9430707062209487e-31
  outer loop
    vertex 33.60147186257614 31.508528137423852 5.999999999999998
    vertex 33.410769515458675 31.259999999999998 3.0
    vertex 33.410769515458675 31.259999999999998 5.999999999999998
  endloop
endfacet
facet normal -0.7933533402912352 0.6087614290087208 -3.9430707062209487e-31
  outer loop
    vertex 33.410769515458675 31.259999999999998 3.0
    vertex 33.60147186257614 31.508528137423852 5.999999999999998
    vertex 33.60147186257614 31.508528137423852 3.0
  endloop
endfacet
facet normal -0.9238795325112849 0.3826834323650944 -1.6730055602095984e-18
  outer loop
    vertex 33.410769515458675 31.259999999999998 5.999999999999998
    vertex 33.290889008453114 30.970582854123023 3.0
    vertex 33.290889008453114 30.970582854123023 5.999999999999998
  endloop
endfacet
facet normal -0.9238795325112849 0.3826834323650944 -1.6730055602095984e-18
  outer loop
    vertex 33.290889008453114 30.970582854123023 3.0
    vertex 33.410769515458675 31.259999999999998 5.999999999999998
    vertex 33.410769515458675 31.259999999999998 3.0
  endloop
endfacet
facet normal -0.9914448613738114 0.1305261922200451 6.487323854318063e-32
  outer loop
    vertex 33.290889008453114 30.970582854123023 5.999999999999998
    vertex 33.25 30.66 3.0
    vertex 33.25 30.66 5.999999999999998
  endloop
endfacet
facet normal -0.9914448613738114 0.1305261922200451 6.487323854318063e-32
  outer loop
    vertex 33.25 30.66 3.0
    vertex 33.290889008453114 30.970582854123023 5.999999999999998
    vertex 33.290889008453114 30.970582854123023 3.0
  endloop
endfacet
facet normal -0.9914448613738114 -0.1305261922200451 6.487323854318063e-32
  outer loop
    vertex 33.25 30.66 5.999999999999998
    vertex 33.290889008453114 30.349417145876973 3.0
    vertex 33.290889008453114 30.349417145876973 5.999999999999998
  endloop
endfacet
facet normal -0.9914448613738114 -0.1305261922200451 6.487323854318063e-32
  outer loop
    vertex 33.290889008453114 30.349417145876973 3.0
    vertex 33.25 30.66 5.999999999999998
    vertex 33.25 30.66 3.0
  endloop
endfacet
facet normal -0.9238795325112849 -0.3826834323650944 -1.6730055602095984e-18
  outer loop
    vertex 33.290889008453114 30.349417145876973 5.999999999999998
    vertex 33.410769515458675 30.06 3.0
    vertex 33.410769515458675 30.06 5.999999999999998
  endloop
endfacet
facet normal -0.9238795325112849 -0.3826834323650944 -1.6730055602095984e-18
  outer loop
    vertex 33.410769515458675 30.06 3.0
    vertex 33.290889008453114 30.349417145876973 5.999999999999998
    vertex 33.290889008453114 30.349417145876973 3.0
  endloop
endfacet
facet normal -0.7933533402912417 -0.6087614290087122 -2.661367515386578e-18
  outer loop
    vertex 33.410769515458675 30.06 5.999999999999998
    vertex 33.60147186257614 29.81147186257614 3.0
    vertex 33.60147186257614 29.81147186257614 5.999999999999998
  endloop
endfacet
facet normal -0.7933533402912417 -0.6087614290087122 -2.661367515386578e-18
  outer loop
    vertex 33.60147186257614 29.81147186257614 3.0
    vertex 33.410769515458675 30.06 5.999999999999998
    vertex 33.410769515458675 30.06 3.0
  endloop
endfacet
facet normal -0.6087614290087122 -0.7933533402912417 -2.661367515386578e-18
  outer loop
    vertex 33.85 29.620769515458676 5.999999999999998
    vertex 33.60147186257614 29.81147186257614 3.0
    vertex 33.85 29.620769515458676 3.0
  endloop
endfacet
facet normal -0.6087614290087122 -0.7933533402912417 -2.661367515386578e-18
  outer loop
    vertex 33.60147186257614 29.81147186257614 3.0
    vertex 33.85 29.620769515458676 5.999999999999998
    vertex 33.60147186257614 29.81147186257614 5.999999999999998
  endloop
endfacet
facet normal -0.3826834323650944 -0.9238795325112849 -1.6730055602095984e-18
  outer loop
    vertex 34.139417145876976 29.500889008453118 5.999999999999998
    vertex 33.85 29.620769515458676 3.0
    vertex 34.139417145876976 29.500889008453118 3.0
  endloop
endfacet
facet normal -0.3826834323650944 -0.9238795325112849 -1.6730055602095984e-18
  outer loop
    vertex 33.85 29.620769515458676 3.0
    vertex 34.139417145876976 29.500889008453118 5.999999999999998
    vertex 33.85 29.620769515458676 5.999999999999998
  endloop
endfacet
facet normal 0.0 0.0 1.0
  outer loop
    vertex 33.29088900845312 10.029417145876975 5.999999999999998
    vertex 33.29088900845312 10.650582854123023 5.999999999999998
    vertex 33.25 10.34 5.999999999999998
  endloop
endfacet
facet normal 0.0 0.0 1.0
  outer loop
    vertex 33.29088900845312 10.650582854123023 5.999999999999998
    vertex 33.29088900845312 10.029417145876975 5.999999999999998
    vertex 33.410769515458675 9.74 5.999999999999998
  endloop
endfacet
facet normal 0.0 0.0 1.0
  outer loop
    vertex 33.29088900845312 10.650582854123023 5.999999999999998
    vertex 33.410769515458675 9.74 5.999999999999998
    vertex 33.410769515458675 10.939999999999998 5.999999999999998
  endloop
endfacet
facet normal 0.0 0.0 1.0
  outer loop
    vertex 33.410769515458675 10.939999999999998 5.999999999999998
    vertex 33.410769515458675 9.74 5.999999999999998
    vertex 33.60147186257615 9.491471862576145 5.999999999999998
  endloop
endfacet
facet normal 0.0 0.0 1.0
  outer loop
    vertex 33.410769515458675 10.939999999999998 5.999999999999998
    vertex 33.60147186257615 9.491471862576145 5.999999999999998
    vertex 33.60147186257615 11.188528137423853 5.999999999999998
  endloop
endfacet
facet normal 0.0 0.0 1.0
  outer loop
    vertex 33.60147186257615 11.188528137423853 5.999999999999998
    vertex 33.60147186257615 9.491471862576145 5.999999999999998
    vertex 33.85 9.300769515458674 5.999999999999998
  endloop
endfacet
facet normal 0.0 0.0 1.0
  outer loop
    vertex 33.60147186257615 11.188528137423853 5.999999999999998
    vertex 33.85 9.300769515458674 5.999999999999998
    vertex 33.85 11.379230484541324 5.999999999999998
  endloop
endfacet
facet normal 0.0 0.0 1.0
  outer loop
    vertex 33.85 11.379230484541324 5.999999999999998
    vertex 33.85 9.300769515458674 5.999999999999998
    vertex 34.139417145876976 9.18088900845312 5.999999999999998
  endloop
endfacet
facet normal 0.0 0.0 1.0
  outer loop
    vertex 33.85 11.379230484541324 5.999999999999998
    vertex 34.139417145876976 9.18088900845312 5.999999999999998
    vertex 34.139417145876976 11.499110991546878 5.999999999999998
  endloop
endfacet
facet normal 0.0 0.0 1.0
  outer loop
    vertex 34.139417145876976 11.499110991546878 5.999999999999998
    vertex 34.139417145876976 9.18088900845312 5.999999999999998
    vertex 34.45 9.14 5.999999999999998
  endloop
endfacet
facet normal 0.0 0.0 1.0
  outer loop
    vertex 34.139417145876976 11.499110991546878 5.999999999999998
    vertex 34.45 9.14 5.999999999999998
    vertex 34.45 11.539999999999997 5.999999999999998
  endloop
endfacet
facet normal 0.0 0.0 1.0
  outer loop
    vertex 34.45 11.539999999999997 5.999999999999998
    vertex 34.45 9.14 5.999999999999998
    vertex 34.76058285412302 9.18088900845312 5.999999999999998
  endloop
endfacet
facet normal 0.0 0.0 1.0
  outer loop
    vertex 34.45 11.539999999999997 5.999999999999998
    vertex 34.76058285412302 9.18088900845312 5.999999999999998
    vertex 34.76058285412302 11.49911099154688 5.999999999999998
  endloop
endfacet
facet normal 0.0 0.0 1.0
  outer loop
    vertex 34.76058285412302 11.49911099154688 5.999999999999998
    vertex 34.76058285412302 9.18088900845312 5.999999999999998
    vertex 35.050000000000004 9.300769515458674 5.999999999999998
  endloop
endfacet
facet normal 0.0 0.0 1.0
  outer loop
    vertex 34.76058285412302 11.49911099154688 5.999999999999998
    vertex 35.050000000000004 9.300769515458674 5.999999999999998
    vertex 35.050000000000004 11.379230484541324 5.999999999999998
  endloop
endfacet
facet normal 0.0 0.0 1.0
  outer loop
    vertex 35.050000000000004 11.379230484541324 5.999999999999998
    vertex 35.050000000000004 9.300769515458674 5.999999999999998
    vertex 35.29852813742386 9.491471862576145 5.999999999999998
  endloop
endfacet
facet normal 0.0 0.0 1.0
  outer loop
    vertex 35.050000000000004 11.379230484541324 5.999999999999998
    vertex 35.29852813742386 9.491471862576145 5.999999999999998
    vertex 35.29852813742386 11.188528137423853 5.999999999999998
  endloop
endfacet
facet normal 0.0 0.0 1.0
  outer loop
    vertex 35.29852813742386 11.188528137423853 5.999999999999998
    vertex 35.29852813742386 9.491471862576145 5.999999999999998
    vertex 35.48923048454133 9.74 5.999999999999998
  endloop
endfacet
facet normal 0.0 0.0 1.0
  outer loop
    vertex 35.29852813742386 11.188528137423853 5.999999999999998
    vertex 35.48923048454133 9.74 5.999999999999998
    vertex 35.48923048454133 10.939999999999998 5.999999999999998
  endloop
endfacet
facet normal 0.0 0.0 1.0
  outer loop
    vertex 35.48923048454133 10.939999999999998 5.999999999999998
    vertex 35.48923048454133 9.74 5.999999999999998
    vertex 35.609110991546885 10.029417145876975 5.999999999999998
  endloop
endfacet
facet normal 0.0 0.0 1.0
  outer loop
    vertex 35.48923048454133 10.939999999999998 5.999999999999998
    vertex 35.609110991546885 10.029417145876975 5.999999999999998
    vertex 35.609110991546885 10.650582854123025 5.999999999999998
  endloop
endfacet
facet normal 0.0 0.0 1.0
  outer loop
    vertex 35.609110991546885 10.650582854123025 5.999999999999998
    vertex 35.609110991546885 10.029417145876975 5.999999999999998
    vertex 35.650000000000006 10.34 5.999999999999998
  endloop
endfacet
facet normal 0.13052619222005185 0.9914448613738105 -1.0835932688987987e-18
  outer loop
    vertex 34.45 11.539999999999997 5.999999999999998
    vertex 34.76058285412302 11.49911099154688 3.0
    vertex 34.45 11.539999999999997 3.0
  endloop
endfacet
facet normal 0.13052619222005185 0.9914448613738105 -1.0835932688987987e-18
  outer loop
    vertex 34.76058285412302 11.49911099154688 3.0
    vertex 34.45 11.539999999999997 5.999999999999998
    vertex 34.76058285412302 11.49911099154688 5.999999999999998
  endloop
endfacet
facet normal -0.1305261922200516 0.9914448613738105 -1.2974647708636777e-31
  outer loop
    vertex 34.139417145876976 11.499110991546878 5.999999999999998
    vertex 34.45 11.539999999999997 3.0
    vertex 34.139417145876976 11.499110991546878 3.0
  endloop
endfacet
facet normal -0.1305261922200516 0.9914448613738105 -1.2974647708636777e-31
  outer loop
    vertex 34.45 11.539999999999997 3.0
    vertex 34.139417145876976 11.499110991546878 5.999999999999998
    vertex 34.45 11.539999999999997 5.999999999999998
  endloop
endfacet
facet normal -0.3826834323650867 0.9238795325112881 3.4649079648267814e-19
  outer loop
    vertex 33.85 11.379230484541324 5.999999999999998
    vertex 34.139417145876976 11.499110991546878 3.0
    vertex 33.85 11.379230484541324 3.0
  endloop
endfacet
facet normal -0.3826834323650867 0.9238795325112881 3.4649079648267814e-19
  outer loop
    vertex 34.139417145876976 11.499110991546878 3.0
    vertex 33.85 11.379230484541324 5.999999999999998
    vertex 34.139417145876976 11.499110991546878 5.999999999999998
  endloop
endfacet
facet normal -0.6087614290087265 0.7933533402912308 -0.0
  outer loop
    vertex 33.60147186257615 11.188528137423853 5.999999999999998
    vertex 33.85 11.379230484541324 3.0
    vertex 33.60147186257615 11.188528137423853 3.0
  endloop
endfacet
facet normal -0.6087614290087265 0.7933533402912308 -0.0
  outer loop
    vertex 33.85 11.379230484541324 3.0
    vertex 33.60147186257615 11.188528137423853 5.999999999999998
    vertex 33.85 11.379230484541324 5.999999999999998
  endloop
endfacet
facet normal -0.7933533402912296 0.6087614290087278 -2.6613675153861007e-18
  outer loop
    vertex 33.60147186257615 11.188528137423853 5.999999999999998
    vertex 33.410769515458675 10.939999999999998 3.0
    vertex 33.410769515458675 10.939999999999998 5.999999999999998
  endloop
endfacet
facet normal -0.7933533402912296 0.6087614290087278 -2.6613675153861007e-18
  outer loop
    vertex 33.410769515458675 10.939999999999998 3.0
    vertex 33.60147186257615 11.188528137423853 5.999999999999998
    vertex 33.60147186257615 11.188528137423853 3.0
  endloop
endfacet
facet normal -0.9238795325112913 0.382683432365079 -4.591803091652811e-31
  outer loop
    vertex 33.410769515458675 10.939999999999998 5.999999999999998
    vertex 33.29088900845312 10.650582854123023 3.0
    vertex 33.29088900845312 10.650582854123023 5.999999999999998
  endloop
endfacet
facet normal -0.9238795325112913 0.382683432365079 -4.591803091652811e-31
  outer loop
    vertex 33.29088900845312 10.650582854123023 3.0
    vertex 33.410769515458675 10.939999999999998 5.999999999999998
    vertex 33.410769515458675 10.939999999999998 3.0
  endloop
endfacet
facet normal -0.9914448613738089 0.13052619222006276 -4.927611684701878e-31
  outer loop
    vertex 33.29088900845312 10.650582854123023 5.999999999999998
    vertex 33.25 10.34 3.0
    vertex 33.25 10.34 5.999999999999998
  endloop
endfacet
facet normal -0.9914448613738089 0.13052619222006276 -4.927611684701878e-31
  outer loop
    vertex 33.25 10.34 3.0
    vertex 33.29088900845312 10.650582854123023 5.999999999999998
    vertex 33.29088900845312 10.650582854123023 3.0
  endloop
endfacet
facet normal -0.9914448613738089 -0.13052619222006276 -4.927611684701878e-31
  outer loop
    vertex 33.25 10.34 5.999999999999998
    vertex 33.29088900845312 10.029417145876975 3.0
    vertex 33.29088900845312 10.029417145876975 5.999999999999998
  endloop
endfacet
facet normal -0.9914448613738089 -0.13052619222006276 -4.927611684701878e-31
  outer loop
    vertex 33.29088900845312 10.029417145876975 3.0
    vertex 33.25 10.34 5.999999999999998
    vertex 33.25 10.34 3.0
  endloop
endfacet
facet normal -0.9238795325112913 -0.382683432365079 -4.591803091652811e-31
  outer loop
    vertex 33.29088900845312 10.029417145876975 5.999999999999998
    vertex 33.410769515458675 9.74 3.0
    vertex 33.410769515458675 9.74 5.999999999999998
  endloop
endfacet
facet normal -0.9238795325112913 -0.382683432365079 -4.591803091652811e-31
  outer loop
    vertex 33.410769515458675 9.74 3.0
    vertex 33.29088900845312 10.029417145876975 5.999999999999998
    vertex 33.29088900845312 10.029417145876975 3.0
  endloop
endfacet
facet normal -0.7933533402912296 -0.6087614290087278 0.0
  outer loop
    vertex 33.410769515458675 9.74 5.999999999999998
    vertex 33.60147186257615 9.491471862576145 3.0
    vertex 33.60147186257615 9.491471862576145 5.999999999999998
  endloop
endfacet
facet normal -0.7933533402912296 -0.6087614290087278 0.0
  outer loop
    vertex 33.60147186257615 9.491471862576145 3.0
    vertex 33.410769515458675 9.74 5.999999999999998
    vertex 33.410769515458675 9.74 3.0
  endloop
endfacet
facet normal -0.6087614290087264 -0.7933533402912307 -1.9715353531104636e-31
  outer loop
    vertex 33.85 9.300769515458674 5.999999999999998
    vertex 33.60147186257615 9.491471862576145 3.0
    vertex 33.85 9.300769515458674 3.0
  endloop
endfacet
facet normal -0.6087614290087264 -0.7933533402912307 -1.9715353531104636e-31
  outer loop
    vertex 33.60147186257615 9.491471862576145 3.0
    vertex 33.85 9.300769515458674 5.999999999999998
    vertex 33.60147186257615 9.491471862576145 5.999999999999998
  endloop
endfacet
facet normal -0.3826834323650867 -0.9238795325112881 -1.673005560209565e-18
  outer loop
    vertex 34.139417145876976 9.18088900845312 5.999999999999998
    vertex 33.85 9.300769515458674 3.0
    vertex 34.139417145876976 9.18088900845312 3.0
  endloop
endfacet
facet normal -0.3826834323650867 -0.9238795325112881 -1.673005560209565e-18
  outer loop
    vertex 33.85 9.300769515458674 3.0
    vertex 34.139417145876976 9.18088900845312 5.999999999999998
    vertex 33.85 9.300769515458674 5.999999999999998
  endloop
endfacet
facet normal -0.13052619222005157 -0.9914448613738105 2.463805842350943e-31
  outer loop
    vertex 34.45 9.14 5.999999999999998
    vertex 34.139417145876976 9.18088900845312 3.0
    vertex 34.45 9.14 3.0
  endloop
endfacet
facet normal -0.13052619222005157 -0.9914448613738105 2.463805842350943e-31
  outer loop
    vertex 34.139417145876976 9.18088900845312 3.0
    vertex 34.45 9.14 5.999999999999998
    vertex 34.139417145876976 9.18088900845312 5.999999999999998
  endloop
endfacet
facet normal 0.13052619222005626 -0.9914448613738098 0.0
  outer loop
    vertex 34.76058285412302 9.18088900845312 5.999999999999998
    vertex 34.45 9.14 3.0
    vertex 34.76058285412302 9.18088900845312 3.0
  endloop
endfacet
facet normal 0.13052619222005626 -0.9914448613738098 0.0
  outer loop
    vertex 34.45 9.14 3.0
    vertex 34.76058285412302 9.18088900845312 5.999999999999998
    vertex 34.45 9.14 5.999999999999998
  endloop
endfacet
facet normal 0.3826834323650803 -0.9238795325112907 2.019496356692249e-18
  outer loop
    vertex 35.050000000000004 9.300769515458674 5.999999999999998
    vertex 34.76058285412302 9.18088900845312 3.0
    vertex 35.050000000000004 9.300769515458674 3.0
  endloop
endfacet
facet normal 0.3826834323650803 -0.9238795325112907 2.019496356692249e-18
  outer loop
    vertex 34.76058285412302 9.18088900845312 3.0
    vertex 35.050000000000004 9.300769515458674 5.999999999999998
    vertex 34.76058285412302 9.18088900845312 5.999999999999998
  endloop
endfacet
facet normal 0.6087614290087265 -0.7933533402912308 6.051249136785246e-31
  outer loop
    vertex 35.29852813742386 9.491471862576145 5.999999999999998
    vertex 35.050000000000004 9.300769515458674 3.0
    vertex 35.29852813742386 9.491471862576145 3.0
  endloop
endfacet
facet normal 0.6087614290087265 -0.7933533402912308 6.051249136785246e-31
  outer loop
    vertex 35.050000000000004 9.300769515458674 3.0
    vertex 35.29852813742386 9.491471862576145 5.999999999999998
    vertex 35.050000000000004 9.300769515458674 5.999999999999998
  endloop
endfacet
facet normal 0.7933533402912296 -0.6087614290087278 -2.6613675153861007e-18
  outer loop
    vertex 35.48923048454133 9.74 3.0
    vertex 35.29852813742386 9.491471862576145 5.999999999999998
    vertex 35.29852813742386 9.491471862576145 3.0
  endloop
endfacet
facet normal 0.7933533402912296 -0.6087614290087278 -2.6613675153861007e-18
  outer loop
    vertex 35.29852813742386 9.491471862576145 5.999999999999998
    vertex 35.48923048454133 9.74 3.0
    vertex 35.48923048454133 9.74 5.999999999999998
  endloop
endfacet
facet normal 0.9238795325112849 -0.3826834323650944 -0.0
  outer loop
    vertex 35.609110991546885 10.029417145876975 3.0
    vertex 35.48923048454133 9.74 5.999999999999998
    vertex 35.48923048454133 9.74 3.0
  endloop
endfacet
facet normal 0.9238795325112849 -0.3826834323650944 -0.0
  outer loop
    vertex 35.48923048454133 9.74 5.999999999999998
    vertex 35.609110991546885 10.029417145876975 3.0
    vertex 35.609110991546885 10.029417145876975 5.999999999999998
  endloop
endfacet
facet normal 0.9914448613738114 -0.13052619222004508 -0.0
  outer loop
    vertex 35.650000000000006 10.34 3.0
    vertex 35.609110991546885 10.029417145876975 5.999999999999998
    vertex 35.609110991546885 10.029417145876975 3.0
  endloop
endfacet
facet normal 0.9914448613738114 -0.13052619222004508 -0.0
  outer loop
    vertex 35.609110991546885 10.029417145876975 5.999999999999998
    vertex 35.650000000000006 10.34 3.0
    vertex 35.650000000000006 10.34 5.999999999999998
  endloop
endfacet
facet normal 0.9914448613738114 0.13052619222004452 -1.6218309635795085e-32
  outer loop
    vertex 35.609110991546885 10.650582854123025 3.0
    vertex 35.650000000000006 10.34 5.999999999999998
    vertex 35.650000000000006 10.34 3.0
  endloop
endfacet
facet normal 0.9914448613738114 0.13052619222004452 -1.6218309635795085e-32
  outer loop
    vertex 35.650000000000006 10.34 5.999999999999998
    vertex 35.609110991546885 10.650582854123025 3.0
    vertex 35.609110991546885 10.650582854123025 5.999999999999998
  endloop
endfacet
facet normal 0.9238795325112843 0.38268343236509594 -4.7549677907733086e-32
  outer loop
    vertex 35.48923048454133 10.939999999999998 3.0
    vertex 35.609110991546885 10.650582854123025 5.999999999999998
    vertex 35.609110991546885 10.650582854123025 3.0
  endloop
endfacet
facet normal 0.9238795325112843 0.38268343236509594 -4.7549677907733086e-32
  outer loop
    vertex 35.609110991546885 10.650582854123025 5.999999999999998
    vertex 35.48923048454133 10.939999999999998 3.0
    vertex 35.48923048454133 10.939999999999998 5.999999999999998
  endloop
endfacet
facet normal 0.7933533402912296 0.6087614290087278 -7.886141412441843e-31
  outer loop
    vertex 35.29852813742386 11.188528137423853 3.0
    vertex 35.48923048454133 10.939999999999998 5.999999999999998
    vertex 35.48923048454133 10.939999999999998 3.0
  endloop
endfacet
facet normal 0.7933533402912296 0.6087614290087278 -7.886141412441843e-31
  outer loop
    vertex 35.48923048454133 10.939999999999998 5.999999999999998
    vertex 35.29852813742386 11.188528137423853 3.0
    vertex 35.29852813742386 11.188528137423853 5.999999999999998
  endloop
endfacet
facet normal 0.6087614290087264 0.7933533402912307 -1.9715353531104636e-31
  outer loop
    vertex 35.050000000000004 11.379230484541324 5.999999999999998
    vertex 35.29852813742386 11.188528137423853 3.0
    vertex 35.050000000000004 11.379230484541324 3.0
  endloop
endfacet
facet normal 0.6087614290087264 0.7933533402912307 -1.9715353531104636e-31
  outer loop
    vertex 35.29852813742386 11.188528137423853 3.0
    vertex 35.050000000000004 11.379230484541324 5.999999999999998
    vertex 35.29852813742386 11.188528137423853 5.999999999999998
  endloop
endfacet
facet normal 0.3826834323650841 0.9238795325112892 1.1479507729132e-31
  outer loop
    vertex 34.76058285412302 11.49911099154688 5.999999999999998
    vertex 35.050000000000004 11.379230484541324 3.0
    vertex 34.76058285412302 11.49911099154688 3.0
  endloop
endfacet
facet normal 0.3826834323650841 0.9238795325112892 1.1479507729132e-31
  outer loop
    vertex 35.050000000000004 11.379230484541324 3.0
    vertex 34.76058285412302 11.49911099154688 5.999999999999998
    vertex 35.050000000000004 11.379230484541324 5.999999999999998
  endloop
endfacet
facet normal 1.0 -0.0 0.0
  outer loop
    vertex 40.050000000000004 35.45 3.0
    vertex 40.050000000000004 5.549999999999997 5.999999999999998
    vertex 40.050000000000004 5.549999999999997 3.0
  endloop
endfacet
facet normal 1.0 -0.0 0.0
  outer loop
    vertex 40.050000000000004 5.549999999999997 5.999999999999998
    vertex 40.050000000000004 35.45 3.0
    vertex 40.050000000000004 35.45 5.999999999999998
  endloop
endfacet
facet normal -1.0 -0.0 -0.0
  outer loop
    vertex 7.550000000000003 35.45 5.999999999999998
    vertex 7.550000000000003 5.550000000000001 3.0
    vertex 7.550000000000003 5.550000000000001 5.999999999999998
  endloop
endfacet
facet normal -1.0 -0.0 -0.0
  outer loop
    vertex 7.550000000000003 5.550000000000001 3.0
    vertex 7.550000000000003 35.45 5.999999999999998
    vertex 7.550000000000003 35.45 3.0
  endloop
endfacet
facet normal -1.0 -0.0 -0.0
  outer loop
    vertex 37.449999999999996 33.699999999999996 5.999999999999998
    vertex 37.449999999999996 7.300000000000001 3.0
    vertex 37.449999999999996 7.300000000000001 5.999999999999998
  endloop
endfacet
facet normal -1.0 -0.0 -0.0
  outer loop
    vertex 37.449999999999996 7.300000000000001 3.0
    vertex 37.449999999999996 33.699999999999996 5.999999999999998
    vertex 37.449999999999996 33.699999999999996 3.0
  endloop
endfacet
facet normal 1.0 -0.0 0.0
  outer loop
    vertex 10.549999999999997 33.699999999999996 2.9999999999999996
    vertex 10.549999999999997 7.300000000000001 5.999999999999998
    vertex 10.549999999999997 7.300000000000001 2.9999999999999996
  endloop
endfacet
facet normal 1.0 -0.0 0.0
  outer loop
    vertex 10.549999999999997 7.300000000000001 5.999999999999998
    vertex 10.549999999999997 33.699999999999996 2.9999999999999996
    vertex 10.549999999999997 33.699999999999996 5.999999999999998
  endloop
endfacet
facet normal 0.0 0.0 1.0
  outer loop
    vertex 18.8 5.55 5.999999999999998
    vertex 15.799999999999999 7.299999999999999 5.999999999999998
    vertex 15.799999999999999 5.549999999999999 5.999999999999998
  endloop
endfacet
facet normal 0.0 0.0 1.0
  outer loop
    vertex 15.799999999999999 7.299999999999999 5.999999999999998
    vertex 18.8 5.55 5.999999999999998
    vertex 18.8 7.300000000000001 5.999999999999998
  endloop
endfacet
facet normal 1.1749860343949575e-17 2.7147189183295813e-17 1.0
  outer loop
    vertex 28.799999999999997 4.499999999999999 3.0
    vertex 18.8 5.55 3.0
    vertex 18.8 4.499999999999999 3.0
  endloop
endfacet
facet normal 1.1749860343949575e-17 2.7147189183295813e-17 1.0
  outer loop
    vertex 18.8 5.55 3.0
    vertex 28.799999999999997 4.499999999999999 3.0
    vertex 18.8 7.300000000000001 3.0
  endloop
endfacet
facet normal 1.1749860343949575e-17 2.7147189183295813e-17 1.0
  outer loop
    vertex 18.8 7.300000000000001 3.0
    vertex 28.799999999999997 4.499999999999999 3.0
    vertex 18.8 7.5 3.0
  endloop
endfacet
facet normal 1.1749860343949575e-17 2.7147189183295813e-17 1.0
  outer loop
    vertex 18.8 7.5 3.0
    vertex 28.799999999999997 4.499999999999999 3.0
    vertex 28.799999999999997 7.5 3.0
  endloop
endfacet
facet normal 1.1749860343949575e-17 2.7147189183295813e-17 1.0
  outer loop
    vertex 28.799999999999997 7.5 3.0
    vertex 28.799999999999997 4.499999999999999 3.0
    vertex 28.799999999999997 5.549999999999999 3.0
  endloop
endfacet
facet normal 1.1749860343949575e-17 2.7147189183295813e-17 1.0
  outer loop
    vertex 28.799999999999997 7.5 3.0
    vertex 28.799999999999997 5.549999999999999 3.0
    vertex 28.799999999999997 7.300000000000001 3.0
  endloop
endfacet
facet normal 1.0 -0.0 -0.0
  outer loop
    vertex 18.8 7.300000000000001 3.0
    vertex 18.8 5.55 5.999999999999998
    vertex 18.8 5.55 3.0
  endloop
endfacet
facet normal 1.0 -0.0 -0.0
  outer loop
    vertex 18.8 5.55 5.999999999999998
    vertex 18.8 7.300000000000001 3.0
    vertex 18.8 7.300000000000001 5.999999999999998
  endloop
endfacet
facet normal -1.0 0.0 0.0
  outer loop
    vertex 28.799999999999997 7.300000000000001 5.999999999999998
    vertex 28.799999999999997 5.549999999999999 3.0
    vertex 28.799999999999997 5.549999999999999 5.999999999999998
  endloop
endfacet
facet normal -1.0 0.0 0.0
  outer loop
    vertex 28.799999999999997 5.549999999999999 3.0
    vertex 28.799999999999997 7.300000000000001 5.999999999999998
    vertex 28.799999999999997 7.300000000000001 3.0
  endloop
endfacet
facet normal 0.0 0.0 1.0
  outer loop
    vertex 40.050000000000004 5.549999999999997 5.999999999999998
    vertex 28.799999999999997 7.300000000000001 5.999999999999998
    vertex 28.799999999999997 5.549999999999999 5.999999999999998
  endloop
endfacet
facet normal 0.0 0.0 1.0
  outer loop
    vertex 28.799999999999997 7.300000000000001 5.999999999999998
    vertex 40.050000000000004 5.549999999999997 5.999999999999998
    vertex 37.449999999999996 7.300000000000001 5.999999999999998
  endloop
endfacet
facet normal 0.0 0.0 1.0
  outer loop
    vertex 37.449999999999996 7.300000000000001 5.999999999999998
    vertex 40.050000000000004 5.549999999999997 5.999999999999998
    vertex 37.449999999999996 33.699999999999996 5.999999999999998
  endloop
endfacet
facet normal 0.0 0.0 1.0
  outer loop
    vertex 37.449999999999996 33.699999999999996 5.999999999999998
    vertex 28.799999999999997 35.45 5.999999999999998
    vertex 28.799999999999997 33.699999999999996 5.999999999999998
  endloop
endfacet
facet normal 0.0 0.0 1.0
  outer loop
    vertex 28.799999999999997 35.45 5.999999999999998
    vertex 37.449999999999996 33.699999999999996 5.999999999999998
    vertex 40.050000000000004 35.45 5.999999999999998
  endloop
endfacet
facet normal 0.0 0.0 1.0
  outer loop
    vertex 40.050000000000004 35.45 5.999999999999998
    vertex 37.449999999999996 33.699999999999996 5.999999999999998
    vertex 40.050000000000004 5.549999999999997 5.999999999999998
  endloop
endfacet
facet normal 8.812395257962182e-18 -2.582226571739597e-17 1.0
  outer loop
    vertex 28.799999999999997 33.49999999999999 3.0
    vertex 18.8 33.699999999999996 3.0
    vertex 18.8 33.49999999999999 3.0
  endloop
endfacet
facet normal 8.812395257962182e-18 -2.582226571739597e-17 1.0
  outer loop
    vertex 18.8 33.699999999999996 3.0
    vertex 28.799999999999997 33.49999999999999 3.0
    vertex 18.8 35.45 3.0
  endloop
endfacet
facet normal 8.812395257962182e-18 -2.582226571739597e-17 1.0
  outer loop
    vertex 18.8 35.45 3.0
    vertex 28.799999999999997 33.49999999999999 3.0
    vertex 18.8 37.0 3.0
  endloop
endfacet
facet normal 8.812395257962182e-18 -2.582226571739597e-17 1.0
  outer loop
    vertex 18.8 37.0 3.0
    vertex 28.799999999999997 33.49999999999999 3.0
    vertex 28.799999999999997 37.0 3.0
  endloop
endfacet
facet normal 8.812395257962182e-18 -2.582226571739597e-17 1.0
  outer loop
    vertex 28.799999999999997 37.0 3.0
    vertex 28.799999999999997 33.49999999999999 3.0
    vertex 28.799999999999997 33.699999999999996 3.0
  endloop
endfacet
facet normal 8.812395257962182e-18 -2.582226571739597e-17 1.0
  outer loop
    vertex 28.799999999999997 37.0 3.0
    vertex 28.799999999999997 33.699999999999996 3.0
    vertex 28.799999999999997 35.45 3.0
  endloop
endfacet
facet normal 1.0 -0.0 -0.0
  outer loop
    vertex 18.8 35.45 3.0
    vertex 18.8 33.699999999999996 5.999999999999998
    vertex 18.8 33.699999999999996 3.0
  endloop
endfacet
facet normal 1.0 -0.0 -0.0
  outer loop
    vertex 18.8 33.699999999999996 5.999999999999998
    vertex 18.8 35.45 3.0
    vertex 18.8 35.45 5.999999999999998
  endloop
endfacet
facet normal -1.0 0.0 0.0
  outer loop
    vertex 28.799999999999997 35.45 5.999999999999998
    vertex 28.799999999999997 33.699999999999996 3.0
    vertex 28.799999999999997 33.699999999999996 5.999999999999998
  endloop
endfacet
facet normal -1.0 0.0 0.0
  outer loop
    vertex 28.799999999999997 33.699999999999996 3.0
    vertex 28.799999999999997 35.45 5.999999999999998
    vertex 28.799999999999997 35.45 3.0
  endloop
endfacet
facet normal 2.0375480365230472e-17 5.521656869097405e-34 1.0
  outer loop
    vertex 33.29088900845312 10.650582854123023 3.0
    vertex 33.25 30.66 3.0
    vertex 33.25 10.34 3.0
  endloop
endfacet
facet normal 2.0375480365230472e-17 5.521656869097405e-34 1.0
  outer loop
    vertex 33.25 30.66 3.0
    vertex 33.29088900845312 10.650582854123023 3.0
    vertex 33.290889008453114 30.349417145876973 3.0
  endloop
endfacet
facet normal 2.0375480365230472e-17 5.521656869097405e-34 1.0
  outer loop
    vertex 33.290889008453114 30.349417145876973 3.0
    vertex 33.29088900845312 10.650582854123023 3.0
    vertex 33.410769515458675 30.06 3.0
  endloop
endfacet
facet normal 2.0375480365230472e-17 5.521656869097405e-34 1.0
  outer loop
    vertex 33.410769515458675 30.06 3.0
    vertex 33.29088900845312 10.650582854123023 3.0
    vertex 33.410769515458675 10.939999999999998 3.0
  endloop
endfacet
facet normal 2.0375480365230472e-17 5.521656869097405e-34 1.0
  outer loop
    vertex 33.410769515458675 30.06 3.0
    vertex 33.410769515458675 10.939999999999998 3.0
    vertex 33.60147186257615 11.188528137423853 3.0
  endloop
endfacet
facet normal 2.0375480365230472e-17 5.521656869097405e-34 1.0
  outer loop
    vertex 33.410769515458675 30.06 3.0
    vertex 33.60147186257615 11.188528137423853 3.0
    vertex 33.60147186257614 29.81147186257614 3.0
  endloop
endfacet
facet normal 2.0375480365230472e-17 5.521656869097405e-34 1.0
  outer loop
    vertex 33.60147186257614 29.81147186257614 3.0
    vertex 33.60147186257615 11.188528137423853 3.0
    vertex 33.85 29.620769515458676 3.0
  endloop
endfacet
facet normal 2.0375480365230472e-17 5.521656869097405e-34 1.0
  outer loop
    vertex 33.85 29.620769515458676 3.0
    vertex 33.60147186257615 11.188528137423853 3.0
    vertex 33.85 11.379230484541324 3.0
  endloop
endfacet
facet normal 2.0375480365230472e-17 5.521656869097405e-34 1.0
  outer loop
    vertex 33.85 29.620769515458676 3.0
    vertex 33.85 11.379230484541324 3.0
    vertex 34.139417145876976 11.499110991546878 3.0
  endloop
endfacet
facet normal 2.0375480365230472e-17 5.521656869097405e-34 1.0
  outer loop
    vertex 33.85 29.620769515458676 3.0
    vertex 34.139417145876976 11.499110991546878 3.0
    vertex 34.139417145876976 29.500889008453118 3.0
  endloop
endfacet
facet normal 2.0375480365230472e-17 5.521656869097405e-34 1.0
  outer loop
    vertex 34.139417145876976 29.500889008453118 3.0
    vertex 34.139417145876976 11.499110991546878 3.0
    vertex 34.45 11.539999999999997 3.0
  endloop
endfacet
facet normal 2.0375480365230472e-17 5.521656869097405e-34 1.0
  outer loop
    vertex 34.139417145876976 29.500889008453118 3.0
    vertex 34.45 11.539999999999997 3.0
    vertex 34.449999999999996 29.46 3.0
  endloop
endfacet
facet normal 2.0375480365230472e-17 5.521656869097405e-34 1.0
  outer loop
    vertex 34.449999999999996 29.46 3.0
    vertex 34.45 11.539999999999997 3.0
    vertex 34.76058285412302 29.500889008453118 3.0
  endloop
endfacet
facet normal 2.0375480365230472e-17 5.521656869097405e-34 1.0
  outer loop
    vertex 34.76058285412302 29.500889008453118 3.0
    vertex 34.45 11.539999999999997 3.0
    vertex 34.76058285412302 11.49911099154688 3.0
  endloop
endfacet
facet normal 2.0375480365230472e-17 5.521656869097405e-34 1.0
  outer loop
    vertex 34.76058285412302 29.500889008453118 3.0
    vertex 34.76058285412302 11.49911099154688 3.0
    vertex 35.050000000000004 11.379230484541324 3.0
  endloop
endfacet
facet normal 2.0375480365230472e-17 5.521656869097405e-34 1.0
  outer loop
    vertex 34.76058285412302 29.500889008453118 3.0
    vertex 35.050000000000004 11.379230484541324 3.0
    vertex 35.05 29.620769515458676 3.0
  endloop
endfacet
facet normal 2.0375480365230472e-17 5.521656869097405e-34 1.0
  outer loop
    vertex 35.05 29.620769515458676 3.0
    vertex 35.050000000000004 11.379230484541324 3.0
    vertex 35.29852813742386 29.81147186257614 3.0
  endloop
endfacet
facet normal 2.0375480365230472e-17 5.521656869097405e-34 1.0
  outer loop
    vertex 35.29852813742386 29.81147186257614 3.0
    vertex 35.050000000000004 11.379230484541324 3.0
    vertex 35.29852813742386 11.188528137423853 3.0
  endloop
endfacet
facet normal 2.0375480365230472e-17 5.521656869097405e-34 1.0
  outer loop
    vertex 35.29852813742386 29.81147186257614 3.0
    vertex 35.29852813742386 11.188528137423853 3.0
    vertex 35.48923048454133 10.939999999999998 3.0
  endloop
endfacet
facet normal 2.0375480365230472e-17 5.521656869097405e-34 1.0
  outer loop
    vertex 35.29852813742386 29.81147186257614 3.0
    vertex 35.48923048454133 10.939999999999998 3.0
    vertex 35.489230484541324 30.06 3.0
  endloop
endfacet
facet normal 2.0375480365230472e-17 5.521656869097405e-34 1.0
  outer loop
    vertex 35.489230484541324 30.06 3.0
    vertex 35.48923048454133 10.939999999999998 3.0
    vertex 35.60911099154688 30.349417145876973 3.0
  endloop
endfacet
facet normal 2.0375480365230472e-17 5.521656869097405e-34 1.0
  outer loop
    vertex 35.60911099154688 30.349417145876973 3.0
    vertex 35.48923048454133 10.939999999999998 3.0
    vertex 35.609110991546885 10.650582854123025 3.0
  endloop
endfacet
facet normal 2.0375480365230472e-17 5.521656869097405e-34 1.0
  outer loop
    vertex 35.60911099154688 30.349417145876973 3.0
    vertex 35.609110991546885 10.650582854123025 3.0
    vertex 35.65 30.66 3.0
  endloop
endfacet
facet normal 2.0375480365230472e-17 5.521656869097405e-34 1.0
  outer loop
    vertex 35.65 30.66 3.0
    vertex 35.609110991546885 10.650582854123025 3.0
    vertex 35.650000000000006 10.34 3.0
  endloop
endfacet
facet normal 2.0375480365230472e-17 5.521656869097405e-34 1.0
  outer loop
    vertex 37.449999999999996 7.300000000000001 3.0
    vertex 28.799999999999997 7.5 3.0
    vertex 28.799999999999997 7.300000000000001 3.0
  endloop
endfacet
facet normal 2.0375480365230472e-17 5.521656869097405e-34 1.0
  outer loop
    vertex 28.799999999999997 7.5 3.0
    vertex 37.449999999999996 7.300000000000001 3.0
    vertex 33.85 9.300769515458674 3.0
  endloop
endfacet
facet normal 2.0375480365230472e-17 5.521656869097405e-34 1.0
  outer loop
    vertex 28.799999999999997 7.5 3.0
    vertex 33.85 9.300769515458674 3.0
    vertex 33.60147186257615 9.491471862576145 3.0
  endloop
endfacet
facet normal 2.0375480365230472e-17 5.521656869097405e-34 1.0
  outer loop
    vertex 28.799999999999997 7.5 3.0
    vertex 33.60147186257615 9.491471862576145 3.0
    vertex 33.410769515458675 9.74 3.0
  endloop
endfacet
facet normal 2.0375480365230472e-17 5.521656869097405e-34 1.0
  outer loop
    vertex 28.799999999999997 7.5 3.0
    vertex 33.410769515458675 9.74 3.0
    vertex 33.29088900845312 10.029417145876975 3.0
  endloop
endfacet
facet normal 2.0375480365230472e-17 5.521656869097405e-34 1.0
  outer loop
    vertex 28.799999999999997 7.5 3.0
    vertex 33.29088900845312 10.029417145876975 3.0
    vertex 28.799999999999997 33.49999999999999 3.0
  endloop
endfacet
facet normal 2.0375480365230472e-17 5.521656869097405e-34 1.0
  outer loop
    vertex 28.799999999999997 33.49999999999999 3.0
    vertex 33.29088900845312 10.029417145876975 3.0
    vertex 28.799999999999997 33.699999999999996 3.0
  endloop
endfacet
facet normal 2.0375480365230472e-17 5.521656869097405e-34 1.0
  outer loop
    vertex 28.799999999999997 33.699999999999996 3.0
    vertex 33.29088900845312 10.029417145876975 3.0
    vertex 33.25 10.34 3.0
  endloop
endfacet
facet normal 2.0375480365230472e-17 5.521656869097405e-34 1.0
  outer loop
    vertex 33.85 9.300769515458674 3.0
    vertex 37.449999999999996 7.300000000000001 3.0
    vertex 34.139417145876976 9.18088900845312 3.0
  endloop
endfacet
facet normal 2.0375480365230472e-17 5.521656869097405e-34 1.0
  outer loop
    vertex 34.139417145876976 9.18088900845312 3.0
    vertex 37.449999999999996 7.300000000000001 3.0
    vertex 34.45 9.14 3.0
  endloop
endfacet
facet normal 2.0375480365230472e-17 5.521656869097405e-34 1.0
  outer loop
    vertex 34.45 9.14 3.0
    vertex 37.449999999999996 7.300000000000001 3.0
    vertex 34.76058285412302 9.18088900845312 3.0
  endloop
endfacet
facet normal 2.0375480365230472e-17 5.521656869097405e-34 1.0
  outer loop
    vertex 34.76058285412302 9.18088900845312 3.0
    vertex 37.449999999999996 7.300000000000001 3.0
    vertex 35.050000000000004 9.300769515458674 3.0
  endloop
endfacet
facet normal 2.0375480365230472e-17 5.521656869097405e-34 1.0
  outer loop
    vertex 35.050000000000004 9.300769515458674 3.0
    vertex 37.449999999999996 7.300000000000001 3.0
    vertex 35.29852813742386 9.491471862576145 3.0
  endloop
endfacet
facet normal 2.0375480365230472e-17 5.521656869097405e-34 1.0
  outer loop
    vertex 35.29852813742386 9.491471862576145 3.0
    vertex 37.449999999999996 7.300000000000001 3.0
    vertex 35.48923048454133 9.74 3.0
  endloop
endfacet
facet normal 2.0375480365230472e-17 5.521656869097405e-34 1.0
  outer loop
    vertex 35.48923048454133 9.74 3.0
    vertex 37.449999999999996 7.300000000000001 3.0
    vertex 35.609110991546885 10.029417145876975 3.0
  endloop
endfacet
facet normal 2.0375480365230472e-17 5.521656869097405e-34 1.0
  outer loop
    vertex 35.609110991546885 10.029417145876975 3.0
    vertex 37.449999999999996 7.300000000000001 3.0
    vertex 35.650000000000006 10.34 3.0
  endloop
endfacet
facet normal 2.0375480365230472e-17 5.521656869097405e-34 1.0
  outer loop
    vertex 28.799999999999997 33.699999999999996 3.0
    vertex 33.85 31.699230484541324 3.0
    vertex 37.449999999999996 33.699999999999996 3.0
  endloop
endfacet
facet normal 2.0375480365230472e-17 5.521656869097405e-34 1.0
  outer loop
    vertex 33.85 31.699230484541324 3.0
    vertex 28.799999999999997 33.699999999999996 3.0
    vertex 33.60147186257614 31.508528137423852 3.0
  endloop
endfacet
facet normal 2.0375480365230472e-17 5.521656869097405e-34 1.0
  outer loop
    vertex 33.60147186257614 31.508528137423852 3.0
    vertex 28.799999999999997 33.699999999999996 3.0
    vertex 33.410769515458675 31.259999999999998 3.0
  endloop
endfacet
facet normal 2.0375480365230472e-17 5.521656869097405e-34 1.0
  outer loop
    vertex 33.410769515458675 31.259999999999998 3.0
    vertex 28.799999999999997 33.699999999999996 3.0
    vertex 33.290889008453114 30.970582854123023 3.0
  endloop
endfacet
facet normal 2.0375480365230472e-17 5.521656869097405e-34 1.0
  outer loop
    vertex 33.290889008453114 30.970582854123023 3.0
    vertex 28.799999999999997 33.699999999999996 3.0
    vertex 33.25 30.66 3.0
  endloop
endfacet
facet normal 2.0375480365230472e-17 5.521656869097405e-34 1.0
  outer loop
    vertex 33.25 30.66 3.0
    vertex 28.799999999999997 33.699999999999996 3.0
    vertex 33.25 10.34 3.0
  endloop
endfacet
facet normal 2.0375480365230472e-17 5.521656869097405e-34 1.0
  outer loop
    vertex 37.449999999999996 33.699999999999996 3.0
    vertex 33.85 31.699230484541324 3.0
    vertex 34.139417145876976 31.819110991546882 3.0
  endloop
endfacet
facet normal 2.0375480365230472e-17 5.521656869097405e-34 1.0
  outer loop
    vertex 37.449999999999996 33.699999999999996 3.0
    vertex 34.139417145876976 31.819110991546882 3.0
    vertex 34.449999999999996 31.859999999999996 3.0
  endloop
endfacet
facet normal 2.0375480365230472e-17 5.521656869097405e-34 1.0
  outer loop
    vertex 37.449999999999996 33.699999999999996 3.0
    vertex 34.449999999999996 31.859999999999996 3.0
    vertex 34.76058285412302 31.819110991546882 3.0
  endloop
endfacet
facet normal 2.0375480365230472e-17 5.521656869097405e-34 1.0
  outer loop
    vertex 37.449999999999996 33.699999999999996 3.0
    vertex 34.76058285412302 31.819110991546882 3.0
    vertex 35.05 31.699230484541324 3.0
  endloop
endfacet
facet normal 2.0375480365230472e-17 5.521656869097405e-34 1.0
  outer loop
    vertex 37.449999999999996 33.699999999999996 3.0
    vertex 35.05 31.699230484541324 3.0
    vertex 35.29852813742385 31.508528137423855 3.0
  endloop
endfacet
facet normal 2.0375480365230472e-17 5.521656869097405e-34 1.0
  outer loop
    vertex 37.449999999999996 33.699999999999996 3.0
    vertex 35.29852813742385 31.508528137423855 3.0
    vertex 35.489230484541324 31.259999999999998 3.0
  endloop
endfacet
facet normal 2.0375480365230472e-17 5.521656869097405e-34 1.0
  outer loop
    vertex 37.449999999999996 33.699999999999996 3.0
    vertex 35.489230484541324 31.259999999999998 3.0
    vertex 35.60911099154688 30.970582854123023 3.0
  endloop
endfacet
facet normal 2.0375480365230472e-17 5.521656869097405e-34 1.0
  outer loop
    vertex 37.449999999999996 33.699999999999996 3.0
    vertex 35.60911099154688 30.970582854123023 3.0
    vertex 35.65 30.66 3.0
  endloop
endfacet
facet normal 2.0375480365230472e-17 5.521656869097405e-34 1.0
  outer loop
    vertex 37.449999999999996 33.699999999999996 3.0
    vertex 35.65 30.66 3.0
    vertex 35.650000000000006 10.34 3.0
  endloop
endfacet
facet normal 2.0375480365230472e-17 5.521656869097405e-34 1.0
  outer loop
    vertex 37.449999999999996 33.699999999999996 3.0
    vertex 35.650000000000006 10.34 3.0
    vertex 37.449999999999996 7.300000000000001 3.0
  endloop
endfacet
facet normal -0.0 -0.0 1.0
  outer loop
    vertex 28.799999999999997 7.5 3.0
    vertex 18.8 33.49999999999999 3.0
    vertex 18.8 7.5 3.0
  endloop
endfacet
facet normal -0.0 -0.0 1.0
  outer loop
    vertex 18.8 33.49999999999999 3.0
    vertex 28.799999999999997 7.5 3.0
    vertex 28.799999999999997 33.49999999999999 3.0
  endloop
endfacet
facet normal -8.54535297741787e-17 -6.402993805472e-34 1.0
  outer loop
    vertex 18.8 7.300000000000001 3.0
    vertex 10.549999999999997 33.699999999999996 2.9999999999999996
    vertex 10.549999999999997 7.300000000000001 2.9999999999999996
  endloop
endfacet
facet normal -8.54535297741787e-17 -6.402993805472e-34 1.0
  outer loop
    vertex 10.549999999999997 33.699999999999996 2.9999999999999996
    vertex 18.8 7.300000000000001 3.0
    vertex 18.8 33.699999999999996 3.0
  endloop
endfacet
facet normal -8.54535297741787e-17 -6.402993805472e-34 1.0
  outer loop
    vertex 18.8 33.699999999999996 3.0
    vertex 18.8 7.300000000000001 3.0
    vertex 18.8 7.5 3.0
  endloop
endfacet
facet normal -8.54535297741787e-17 -6.402993805472e-34 1.0
  outer loop
    vertex 18.8 33.699999999999996 3.0
    vertex 18.8 7.5 3.0
    vertex 18.8 33.49999999999999 3.0
  endloop
endfacet
facet normal 0.0 0.0 1.0
  outer loop
    vertex 18.8 33.699999999999996 5.999999999999998
    vertex 15.799999999999999 35.45 5.999999999999998
    vertex 15.799999999999999 33.699999999999996 5.999999999999998
  endloop
endfacet
facet normal 0.0 0.0 1.0
  outer loop
    vertex 15.799999999999999 35.45 5.999999999999998
    vertex 18.8 33.699999999999996 5.999999999999998
    vertex 18.8 35.45 5.999999999999998
  endloop
endfacet
facet normal 0.0 0.0 1.0
  outer loop
    vertex 7.550000000000003 5.550000000000001 5.999999999999998
    vertex 10.549999999999997 7.300000000000001 5.999999999999998
    vertex 7.550000000000003 35.45 5.999999999999998
  endloop
endfacet
facet normal 0.0 0.0 1.0
  outer loop
    vertex 10.549999999999997 7.300000000000001 5.999999999999998
    vertex 7.550000000000003 5.550000000000001 5.999999999999998
    vertex 12.799999999999999 5.550000000000001 5.999999999999998
  endloop
endfacet
facet normal 0.0 0.0 1.0
  outer loop
    vertex 10.549999999999997 7.300000000000001 5.999999999999998
    vertex 12.799999999999999 5.550000000000001 5.999999999999998
    vertex 12.799999999999999 7.299999999999999 5.999999999999998
  endloop
endfacet
facet normal 0.0 0.0 1.0
  outer loop
    vertex 7.550000000000003 35.45 5.999999999999998
    vertex 10.549999999999997 33.699999999999996 5.999999999999998
    vertex 12.799999999999999 35.45 5.999999999999998
  endloop
endfacet
facet normal 0.0 0.0 1.0
  outer loop
    vertex 10.549999999999997 33.699999999999996 5.999999999999998
    vertex 7.550000000000003 35.45 5.999999999999998
    vertex 10.549999999999997 7.300000000000001 5.999999999999998
  endloop
endfacet
facet normal 0.0 0.0 1.0
  outer loop
    vertex 12.799999999999999 35.45 5.999999999999998
    vertex 10.549999999999997 33.699999999999996 5.999999999999998
    vertex 12.799999999999999 33.699999999999996 5.999999999999998
  endloop
endfacet
facet normal 0.0 0.0 1.0
  outer loop
    vertex 15.799999999999999 5.549999999999999 8.999999999999998
    vertex 12.799999999999999 7.299999999999999 8.999999999999998
    vertex 12.799999999999999 5.550000000000001 8.999999999999998
  endloop
endfacet
facet normal 0.0 0.0 1.0
  outer loop
    vertex 12.799999999999999 7.299999999999999 8.999999999999998
    vertex 15.799999999999999 5.549999999999999 8.999999999999998
    vertex 15.799999999999999 7.299999999999999 8.999999999999998
  endloop
endfacet
facet normal 1.0 0.0 0.0
  outer loop
    vertex 15.799999999999999 7.299999999999999 5.999999999999998
    vertex 15.799999999999999 5.549999999999999 8.999999999999998
    vertex 15.799999999999999 5.549999999999999 5.999999999999998
  endloop
endfacet
facet normal 1.0 0.0 0.0
  outer loop
    vertex 15.799999999999999 5.549999999999999 8.999999999999998
    vertex 15.799999999999999 7.299999999999999 5.999999999999998
    vertex 15.799999999999999 7.299999999999999 8.999999999999998
  endloop
endfacet
facet normal -1.0 -0.0 -0.0
  outer loop
    vertex 12.799999999999999 7.299999999999999 8.999999999999998
    vertex 12.799999999999999 5.550000000000001 5.999999999999998
    vertex 12.799999999999999 5.550000000000001 8.999999999999998
  endloop
endfacet
facet normal -1.0 -0.0 -0.0
  outer loop
    vertex 12.799999999999999 5.550000000000001 5.999999999999998
    vertex 12.799999999999999 7.299999999999999 8.999999999999998
    vertex 12.799999999999999 7.299999999999999 5.999999999999998
  endloop
endfacet
facet normal 0.0 0.0 1.0
  outer loop
    vertex 15.799999999999999 33.699999999999996 8.999999999999998
    vertex 12.799999999999999 35.45 8.999999999999998
    vertex 12.799999999999999 33.699999999999996 8.999999999999998
  endloop
endfacet
facet normal 0.0 0.0 1.0
  outer loop
    vertex 12.799999999999999 35.45 8.999999999999998
    vertex 15.799999999999999 33.699999999999996 8.999999999999998
    vertex 15.799999999999999 35.45 8.999999999999998
  endloop
endfacet
facet normal 1.0 0.0 0.0
  outer loop
    vertex 15.799999999999999 35.45 5.999999999999998
    vertex 15.799999999999999 33.699999999999996 8.999999999999998
    vertex 15.799999999999999 33.699999999999996 5.999999999999998
  endloop
endfacet
facet normal 1.0 0.0 0.0
  outer loop
    vertex 15.799999999999999 33.699999999999996 8.999999999999998
    vertex 15.799999999999999 35.45 5.999999999999998
    vertex 15.799999999999999 35.45 8.999999999999998
  endloop
endfacet
facet normal -1.0 -0.0 -0.0
  outer loop
    vertex 12.799999999999999 35.45 8.999999999999998
    vertex 12.799999999999999 33.699999999999996 5.999999999999998
    vertex 12.799999999999999 33.699999999999996 8.999999999999998
  endloop
endfacet
facet normal -1.0 -0.0 -0.0
  outer loop
    vertex 12.799999999999999 33.699999999999996 5.999999999999998
    vertex 12.799999999999999 35.45 8.999999999999998
    vertex 12.799999999999999 35.45 5.999999999999998
  endloop
endfacet
facet normal 0.0 -1.0 0.0
  outer loop
    vertex 37.449999999999996 33.699999999999996 5.999999999999998
    vertex 28.799999999999997 33.699999999999996 3.0
    vertex 37.449999999999996 33.699999999999996 3.0
  endloop
endfacet
facet normal 0.0 -1.0 0.0
  outer loop
    vertex 28.799999999999997 33.699999999999996 3.0
    vertex 37.449999999999996 33.699999999999996 5.999999999999998
    vertex 28.799999999999997 33.699999999999996 5.999999999999998
  endloop
endfacet
facet normal -0.0 1.0 -0.0
  outer loop
    vertex 28.799999999999997 7.300000000000001 5.999999999999998
    vertex 37.449999999999996 7.300000000000001 3.0
    vertex 28.799999999999997 7.300000000000001 3.0
  endloop
endfacet
facet normal -0.0 1.0 -0.0
  outer loop
    vertex 37.449999999999996 7.300000000000001 3.0
    vertex 28.799999999999997 7.300000000000001 5.999999999999998
    vertex 37.449999999999996 7.300000000000001 5.999999999999998
  endloop
endfacet
facet normal -7.055882577667026e-18 1.0 1.7058633761300898e-16
  outer loop
    vertex 12.799999999999999 7.299999999999999 8.999999999999998
    vertex 15.799999999999999 7.299999999999999 5.999999999999998
    vertex 12.799999999999999 7.299999999999999 5.999999999999998
  endloop
endfacet
facet normal -7.055882577667026e-18 1.0 1.7058633761300898e-16
  outer loop
    vertex 15.799999999999999 7.299999999999999 5.999999999999998
    vertex 12.799999999999999 7.299999999999999 8.999999999999998
    vertex 15.799999999999999 7.299999999999999 8.999999999999998
  endloop
endfacet
facet normal -7.055882577667026e-18 1.0 1.7058633761300898e-16
  outer loop
    vertex 10.549999999999997 7.300000000000001 5.999999999999998
    vertex 18.8 7.300000000000001 3.0
    vertex 10.549999999999997 7.300000000000001 2.9999999999999996
  endloop
endfacet
facet normal -7.055882577667026e-18 1.0 1.7058633761300898e-16
  outer loop
    vertex 18.8 7.300000000000001 3.0
    vertex 10.549999999999997 7.300000000000001 5.999999999999998
    vertex 18.8 7.300000000000001 5.999999999999998
  endloop
endfacet
facet normal -7.055882577667026e-18 1.0 1.7058633761300898e-16
  outer loop
    vertex 18.8 7.300000000000001 5.999999999999998
    vertex 10.549999999999997 7.300000000000001 5.999999999999998
    vertex 12.799999999999999 7.299999999999999 5.999999999999998
  endloop
endfacet
facet normal -7.055882577667026e-18 1.0 1.7058633761300898e-16
  outer loop
    vertex 18.8 7.300000000000001 5.999999999999998
    vertex 12.799999999999999 7.299999999999999 5.999999999999998
    vertex 15.799999999999999 7.299999999999999 5.999999999999998
  endloop
endfacet
facet normal 0.0 -1.0 0.0
  outer loop
    vertex 15.799999999999999 33.699999999999996 8.999999999999998
    vertex 12.799999999999999 33.699999999999996 5.999999999999998
    vertex 15.799999999999999 33.699999999999996 5.999999999999998
  endloop
endfacet
facet normal 0.0 -1.0 0.0
  outer loop
    vertex 12.799999999999999 33.699999999999996 5.999999999999998
    vertex 15.799999999999999 33.699999999999996 8.999999999999998
    vertex 12.799999999999999 33.699999999999996 8.999999999999998
  endloop
endfacet
facet normal 0.0 -1.0 0.0
  outer loop
    vertex 18.8 33.699999999999996 3.0
    vertex 10.549999999999997 33.699999999999996 5.999999999999998
    vertex 10.549999999999997 33.699999999999996 2.9999999999999996
  endloop
endfacet
facet normal 0.0 -1.0 0.0
  outer loop
    vertex 10.549999999999997 33.699999999999996 5.999999999999998
    vertex 18.8 33.699999999999996 3.0
    vertex 18.8 33.699999999999996 5.999999999999998
  endloop
endfacet
facet normal 0.0 -1.0 0.0
  outer loop
    vertex 10.549999999999997 33.699999999999996 5.999999999999998
    vertex 18.8 33.699999999999996 5.999999999999998
    vertex 15.799999999999999 33.699999999999996 5.999999999999998
  endloop
endfacet
facet normal 0.0 -1.0 0.0
  outer loop
    vertex 10.549999999999997 33.699999999999996 5.999999999999998
    vertex 15.799999999999999 33.699999999999996 5.999999999999998
    vertex 12.799999999999999 33.699999999999996 5.999999999999998
  endloop
endfacet
facet normal 0.0 1.0 0.0
  outer loop
    vertex 28.799999999999997 35.45 3.0
    vertex 40.050000000000004 35.45 5.999999999999998
    vertex 40.050000000000004 35.45 3.0
  endloop
endfacet
facet normal 0.0 1.0 0.0
  outer loop
    vertex 40.050000000000004 35.45 5.999999999999998
    vertex 28.799999999999997 35.45 3.0
    vertex 28.799999999999997 35.45 5.999999999999998
  endloop
endfacet
facet normal 0.0 1.0 0.0
  outer loop
    vertex 12.799999999999999 35.45 8.999999999999998
    vertex 15.799999999999999 35.45 5.999999999999998
    vertex 12.799999999999999 35.45 5.999999999999998
  endloop
endfacet
facet normal 0.0 1.0 0.0
  outer loop
    vertex 15.799999999999999 35.45 5.999999999999998
    vertex 12.799999999999999 35.45 8.999999999999998
    vertex 15.799999999999999 35.45 8.999999999999998
  endloop
endfacet
facet normal 0.0 1.0 0.0
  outer loop
    vertex 7.550000000000003 35.45 5.999999999999998
    vertex 18.8 35.45 3.0
    vertex 7.550000000000003 35.45 3.0
  endloop
endfacet
facet normal 0.0 1.0 0.0
  outer loop
    vertex 18.8 35.45 3.0
    vertex 7.550000000000003 35.45 5.999999999999998
    vertex 18.8 35.45 5.999999999999998
  endloop
endfacet
facet normal 0.0 1.0 0.0
  outer loop
    vertex 18.8 35.45 5.999999999999998
    vertex 7.550000000000003 35.45 5.999999999999998
    vertex 12.799999999999999 35.45 5.999999999999998
  endloop
endfacet
facet normal 0.0 1.0 0.0
  outer loop
    vertex 18.8 35.45 5.999999999999998
    vertex 12.799999999999999 35.45 5.999999999999998
    vertex 15.799999999999999 35.45 5.999999999999998
  endloop
endfacet
facet normal -8.545652136009223e-17 -1.0 -2.0337976305812596e-18
  outer loop
    vertex 15.799999999999999 5.549999999999999 8.999999999999998
    vertex 12.799999999999999 5.550000000000001 5.999999999999998
    vertex 15.799999999999999 5.549999999999999 5.999999999999998
  endloop
endfacet
facet normal -8.545652136009223e-17 -1.0 -2.0337976305812596e-18
  outer loop
    vertex 12.799999999999999 5.550000000000001 5.999999999999998
    vertex 15.799999999999999 5.549999999999999 8.999999999999998
    vertex 12.799999999999999 5.550000000000001 8.999999999999998
  endloop
endfacet
facet normal -8.545652136009223e-17 -1.0 -2.0337976305812596e-18
  outer loop
    vertex 18.8 5.55 3.0
    vertex 10.7 5.55 3.0
    vertex 13.9 5.55 3.0
  endloop
endfacet
facet normal -8.545652136009223e-17 -1.0 -2.0337976305812596e-18
  outer loop
    vertex 10.7 5.55 3.0
    vertex 18.8 5.55 3.0
    vertex 7.550000000000003 5.550000000000001 3.0
  endloop
endfacet
facet normal -8.545652136009223e-17 -1.0 -2.0337976305812596e-18
  outer loop
    vertex 7.550000000000003 5.550000000000001 3.0
    vertex 18.8 5.55 3.0
    vertex 7.550000000000003 5.550000000000001 5.999999999999998
  endloop
endfacet
facet normal -8.545652136009223e-17 -1.0 -2.0337976305812596e-18
  outer loop
    vertex 7.550000000000003 5.550000000000001 5.999999999999998
    vertex 18.8 5.55 3.0
    vertex 18.8 5.55 5.999999999999998
  endloop
endfacet
facet normal -8.545652136009223e-17 -1.0 -2.0337976305812596e-18
  outer loop
    vertex 7.550000000000003 5.550000000000001 5.999999999999998
    vertex 18.8 5.55 5.999999999999998
    vertex 15.799999999999999 5.549999999999999 5.999999999999998
  endloop
endfacet
facet normal -8.545652136009223e-17 -1.0 -2.0337976305812596e-18
  outer loop
    vertex 7.550000000000003 5.550000000000001 5.999999999999998
    vertex 15.799999999999999 5.549999999999999 5.999999999999998
    vertex 12.799999999999999 5.550000000000001 5.999999999999998
  endloop
endfacet
facet normal -9.867081667766685e-17 -1.0 7.160920875132124e-16
  outer loop
    vertex 40.050000000000004 5.549999999999997 5.999999999999998
    vertex 35.300000000000004 5.5499999999999945 3.0
    vertex 40.050000000000004 5.549999999999997 3.0
  endloop
endfacet
facet normal -9.867081667766685e-17 -1.0 7.160920875132124e-16
  outer loop
    vertex 35.300000000000004 5.5499999999999945 3.0
    vertex 40.050000000000004 5.549999999999997 5.999999999999998
    vertex 32.199999999999996 5.5499999999999945 3.0
  endloop
endfacet
facet normal -9.867081667766685e-17 -1.0 7.160920875132124e-16
  outer loop
    vertex 32.199999999999996 5.5499999999999945 3.0
    vertex 40.050000000000004 5.549999999999997 5.999999999999998
    vertex 28.799999999999997 5.549999999999999 3.0
  endloop
endfacet
facet normal -9.867081667766685e-17 -1.0 7.160920875132124e-16
  outer loop
    vertex 28.799999999999997 5.549999999999999 3.0
    vertex 40.050000000000004 5.549999999999997 5.999999999999998
    vertex 28.799999999999997 5.549999999999999 5.999999999999998
  endloop
endfacet
facet normal -2.2100265730418382e-19 -2.3477904251759168e-18 1.0
  outer loop
    vertex 1.9999999999999998 2.2499999999999996 3.0
    vertex 7.550000000000003 5.550000000000001 3.0
    vertex 2.0 38.75 3.0
  endloop
endfacet
facet normal -2.2100265730418382e-19 -2.3477904251759168e-18 1.0
  outer loop
    vertex 7.550000000000003 5.550000000000001 3.0
    vertex 1.9999999999999998 2.2499999999999996 3.0
    vertex 10.7 2.250000000000001 3.0
  endloop
endfacet
facet normal -2.2100265730418382e-19 -2.3477904251759168e-18 1.0
  outer loop
    vertex 7.550000000000003 5.550000000000001 3.0
    vertex 10.7 2.250000000000001 3.0
    vertex 10.7 5.55 3.0
  endloop
endfacet
facet normal -2.2100265730418382e-19 -2.3477904251759168e-18 1.0
  outer loop
    vertex 41.3 2.2499999999999996 3.0
    vertex 35.300000000000004 5.5499999999999945 3.0
    vertex 35.3 2.2500000000000013 3.0
  endloop
endfacet
facet normal -2.2100265730418382e-19 -2.3477904251759168e-18 1.0
  outer loop
    vertex 35.300000000000004 5.5499999999999945 3.0
    vertex 41.3 2.2499999999999996 3.0
    vertex 40.050000000000004 5.549999999999997 3.0
  endloop
endfacet
facet normal -2.2100265730418382e-19 -2.3477904251759168e-18 1.0
  outer loop
    vertex 40.050000000000004 5.549999999999997 3.0
    vertex 41.3 2.2499999999999996 3.0
    vertex 40.050000000000004 35.45 3.0
  endloop
endfacet
facet normal -2.2100265730418382e-19 -2.3477904251759168e-18 1.0
  outer loop
    vertex 28.799999999999997 35.45 3.0
    vertex 32.199999999999996 35.55 3.0
    vertex 28.799999999999997 37.0 3.0
  endloop
endfacet
facet normal -2.2100265730418382e-19 -2.3477904251759168e-18 1.0
  outer loop
    vertex 32.199999999999996 35.55 3.0
    vertex 28.799999999999997 35.45 3.0
    vertex 40.050000000000004 35.45 3.0
  endloop
endfacet
facet normal -2.2100265730418382e-19 -2.3477904251759168e-18 1.0
  outer loop
    vertex 32.199999999999996 35.55 3.0
    vertex 40.050000000000004 35.45 3.0
    vertex 35.3 35.55 3.0
  endloop
endfacet
facet normal -2.2100265730418382e-19 -2.3477904251759168e-18 1.0
  outer loop
    vertex 35.3 35.55 3.0
    vertex 40.050000000000004 35.45 3.0
    vertex 35.3 38.75 3.0
  endloop
endfacet
facet normal -2.2100265730418382e-19 -2.3477904251759168e-18 1.0
  outer loop
    vertex 35.3 38.75 3.0
    vertex 40.050000000000004 35.45 3.0
    vertex 41.3 38.75 3.0
  endloop
endfacet
facet normal -2.2100265730418382e-19 -2.3477904251759168e-18 1.0
  outer loop
    vertex 41.3 38.75 3.0
    vertex 40.050000000000004 35.45 3.0
    vertex 41.3 2.2499999999999996 3.0
  endloop
endfacet
facet normal -2.2100265730418382e-19 -2.3477904251759168e-18 1.0
  outer loop
    vertex 18.8 35.45 3.0
    vertex 10.7 35.55 3.0
    vertex 7.550000000000003 35.45 3.0
  endloop
endfacet
facet normal -2.2100265730418382e-19 -2.3477904251759168e-18 1.0
  outer loop
    vertex 10.7 35.55 3.0
    vertex 18.8 35.45 3.0
    vertex 13.8 35.55 3.0
  endloop
endfacet
facet normal -2.2100265730418382e-19 -2.3477904251759168e-18 1.0
  outer loop
    vertex 13.8 35.55 3.0
    vertex 18.8 35.45 3.0
    vertex 13.8 38.75 3.0
  endloop
endfacet
facet normal -2.2100265730418382e-19 -2.3477904251759168e-18 1.0
  outer loop
    vertex 13.8 38.75 3.0
    vertex 18.8 35.45 3.0
    vertex 18.8 37.0 3.0
  endloop
endfacet
facet normal -2.2100265730418382e-19 -2.3477904251759168e-18 1.0
  outer loop
    vertex 13.8 38.75 3.0
    vertex 18.8 37.0 3.0
    vertex 32.199999999999996 38.75 3.0
  endloop
endfacet
facet normal -2.2100265730418382e-19 -2.3477904251759168e-18 1.0
  outer loop
    vertex 32.199999999999996 38.75 3.0
    vertex 18.8 37.0 3.0
    vertex 28.799999999999997 37.0 3.0
  endloop
endfacet
facet normal -2.2100265730418382e-19 -2.3477904251759168e-18 1.0
  outer loop
    vertex 32.199999999999996 38.75 3.0
    vertex 28.799999999999997 37.0 3.0
    vertex 32.199999999999996 35.55 3.0
  endloop
endfacet
facet normal -2.2100265730418382e-19 -2.3477904251759168e-18 1.0
  outer loop
    vertex 2.0 38.75 3.0
    vertex 7.550000000000003 35.45 3.0
    vertex 10.7 38.75 3.0
  endloop
endfacet
facet normal -2.2100265730418382e-19 -2.3477904251759168e-18 1.0
  outer loop
    vertex 7.550000000000003 35.45 3.0
    vertex 2.0 38.75 3.0
    vertex 7.550000000000003 5.550000000000001 3.0
  endloop
endfacet
facet normal -2.2100265730418382e-19 -2.3477904251759168e-18 1.0
  outer loop
    vertex 10.7 38.75 3.0
    vertex 7.550000000000003 35.45 3.0
    vertex 10.7 35.55 3.0
  endloop
endfacet
endsolid as7262x_handheld_top_button_laydown_v2
