solid as7265x_handheld_top_button_cover
facet normal 0.0 -1.0 0.0
  outer loop
    vertex 12.7 4.5 3.0
    vertex 7.550000000000003 4.5 5.999999999999999
    vertex 7.550000000000003 4.5 3.0
  endloop
endfacet
facet normal 0.0 -1.0 0.0
  outer loop
    vertex 7.550000000000003 4.5 5.999999999999999
    vertex 12.7 4.5 3.0
    vertex 12.7 4.5 5.999999999999999
  endloop
endfacet
facet normal -1.0 -0.0 -0.0
  outer loop
    vertex 7.550000000000003 37.0 5.999999999999999
    vertex 7.550000000000003 4.5 3.0
    vertex 7.550000000000003 4.5 5.999999999999999
  endloop
endfacet
facet normal -1.0 -0.0 -0.0
  outer loop
    vertex 7.550000000000003 4.5 3.0
    vertex 7.550000000000003 37.0 5.999999999999999
    vertex 7.550000000000003 37.0 3.0
  endloop
endfacet
facet normal 9.283584611391149e-17 9.47996246741802e-18 1.0
  outer loop
    vertex 15.799999999999999 7.699999999999998 5.999999999999999
    vertex 12.7 33.3 5.999999999999999
    vertex 12.7 7.699999999999998 5.999999999999999
  endloop
endfacet
facet normal 9.283584611391149e-17 9.47996246741802e-18 1.0
  outer loop
    vertex 12.7 33.3 5.999999999999999
    vertex 15.799999999999999 7.699999999999998 5.999999999999999
    vertex 15.799999999999999 33.3 5.999999999999999
  endloop
endfacet
facet normal 9.283584611391149e-17 9.47996246741802e-18 1.0
  outer loop
    vertex 15.799999999999999 33.3 5.999999999999999
    vertex 15.799999999999999 7.699999999999998 5.999999999999999
    vertex 18.8 7.6999999999999975 5.999999999999998
  endloop
endfacet
facet normal 9.283584611391149e-17 9.47996246741802e-18 1.0
  outer loop
    vertex 15.799999999999999 33.3 5.999999999999999
    vertex 18.8 7.6999999999999975 5.999999999999998
    vertex 15.799999999999999 33.49999999999999 5.999999999999997
  endloop
endfacet
facet normal 9.283584611391149e-17 9.47996246741802e-18 1.0
  outer loop
    vertex 15.799999999999999 33.49999999999999 5.999999999999997
    vertex 18.8 7.6999999999999975 5.999999999999998
    vertex 18.8 33.49999999999999 5.999999999999997
  endloop
endfacet
facet normal 9.283584611391149e-17 9.47996246741802e-18 1.0
  outer loop
    vertex 18.8 33.49999999999999 5.999999999999997
    vertex 18.8 7.6999999999999975 5.999999999999998
    vertex 18.8 10.699999999999998 5.999999999999998
  endloop
endfacet
facet normal 9.283584611391149e-17 9.47996246741802e-18 1.0
  outer loop
    vertex 18.8 33.49999999999999 5.999999999999997
    vertex 18.8 10.699999999999998 5.999999999999998
    vertex 18.8 30.499999999999996 5.999999999999997
  endloop
endfacet
facet normal 9.283584611391149e-17 9.47996246741802e-18 1.0
  outer loop
    vertex 12.7 4.5 5.999999999999999
    vertex 7.550000000000003 37.0 5.999999999999999
    vertex 7.550000000000003 4.5 5.999999999999999
  endloop
endfacet
facet normal 9.283584611391149e-17 9.47996246741802e-18 1.0
  outer loop
    vertex 7.550000000000003 37.0 5.999999999999999
    vertex 12.7 4.5 5.999999999999999
    vertex 12.7 37.0 5.999999999999999
  endloop
endfacet
facet normal 9.283584611391149e-17 9.47996246741802e-18 1.0
  outer loop
    vertex 12.7 37.0 5.999999999999999
    vertex 12.7 4.5 5.999999999999999
    vertex 12.7 7.699999999999998 5.999999999999999
  endloop
endfacet
facet normal 9.283584611391149e-17 9.47996246741802e-18 1.0
  outer loop
    vertex 12.7 37.0 5.999999999999999
    vertex 12.7 7.699999999999998 5.999999999999999
    vertex 12.7 33.3 5.999999999999999
  endloop
endfacet
facet normal 1.0 -0.0 -0.0
  outer loop
    vertex 18.8 30.499999999999996 3.0
    vertex 18.8 10.699999999999998 5.999999999999998
    vertex 18.8 10.699999999999998 2.9999999999999982
  endloop
endfacet
facet normal 1.0 -0.0 -0.0
  outer loop
    vertex 18.8 10.699999999999998 5.999999999999998
    vertex 18.8 30.499999999999996 3.0
    vertex 18.8 30.499999999999996 5.999999999999997
  endloop
endfacet
facet normal 1.0 -0.0 -0.0
  outer loop
    vertex 18.8 37.0 3.0
    vertex 18.8 30.499999999999996 5.999999999999997
    vertex 18.8 30.499999999999996 3.0
  endloop
endfacet
facet normal 1.0 -0.0 -0.0
  outer loop
    vertex 18.8 30.499999999999996 5.999999999999997
    vertex 18.8 37.0 3.0
    vertex 18.8 33.49999999999999 5.999999999999997
  endloop
endfacet
facet normal 1.0 -0.0 -0.0
  outer loop
    vertex 18.8 33.49999999999999 5.999999999999997
    vertex 18.8 37.0 3.0
    vertex 18.8 37.0 5.999999999999997
  endloop
endfacet
facet normal -9.399888275159657e-16 1.0 9.399888275159665e-16
  outer loop
    vertex 15.799999999999999 36.99999999999999 5.999999999999997
    vertex 18.8 37.0 3.0
    vertex 15.799999999999999 37.0 3.0
  endloop
endfacet
facet normal -9.399888275159657e-16 1.0 9.399888275159665e-16
  outer loop
    vertex 18.8 37.0 3.0
    vertex 15.799999999999999 36.99999999999999 5.999999999999997
    vertex 18.8 37.0 5.999999999999997
  endloop
endfacet
facet normal -0.0 1.0 -0.0
  outer loop
    vertex 7.550000000000003 37.0 5.999999999999999
    vertex 12.7 37.0 3.0
    vertex 7.550000000000003 37.0 3.0
  endloop
endfacet
facet normal -0.0 1.0 -0.0
  outer loop
    vertex 12.7 37.0 3.0
    vertex 7.550000000000003 37.0 5.999999999999999
    vertex 12.7 37.0 5.999999999999999
  endloop
endfacet
facet normal 2.349972068789914e-16 -1.0 0.0
  outer loop
    vertex 18.8 4.499999999999999 5.999999999999997
    vertex 15.799999999999999 4.499999999999999 3.0
    vertex 18.8 4.499999999999999 3.0
  endloop
endfacet
facet normal 2.349972068789914e-16 -1.0 0.0
  outer loop
    vertex 15.799999999999999 4.499999999999999 3.0
    vertex 18.8 4.499999999999999 5.999999999999997
    vertex 15.799999999999999 4.499999999999999 5.999999999999997
  endloop
endfacet
facet normal -1.0 0.0 0.0
  outer loop
    vertex 15.799999999999999 33.49999999999999 5.999999999999997
    vertex 15.799999999999999 33.3 3.0
    vertex 15.799999999999999 33.3 5.999999999999999
  endloop
endfacet
facet normal -1.0 0.0 0.0
  outer loop
    vertex 15.799999999999999 33.3 3.0
    vertex 15.799999999999999 33.49999999999999 5.999999999999997
    vertex 15.799999999999999 37.0 3.0
  endloop
endfacet
facet normal -1.0 0.0 0.0
  outer loop
    vertex 15.799999999999999 37.0 3.0
    vertex 15.799999999999999 33.49999999999999 5.999999999999997
    vertex 15.799999999999999 36.99999999999999 5.999999999999997
  endloop
endfacet
facet normal -0.0 1.0 -0.0
  outer loop
    vertex 12.7 33.3 5.999999999999999
    vertex 15.799999999999999 33.3 3.0
    vertex 12.7 33.3 3.0
  endloop
endfacet
facet normal -0.0 1.0 -0.0
  outer loop
    vertex 15.799999999999999 33.3 3.0
    vertex 12.7 33.3 5.999999999999999
    vertex 15.799999999999999 33.3 5.999999999999999
  endloop
endfacet
facet normal 1.0 -0.0 -0.0
  outer loop
    vertex 12.7 7.699999999999998 3.0
    vertex 12.7 4.5 5.999999999999999
    vertex 12.7 4.5 3.0
  endloop
endfacet
facet normal 1.0 -0.0 -0.0
  outer loop
    vertex 12.7 4.5 5.999999999999999
    vertex 12.7 7.699999999999998 3.0
    vertex 12.7 7.699999999999998 5.999999999999999
  endloop
endfacet
facet normal 0.0 -1.0 0.0
  outer loop
    vertex 15.799999999999999 7.699999999999998 3.0000000000000004
    vertex 12.7 7.699999999999998 5.999999999999999
    vertex 12.7 7.699999999999998 3.0
  endloop
endfacet
facet normal 0.0 -1.0 0.0
  outer loop
    vertex 12.7 7.699999999999998 5.999999999999999
    vertex 15.799999999999999 7.699999999999998 3.0000000000000004
    vertex 15.799999999999999 7.699999999999998 5.999999999999999
  endloop
endfacet
facet normal -1.0 0.0 0.0
  outer loop
    vertex 15.799999999999999 7.699999999999998 5.999999999999999
    vertex 15.799999999999999 4.499999999999999 3.0
    vertex 15.799999999999999 4.499999999999999 5.999999999999997
  endloop
endfacet
facet normal -1.0 0.0 0.0
  outer loop
    vertex 15.799999999999999 4.499999999999999 3.0
    vertex 15.799999999999999 7.699999999999998 5.999999999999999
    vertex 15.799999999999999 7.699999999999998 3.0000000000000004
  endloop
endfacet
facet normal 1.0 -0.0 -0.0
  outer loop
    vertex 12.7 37.0 3.0
    vertex 12.7 33.3 5.999999999999999
    vertex 12.7 33.3 3.0
  endloop
endfacet
facet normal 1.0 -0.0 -0.0
  outer loop
    vertex 12.7 33.3 5.999999999999999
    vertex 12.7 37.0 3.0
    vertex 12.7 37.0 5.999999999999999
  endloop
endfacet
facet normal -1.2392003268149274e-17 1.8473543252556122e-19 -1.0
  outer loop
    vertex 18.8 37.0 3.0
    vertex 15.799999999999999 33.3 3.0
    vertex 15.799999999999999 37.0 3.0
  endloop
endfacet
facet normal -1.2392003268149274e-17 1.8473543252556122e-19 -1.0
  outer loop
    vertex 15.799999999999999 33.3 3.0
    vertex 18.8 37.0 3.0
    vertex 15.799999999999999 7.699999999999998 3.0000000000000004
  endloop
endfacet
facet normal -1.2392003268149274e-17 1.8473543252556122e-19 -1.0
  outer loop
    vertex 15.799999999999999 7.699999999999998 3.0000000000000004
    vertex 18.8 37.0 3.0
    vertex 15.799999999999999 4.499999999999999 3.0
  endloop
endfacet
facet normal -1.2392003268149274e-17 1.8473543252556122e-19 -1.0
  outer loop
    vertex 15.799999999999999 4.499999999999999 3.0
    vertex 18.8 37.0 3.0
    vertex 18.8 4.499999999999999 3.0
  endloop
endfacet
facet normal -1.2392003268149274e-17 1.8473543252556122e-19 -1.0
  outer loop
    vertex 18.8 4.499999999999999 3.0
    vertex 18.8 37.0 3.0
    vertex 18.8 30.499999999999996 3.0
  endloop
endfacet
facet normal -1.2392003268149274e-17 1.8473543252556122e-19 -1.0
  outer loop
    vertex 18.8 4.499999999999999 3.0
    vertex 18.8 30.499999999999996 3.0
    vertex 18.8 10.699999999999998 2.9999999999999982
  endloop
endfacet
facet normal -1.2392003268149274e-17 1.8473543252556122e-19 -1.0
  outer loop
    vertex 15.799999999999999 33.3 3.0
    vertex 12.7 7.699999999999998 3.0
    vertex 12.7 33.3 3.0
  endloop
endfacet
facet normal -1.2392003268149274e-17 1.8473543252556122e-19 -1.0
  outer loop
    vertex 12.7 7.699999999999998 3.0
    vertex 15.799999999999999 33.3 3.0
    vertex 15.799999999999999 7.699999999999998 3.0000000000000004
  endloop
endfacet
facet normal -1.2392003268149274e-17 1.8473543252556122e-19 -1.0
  outer loop
    vertex 12.7 37.0 3.0
    vertex 7.550000000000003 4.5 3.0
    vertex 7.550000000000003 37.0 3.0
  endloop
endfacet
facet normal -1.2392003268149274e-17 1.8473543252556122e-19 -1.0
  outer loop
    vertex 7.550000000000003 4.5 3.0
    vertex 12.7 37.0 3.0
    vertex 12.7 4.5 3.0
  endloop
endfacet
facet normal -1.2392003268149274e-17 1.8473543252556122e-19 -1.0
  outer loop
    vertex 12.7 4.5 3.0
    vertex 12.7 37.0 3.0
    vertex 12.7 33.3 3.0
  endloop
endfacet
facet normal -1.2392003268149274e-17 1.8473543252556122e-19 -1.0
  outer loop
    vertex 12.7 4.5 3.0
    vertex 12.7 33.3 3.0
    vertex 12.7 7.699999999999998 3.0
  endloop
endfacet
facet normal -1.057487430955462e-15 1.1028399079176622e-33 -1.0
  outer loop
    vertex 20.799999999999997 36.99999999999999 2.9999999999999982
    vertex 18.8 30.499999999999996 3.0
    vertex 18.8 37.0 3.0
  endloop
endfacet
facet normal -1.057487430955462e-15 1.1028399079176622e-33 -1.0
  outer loop
    vertex 18.8 30.499999999999996 3.0
    vertex 20.799999999999997 36.99999999999999 2.9999999999999982
    vertex 20.799999999999997 30.499999999999996 2.9999999999999982
  endloop
endfacet
facet normal 1.0 0.0 0.0
  outer loop
    vertex 20.799999999999997 36.99999999999999 2.9999999999999982
    vertex 20.799999999999997 30.499999999999996 5.999999999999997
    vertex 20.799999999999997 30.499999999999996 2.9999999999999982
  endloop
endfacet
facet normal 1.0 0.0 0.0
  outer loop
    vertex 20.799999999999997 30.499999999999996 5.999999999999997
    vertex 20.799999999999997 36.99999999999999 2.9999999999999982
    vertex 20.799999999999997 36.99999999999999 5.999999999999997
  endloop
endfacet
facet normal -0.0 -0.0 1.0
  outer loop
    vertex 20.799999999999997 30.499999999999996 5.999999999999997
    vertex 18.8 33.49999999999999 5.999999999999997
    vertex 18.8 30.499999999999996 5.999999999999997
  endloop
endfacet
facet normal -0.0 -0.0 1.0
  outer loop
    vertex 18.8 33.49999999999999 5.999999999999997
    vertex 20.799999999999997 30.499999999999996 5.999999999999997
    vertex 18.8 37.0 5.999999999999997
  endloop
endfacet
facet normal -0.0 -0.0 1.0
  outer loop
    vertex 18.8 37.0 5.999999999999997
    vertex 20.799999999999997 30.499999999999996 5.999999999999997
    vertex 20.799999999999997 36.99999999999999 5.999999999999997
  endloop
endfacet
facet normal -0.0 -0.0 1.0
  outer loop
    vertex 18.8 33.49999999999999 5.999999999999997
    vertex 15.799999999999999 36.99999999999999 5.999999999999997
    vertex 15.799999999999999 33.49999999999999 5.999999999999997
  endloop
endfacet
facet normal -0.0 -0.0 1.0
  outer loop
    vertex 15.799999999999999 36.99999999999999 5.999999999999997
    vertex 18.8 33.49999999999999 5.999999999999997
    vertex 18.8 37.0 5.999999999999997
  endloop
endfacet
facet normal 1.1749860343949569e-16 -3.30464822173582e-16 1.0
  outer loop
    vertex 18.8 4.499999999999999 5.999999999999997
    vertex 15.799999999999999 7.699999999999998 5.999999999999999
    vertex 15.799999999999999 4.499999999999999 5.999999999999997
  endloop
endfacet
facet normal 1.1749860343949569e-16 -3.30464822173582e-16 1.0
  outer loop
    vertex 15.799999999999999 7.699999999999998 5.999999999999999
    vertex 18.8 4.499999999999999 5.999999999999997
    vertex 18.8 7.6999999999999975 5.999999999999998
  endloop
endfacet
facet normal -7.049916206369748e-16 -1.7056248886378411e-16 -1.0
  outer loop
    vertex 20.799999999999997 10.699999999999998 2.999999999999998
    vertex 18.8 4.499999999999999 3.0
    vertex 18.8 10.699999999999998 2.9999999999999982
  endloop
endfacet
facet normal -7.049916206369748e-16 -1.7056248886378411e-16 -1.0
  outer loop
    vertex 18.8 4.499999999999999 3.0
    vertex 20.799999999999997 10.699999999999998 2.999999999999998
    vertex 20.799999999999997 4.499999999999997 2.999999999999998
  endloop
endfacet
facet normal 1.0 -0.0 -0.0
  outer loop
    vertex 20.799999999999997 10.699999999999998 2.999999999999998
    vertex 20.799999999999997 4.499999999999997 5.999999999999998
    vertex 20.799999999999997 4.499999999999997 2.999999999999998
  endloop
endfacet
facet normal 1.0 -0.0 -0.0
  outer loop
    vertex 20.799999999999997 4.499999999999997 5.999999999999998
    vertex 20.799999999999997 10.699999999999998 2.999999999999998
    vertex 20.799999999999997 10.699999999999998 5.999999999999998
  endloop
endfacet
facet normal 1.0 -0.0 -0.0
  outer loop
    vertex 18.8 10.699999999999998 2.9999999999999982
    vertex 18.8 4.499999999999999 5.999999999999997
    vertex 18.8 4.499999999999999 3.0
  endloop
endfacet
facet normal 1.0 -0.0 -0.0
  outer loop
    vertex 18.8 4.499999999999999 5.999999999999997
    vertex 18.8 10.699999999999998 2.9999999999999982
    vertex 18.8 7.6999999999999975 5.999999999999998
  endloop
endfacet
facet normal 1.0 -0.0 -0.0
  outer loop
    vertex 18.8 7.6999999999999975 5.999999999999998
    vertex 18.8 10.699999999999998 2.9999999999999982
    vertex 18.8 10.699999999999998 5.999999999999998
  endloop
endfacet
facet normal 0.0 -1.0 0.0
  outer loop
    vertex 20.799999999999997 30.499999999999996 5.999999999999997
    vertex 18.8 30.499999999999996 3.0
    vertex 20.799999999999997 30.499999999999996 2.9999999999999982
  endloop
endfacet
facet normal 0.0 -1.0 0.0
  outer loop
    vertex 18.8 30.499999999999996 3.0
    vertex 20.799999999999997 30.499999999999996 5.999999999999997
    vertex 18.8 30.499999999999996 5.999999999999997
  endloop
endfacet
facet normal -0.0 1.0 -0.0
  outer loop
    vertex 18.8 10.699999999999998 2.9999999999999982
    vertex 20.799999999999997 10.699999999999998 5.999999999999998
    vertex 20.799999999999997 10.699999999999998 2.999999999999998
  endloop
endfacet
facet normal -0.0 1.0 -0.0
  outer loop
    vertex 20.799999999999997 10.699999999999998 5.999999999999998
    vertex 18.8 10.699999999999998 2.9999999999999982
    vertex 18.8 10.699999999999998 5.999999999999998
  endloop
endfacet
facet normal -1.1845619566450983e-16 -5.745553350084583e-17 1.0
  outer loop
    vertex 20.799999999999997 4.499999999999997 5.999999999999998
    vertex 18.8 7.6999999999999975 5.999999999999998
    vertex 18.8 4.499999999999999 5.999999999999997
  endloop
endfacet
facet normal -1.1845619566450983e-16 -5.745553350084583e-17 1.0
  outer loop
    vertex 18.8 7.6999999999999975 5.999999999999998
    vertex 20.799999999999997 4.499999999999997 5.999999999999998
    vertex 18.8 10.699999999999998 5.999999999999998
  endloop
endfacet
facet normal -1.1845619566450983e-16 -5.745553350084583e-17 1.0
  outer loop
    vertex 18.8 10.699999999999998 5.999999999999998
    vertex 20.799999999999997 4.499999999999997 5.999999999999998
    vertex 20.799999999999997 10.699999999999998 5.999999999999998
  endloop
endfacet
facet normal -1.0574874309554622e-15 -1.0 -1.0437924041120183e-31
  outer loop
    vertex 18.8 4.499999999999999 5.999999999999997
    vertex 18.8 4.499999999999999 3.0
    vertex 20.799999999999997 4.499999999999997 2.999999999999998
  endloop
endfacet
facet normal -1.0574874309554618e-15 -1.0 0.0
  outer loop
    vertex 20.799999999999997 4.499999999999997 5.999999999999998
    vertex 18.8 4.499999999999999 5.999999999999997
    vertex 20.799999999999997 4.499999999999997 2.999999999999998
  endloop
endfacet
facet normal 2.819966482547899e-15 1.0 2.0875848082240366e-31
  outer loop
    vertex 18.8 37.0 5.999999999999997
    vertex 20.799999999999997 36.99999999999999 2.9999999999999982
    vertex 18.8 37.0 3.0
  endloop
endfacet
facet normal 2.8199664825478982e-15 1.0 -4.175169616448065e-31
  outer loop
    vertex 20.799999999999997 36.99999999999999 5.999999999999997
    vertex 20.799999999999997 36.99999999999999 2.9999999999999982
    vertex 18.8 37.0 5.999999999999997
  endloop
endfacet
facet normal -6.168676680573528e-16 6.230986546033866e-17 -1.0
  outer loop
    vertex 20.799999999999997 30.499999999999996 2.9999999999999982
    vertex 18.8 10.699999999999998 2.9999999999999982
    vertex 18.8 30.499999999999996 3.0
  endloop
endfacet
facet normal -6.168676680573528e-16 6.230986546033866e-17 -1.0
  outer loop
    vertex 18.8 10.699999999999998 2.9999999999999982
    vertex 20.799999999999997 30.499999999999996 2.9999999999999982
    vertex 20.799999999999997 10.699999999999998 2.999999999999998
  endloop
endfacet
facet normal 0.8320502943378438 3.4692759942177203e-18 0.5547001962252291
  outer loop
    vertex 20.799999999999997 10.699999999999998 2.999999999999998
    vertex 18.8 4.499999999999999 5.999999999999997
    vertex 20.799999999999997 4.499999999999997 2.999999999999998
  endloop
endfacet
facet normal 0.8320502943378438 3.4692759942177203e-18 0.5547001962252291
  outer loop
    vertex 18.8 4.499999999999999 5.999999999999997
    vertex 20.799999999999997 10.699999999999998 2.999999999999998
    vertex 18.8 7.6999999999999975 5.999999999999998
  endloop
endfacet
facet normal 0.8320502943378438 3.4692759942177203e-18 0.5547001962252291
  outer loop
    vertex 18.8 7.6999999999999975 5.999999999999998
    vertex 20.799999999999997 10.699999999999998 2.999999999999998
    vertex 18.8 10.699999999999998 5.999999999999998
  endloop
endfacet
facet normal 0.8320502943378438 3.4692759942177203e-18 0.5547001962252291
  outer loop
    vertex 18.8 10.699999999999998 5.999999999999998
    vertex 20.799999999999997 10.699999999999998 2.999999999999998
    vertex 20.799999999999997 30.499999999999996 2.9999999999999982
  endloop
endfacet
facet normal 0.8320502943378438 3.4692759942177203e-18 0.5547001962252291
  outer loop
    vertex 18.8 10.699999999999998 5.999999999999998
    vertex 20.799999999999997 30.499999999999996 2.9999999999999982
    vertex 18.8 30.499999999999996 5.999999999999997
  endloop
endfacet
facet normal 0.8320502943378438 3.4692759942177203e-18 0.5547001962252291
  outer loop
    vertex 18.8 30.499999999999996 5.999999999999997
    vertex 20.799999999999997 30.499999999999996 2.9999999999999982
    vertex 20.799999999999997 36.99999999999999 2.9999999999999982
  endloop
endfacet
facet normal 0.8320502943378438 3.4692759942177203e-18 0.5547001962252291
  outer loop
    vertex 18.8 30.499999999999996 5.999999999999997
    vertex 20.799999999999997 36.99999999999999 2.9999999999999982
    vertex 18.8 33.49999999999999 5.999999999999997
  endloop
endfacet
facet normal 0.8320502943378438 3.4692759942177203e-18 0.5547001962252291
  outer loop
    vertex 18.8 33.49999999999999 5.999999999999997
    vertex 20.799999999999997 36.99999999999999 2.9999999999999982
    vertex 18.8 37.0 5.999999999999997
  endloop
endfacet
facet normal 1.0 -0.0 -0.0
  outer loop
    vertex 20.799999999999997 30.499999999999996 2.9999999999999982
    vertex 20.799999999999997 10.699999999999998 5.999999999999998
    vertex 20.799999999999997 10.699999999999998 2.999999999999998
  endloop
endfacet
facet normal 1.0 -0.0 -0.0
  outer loop
    vertex 20.799999999999997 10.699999999999998 5.999999999999998
    vertex 20.799999999999997 30.499999999999996 2.9999999999999982
    vertex 20.799999999999997 30.499999999999996 5.999999999999997
  endloop
endfacet
facet normal -0.0 3.5605637405907806e-17 1.0
  outer loop
    vertex 20.799999999999997 10.699999999999998 5.999999999999998
    vertex 18.8 30.499999999999996 5.999999999999997
    vertex 18.8 10.699999999999998 5.999999999999998
  endloop
endfacet
facet normal -0.0 3.5605637405907806e-17 1.0
  outer loop
    vertex 18.8 30.499999999999996 5.999999999999997
    vertex 20.799999999999997 10.699999999999998 5.999999999999998
    vertex 20.799999999999997 30.499999999999996 5.999999999999997
  endloop
endfacet
endsolid as7265x_handheld_top_button_cover
