<?xml version="1.0" encoding="utf-8" standalone="no"?>
<!DOCTYPE svg PUBLIC "-//W3C//DTD SVG 1.1//EN"
  "http://www.w3.org/Graphics/SVG/1.1/DTD/svg11.dtd">
<svg xmlns:xlink="http://www.w3.org/1999/xlink" width="460.8pt" height="345.6pt" viewBox="0 0 460.8 345.6" xmlns="http://www.w3.org/2000/svg" version="1.1">
 <metadata>
  <rdf:RDF xmlns:dc="http://purl.org/dc/elements/1.1/" xmlns:cc="http://creativecommons.org/ns#" xmlns:rdf="http://www.w3.org/1999/02/22-rdf-syntax-ns#">
   <cc:Work>
    <dc:type rdf:resource="http://purl.org/dc/dcmitype/StillImage"/>
    <dc:date>2024-04-06T09:31:06.330719</dc:date>
    <dc:format>image/svg+xml</dc:format>
    <dc:creator>
     <cc:Agent>
      <dc:title>Matplotlib v3.8.3, https://matplotlib.org/</dc:title>
     </cc:Agent>
    </dc:creator>
   </cc:Work>
  </rdf:RDF>
 </metadata>
 <defs>
  <style type="text/css">*{stroke-linejoin: round; stroke-linecap: butt}</style>
 </defs>
 <g id="figure_1">
  <g id="patch_1">
   <path d="M 0 345.6 
L 460.8 345.6 
L 460.8 0 
L 0 0 
z
" style="fill: #ffffff"/>
  </g>
  <g id="axes_1">
   <g id="patch_2">
    <path d="M 28.25 254.9664 
L 450 254.9664 
L 450 25.44 
L 28.25 25.44 
z
" style="fill: #eaeaf2"/>
   </g>
   <g id="table_1">
    <g id="patch_3">
     <path d="M 70.425 289.39536 
L 124.65 289.39536 
L 124.65 277.91904 
L 70.425 277.91904 
z
" style="fill: #ffffff; stroke: #000000; stroke-linejoin: miter"/>
    </g>
    <g id="text_1">
     <!-- Source -->
     <g style="fill: #262626" transform="translate(81.696094 286.242356) scale(0.1 -0.1)">
      <defs>
       <path id="ArialMT-53" d="M 288 1472 
L 859 1522 
Q 900 1178 1048 958 
Q 1197 738 1509 602 
Q 1822 466 2213 466 
Q 2559 466 2825 569 
Q 3091 672 3220 851 
Q 3350 1031 3350 1244 
Q 3350 1459 3225 1620 
Q 3100 1781 2813 1891 
Q 2628 1963 1997 2114 
Q 1366 2266 1113 2400 
Q 784 2572 623 2826 
Q 463 3081 463 3397 
Q 463 3744 659 4045 
Q 856 4347 1234 4503 
Q 1613 4659 2075 4659 
Q 2584 4659 2973 4495 
Q 3363 4331 3572 4012 
Q 3781 3694 3797 3291 
L 3216 3247 
Q 3169 3681 2898 3903 
Q 2628 4125 2100 4125 
Q 1550 4125 1298 3923 
Q 1047 3722 1047 3438 
Q 1047 3191 1225 3031 
Q 1400 2872 2139 2705 
Q 2878 2538 3153 2413 
Q 3553 2228 3743 1945 
Q 3934 1663 3934 1294 
Q 3934 928 3725 604 
Q 3516 281 3123 101 
Q 2731 -78 2241 -78 
Q 1619 -78 1198 103 
Q 778 284 539 648 
Q 300 1013 288 1472 
z
" transform="scale(0.015625)"/>
       <path id="ArialMT-6f" d="M 213 1659 
Q 213 2581 725 3025 
Q 1153 3394 1769 3394 
Q 2453 3394 2887 2945 
Q 3322 2497 3322 1706 
Q 3322 1066 3130 698 
Q 2938 331 2570 128 
Q 2203 -75 1769 -75 
Q 1072 -75 642 372 
Q 213 819 213 1659 
z
M 791 1659 
Q 791 1022 1069 705 
Q 1347 388 1769 388 
Q 2188 388 2466 706 
Q 2744 1025 2744 1678 
Q 2744 2294 2464 2611 
Q 2184 2928 1769 2928 
Q 1347 2928 1069 2612 
Q 791 2297 791 1659 
z
" transform="scale(0.015625)"/>
       <path id="ArialMT-75" d="M 2597 0 
L 2597 488 
Q 2209 -75 1544 -75 
Q 1250 -75 995 37 
Q 741 150 617 320 
Q 494 491 444 738 
Q 409 903 409 1263 
L 409 3319 
L 972 3319 
L 972 1478 
Q 972 1038 1006 884 
Q 1059 663 1231 536 
Q 1403 409 1656 409 
Q 1909 409 2131 539 
Q 2353 669 2445 892 
Q 2538 1116 2538 1541 
L 2538 3319 
L 3100 3319 
L 3100 0 
L 2597 0 
z
" transform="scale(0.015625)"/>
       <path id="ArialMT-72" d="M 416 0 
L 416 3319 
L 922 3319 
L 922 2816 
Q 1116 3169 1280 3281 
Q 1444 3394 1641 3394 
Q 1925 3394 2219 3213 
L 2025 2691 
Q 1819 2813 1613 2813 
Q 1428 2813 1281 2702 
Q 1134 2591 1072 2394 
Q 978 2094 978 1738 
L 978 0 
L 416 0 
z
" transform="scale(0.015625)"/>
       <path id="ArialMT-63" d="M 2588 1216 
L 3141 1144 
Q 3050 572 2676 248 
Q 2303 -75 1759 -75 
Q 1078 -75 664 370 
Q 250 816 250 1647 
Q 250 2184 428 2587 
Q 606 2991 970 3192 
Q 1334 3394 1763 3394 
Q 2303 3394 2647 3120 
Q 2991 2847 3088 2344 
L 2541 2259 
Q 2463 2594 2264 2762 
Q 2066 2931 1784 2931 
Q 1359 2931 1093 2626 
Q 828 2322 828 1663 
Q 828 994 1084 691 
Q 1341 388 1753 388 
Q 2084 388 2306 591 
Q 2528 794 2588 1216 
z
" transform="scale(0.015625)"/>
       <path id="ArialMT-65" d="M 2694 1069 
L 3275 997 
Q 3138 488 2766 206 
Q 2394 -75 1816 -75 
Q 1088 -75 661 373 
Q 234 822 234 1631 
Q 234 2469 665 2931 
Q 1097 3394 1784 3394 
Q 2450 3394 2872 2941 
Q 3294 2488 3294 1666 
Q 3294 1616 3291 1516 
L 816 1516 
Q 847 969 1125 678 
Q 1403 388 1819 388 
Q 2128 388 2347 550 
Q 2566 713 2694 1069 
z
M 847 1978 
L 2700 1978 
Q 2663 2397 2488 2606 
Q 2219 2931 1791 2931 
Q 1403 2931 1139 2672 
Q 875 2413 847 1978 
z
" transform="scale(0.015625)"/>
      </defs>
      <use xlink:href="#ArialMT-53"/>
      <use xlink:href="#ArialMT-6f" x="66.699219"/>
      <use xlink:href="#ArialMT-75" x="122.314453"/>
      <use xlink:href="#ArialMT-72" x="177.929688"/>
      <use xlink:href="#ArialMT-63" x="211.230469"/>
      <use xlink:href="#ArialMT-65" x="261.230469"/>
     </g>
    </g>
    <g id="patch_4">
     <path d="M 124.65 289.39536 
L 178.875 289.39536 
L 178.875 277.91904 
L 124.65 277.91904 
z
" style="fill: #ffffff; stroke: #000000; stroke-linejoin: miter"/>
    </g>
    <g id="text_2">
     <!-- SS -->
     <g style="fill: #262626" transform="translate(145.092187 286.242356) scale(0.1 -0.1)">
      <use xlink:href="#ArialMT-53"/>
      <use xlink:href="#ArialMT-53" x="66.699219"/>
     </g>
    </g>
    <g id="patch_5">
     <path d="M 178.875 289.39536 
L 233.1 289.39536 
L 233.1 277.91904 
L 178.875 277.91904 
z
" style="fill: #ffffff; stroke: #000000; stroke-linejoin: miter"/>
    </g>
    <g id="text_3">
     <!-- DF -->
     <g style="fill: #262626" transform="translate(199.322656 286.242356) scale(0.1 -0.1)">
      <defs>
       <path id="ArialMT-44" d="M 494 0 
L 494 4581 
L 2072 4581 
Q 2606 4581 2888 4516 
Q 3281 4425 3559 4188 
Q 3922 3881 4101 3404 
Q 4281 2928 4281 2316 
Q 4281 1794 4159 1391 
Q 4038 988 3847 723 
Q 3656 459 3429 307 
Q 3203 156 2883 78 
Q 2563 0 2147 0 
L 494 0 
z
M 1100 541 
L 2078 541 
Q 2531 541 2789 625 
Q 3047 709 3200 863 
Q 3416 1078 3536 1442 
Q 3656 1806 3656 2325 
Q 3656 3044 3420 3430 
Q 3184 3816 2847 3947 
Q 2603 4041 2063 4041 
L 1100 4041 
L 1100 541 
z
" transform="scale(0.015625)"/>
       <path id="ArialMT-46" d="M 525 0 
L 525 4581 
L 3616 4581 
L 3616 4041 
L 1131 4041 
L 1131 2622 
L 3281 2622 
L 3281 2081 
L 1131 2081 
L 1131 0 
L 525 0 
z
" transform="scale(0.015625)"/>
      </defs>
      <use xlink:href="#ArialMT-44"/>
      <use xlink:href="#ArialMT-46" x="72.216797"/>
     </g>
    </g>
    <g id="patch_6">
     <path d="M 233.1 289.39536 
L 287.325 289.39536 
L 287.325 277.91904 
L 233.1 277.91904 
z
" style="fill: #ffffff; stroke: #000000; stroke-linejoin: miter"/>
    </g>
    <g id="text_4">
     <!-- MS -->
     <g style="fill: #262626" transform="translate(252.7125 286.242356) scale(0.1 -0.1)">
      <defs>
       <path id="ArialMT-4d" d="M 475 0 
L 475 4581 
L 1388 4581 
L 2472 1338 
Q 2622 884 2691 659 
Q 2769 909 2934 1394 
L 4031 4581 
L 4847 4581 
L 4847 0 
L 4263 0 
L 4263 3834 
L 2931 0 
L 2384 0 
L 1059 3900 
L 1059 0 
L 475 0 
z
" transform="scale(0.015625)"/>
      </defs>
      <use xlink:href="#ArialMT-4d"/>
      <use xlink:href="#ArialMT-53" x="83.300781"/>
     </g>
    </g>
    <g id="patch_7">
     <path d="M 287.325 289.39536 
L 341.55 289.39536 
L 341.55 277.91904 
L 287.325 277.91904 
z
" style="fill: #ffffff; stroke: #000000; stroke-linejoin: miter"/>
    </g>
    <g id="text_5">
     <!-- F -->
     <g style="fill: #262626" transform="translate(311.383594 286.242356) scale(0.1 -0.1)">
      <use xlink:href="#ArialMT-46"/>
     </g>
    </g>
    <g id="patch_8">
     <path d="M 341.55 289.39536 
L 395.775 289.39536 
L 395.775 277.91904 
L 341.55 277.91904 
z
" style="fill: #ffffff; stroke: #000000; stroke-linejoin: miter"/>
    </g>
    <g id="text_6">
     <!-- p-corrected -->
     <g style="fill: #262626" transform="translate(343.376562 286.242356) scale(0.1 -0.1)">
      <defs>
       <path id="ArialMT-70" d="M 422 -1272 
L 422 3319 
L 934 3319 
L 934 2888 
Q 1116 3141 1344 3267 
Q 1572 3394 1897 3394 
Q 2322 3394 2647 3175 
Q 2972 2956 3137 2557 
Q 3303 2159 3303 1684 
Q 3303 1175 3120 767 
Q 2938 359 2589 142 
Q 2241 -75 1856 -75 
Q 1575 -75 1351 44 
Q 1128 163 984 344 
L 984 -1272 
L 422 -1272 
z
M 931 1641 
Q 931 1000 1190 694 
Q 1450 388 1819 388 
Q 2194 388 2461 705 
Q 2728 1022 2728 1688 
Q 2728 2322 2467 2637 
Q 2206 2953 1844 2953 
Q 1484 2953 1207 2617 
Q 931 2281 931 1641 
z
" transform="scale(0.015625)"/>
       <path id="ArialMT-2d" d="M 203 1375 
L 203 1941 
L 1931 1941 
L 1931 1375 
L 203 1375 
z
" transform="scale(0.015625)"/>
       <path id="ArialMT-74" d="M 1650 503 
L 1731 6 
Q 1494 -44 1306 -44 
Q 1000 -44 831 53 
Q 663 150 594 308 
Q 525 466 525 972 
L 525 2881 
L 113 2881 
L 113 3319 
L 525 3319 
L 525 4141 
L 1084 4478 
L 1084 3319 
L 1650 3319 
L 1650 2881 
L 1084 2881 
L 1084 941 
Q 1084 700 1114 631 
Q 1144 563 1211 522 
Q 1278 481 1403 481 
Q 1497 481 1650 503 
z
" transform="scale(0.015625)"/>
       <path id="ArialMT-64" d="M 2575 0 
L 2575 419 
Q 2259 -75 1647 -75 
Q 1250 -75 917 144 
Q 584 363 401 755 
Q 219 1147 219 1656 
Q 219 2153 384 2558 
Q 550 2963 881 3178 
Q 1213 3394 1622 3394 
Q 1922 3394 2156 3267 
Q 2391 3141 2538 2938 
L 2538 4581 
L 3097 4581 
L 3097 0 
L 2575 0 
z
M 797 1656 
Q 797 1019 1065 703 
Q 1334 388 1700 388 
Q 2069 388 2326 689 
Q 2584 991 2584 1609 
Q 2584 2291 2321 2609 
Q 2059 2928 1675 2928 
Q 1300 2928 1048 2622 
Q 797 2316 797 1656 
z
" transform="scale(0.015625)"/>
      </defs>
      <use xlink:href="#ArialMT-70"/>
      <use xlink:href="#ArialMT-2d" x="55.615234"/>
      <use xlink:href="#ArialMT-63" x="88.916016"/>
      <use xlink:href="#ArialMT-6f" x="138.916016"/>
      <use xlink:href="#ArialMT-72" x="194.53125"/>
      <use xlink:href="#ArialMT-72" x="227.832031"/>
      <use xlink:href="#ArialMT-65" x="261.132812"/>
      <use xlink:href="#ArialMT-63" x="316.748047"/>
      <use xlink:href="#ArialMT-74" x="366.748047"/>
      <use xlink:href="#ArialMT-65" x="394.53125"/>
      <use xlink:href="#ArialMT-64" x="450.146484"/>
     </g>
    </g>
    <g id="patch_9">
     <path d="M 395.775 289.39536 
L 450 289.39536 
L 450 277.91904 
L 395.775 277.91904 
z
" style="fill: #ffffff; stroke: #000000; stroke-linejoin: miter"/>
    </g>
    <g id="text_7">
     <!-- np2 -->
     <g style="fill: #262626" transform="translate(414.546094 286.2572) scale(0.1 -0.1)">
      <defs>
       <path id="ArialMT-6e" d="M 422 0 
L 422 3319 
L 928 3319 
L 928 2847 
Q 1294 3394 1984 3394 
Q 2284 3394 2536 3286 
Q 2788 3178 2913 3003 
Q 3038 2828 3088 2588 
Q 3119 2431 3119 2041 
L 3119 0 
L 2556 0 
L 2556 2019 
Q 2556 2363 2490 2533 
Q 2425 2703 2258 2804 
Q 2091 2906 1866 2906 
Q 1506 2906 1245 2678 
Q 984 2450 984 1813 
L 984 0 
L 422 0 
z
" transform="scale(0.015625)"/>
       <path id="ArialMT-32" d="M 3222 541 
L 3222 0 
L 194 0 
Q 188 203 259 391 
Q 375 700 629 1000 
Q 884 1300 1366 1694 
Q 2113 2306 2375 2664 
Q 2638 3022 2638 3341 
Q 2638 3675 2398 3904 
Q 2159 4134 1775 4134 
Q 1369 4134 1125 3890 
Q 881 3647 878 3216 
L 300 3275 
Q 359 3922 746 4261 
Q 1134 4600 1788 4600 
Q 2447 4600 2831 4234 
Q 3216 3869 3216 3328 
Q 3216 3053 3103 2787 
Q 2991 2522 2730 2228 
Q 2469 1934 1863 1422 
Q 1356 997 1212 845 
Q 1069 694 975 541 
L 3222 541 
z
" transform="scale(0.015625)"/>
      </defs>
      <use xlink:href="#ArialMT-6e"/>
      <use xlink:href="#ArialMT-70" x="55.615234"/>
      <use xlink:href="#ArialMT-32" x="111.230469"/>
     </g>
    </g>
    <g id="patch_10">
     <path d="M 70.425 300.87168 
L 124.65 300.87168 
L 124.65 289.39536 
L 70.425 289.39536 
z
" style="fill: #ffffff; stroke: #000000; stroke-linejoin: miter"/>
    </g>
    <g id="text_8">
     <!-- current -->
     <g style="fill: #262626" transform="translate(81.977344 297.718676) scale(0.1 -0.1)">
      <use xlink:href="#ArialMT-63"/>
      <use xlink:href="#ArialMT-75" x="50"/>
      <use xlink:href="#ArialMT-72" x="105.615234"/>
      <use xlink:href="#ArialMT-72" x="138.916016"/>
      <use xlink:href="#ArialMT-65" x="172.216797"/>
      <use xlink:href="#ArialMT-6e" x="227.832031"/>
      <use xlink:href="#ArialMT-74" x="283.447266"/>
     </g>
    </g>
    <g id="patch_11">
     <path d="M 124.65 300.87168 
L 178.875 300.87168 
L 178.875 289.39536 
L 124.65 289.39536 
z
" style="fill: #ffffff; stroke: #000000; stroke-linejoin: miter"/>
    </g>
    <g id="text_9">
     <!-- 0.3115 -->
     <g style="fill: #262626" transform="translate(136.839844 297.718676) scale(0.1 -0.1)">
      <defs>
       <path id="ArialMT-30" d="M 266 2259 
Q 266 3072 433 3567 
Q 600 4063 929 4331 
Q 1259 4600 1759 4600 
Q 2128 4600 2406 4451 
Q 2684 4303 2865 4023 
Q 3047 3744 3150 3342 
Q 3253 2941 3253 2259 
Q 3253 1453 3087 958 
Q 2922 463 2592 192 
Q 2263 -78 1759 -78 
Q 1097 -78 719 397 
Q 266 969 266 2259 
z
M 844 2259 
Q 844 1131 1108 757 
Q 1372 384 1759 384 
Q 2147 384 2411 759 
Q 2675 1134 2675 2259 
Q 2675 3391 2411 3762 
Q 2147 4134 1753 4134 
Q 1366 4134 1134 3806 
Q 844 3388 844 2259 
z
" transform="scale(0.015625)"/>
       <path id="ArialMT-2e" d="M 581 0 
L 581 641 
L 1222 641 
L 1222 0 
L 581 0 
z
" transform="scale(0.015625)"/>
       <path id="ArialMT-33" d="M 269 1209 
L 831 1284 
Q 928 806 1161 595 
Q 1394 384 1728 384 
Q 2125 384 2398 659 
Q 2672 934 2672 1341 
Q 2672 1728 2419 1979 
Q 2166 2231 1775 2231 
Q 1616 2231 1378 2169 
L 1441 2663 
Q 1497 2656 1531 2656 
Q 1891 2656 2178 2843 
Q 2466 3031 2466 3422 
Q 2466 3731 2256 3934 
Q 2047 4138 1716 4138 
Q 1388 4138 1169 3931 
Q 950 3725 888 3313 
L 325 3413 
Q 428 3978 793 4289 
Q 1159 4600 1703 4600 
Q 2078 4600 2393 4439 
Q 2709 4278 2876 4000 
Q 3044 3722 3044 3409 
Q 3044 3113 2884 2869 
Q 2725 2625 2413 2481 
Q 2819 2388 3044 2092 
Q 3269 1797 3269 1353 
Q 3269 753 2831 336 
Q 2394 -81 1725 -81 
Q 1122 -81 723 278 
Q 325 638 269 1209 
z
" transform="scale(0.015625)"/>
       <path id="ArialMT-31" d="M 2384 0 
L 1822 0 
L 1822 3584 
Q 1619 3391 1289 3197 
Q 959 3003 697 2906 
L 697 3450 
Q 1169 3672 1522 3987 
Q 1875 4303 2022 4600 
L 2384 4600 
L 2384 0 
z
" transform="scale(0.015625)"/>
       <path id="ArialMT-35" d="M 266 1200 
L 856 1250 
Q 922 819 1161 601 
Q 1400 384 1738 384 
Q 2144 384 2425 690 
Q 2706 997 2706 1503 
Q 2706 1984 2436 2262 
Q 2166 2541 1728 2541 
Q 1456 2541 1237 2417 
Q 1019 2294 894 2097 
L 366 2166 
L 809 4519 
L 3088 4519 
L 3088 3981 
L 1259 3981 
L 1013 2750 
Q 1425 3038 1878 3038 
Q 2478 3038 2890 2622 
Q 3303 2206 3303 1553 
Q 3303 931 2941 478 
Q 2500 -78 1738 -78 
Q 1113 -78 717 272 
Q 322 622 266 1200 
z
" transform="scale(0.015625)"/>
      </defs>
      <use xlink:href="#ArialMT-30"/>
      <use xlink:href="#ArialMT-2e" x="55.615234"/>
      <use xlink:href="#ArialMT-33" x="83.398438"/>
      <use xlink:href="#ArialMT-31" x="139.013672"/>
      <use xlink:href="#ArialMT-31" x="187.253906"/>
      <use xlink:href="#ArialMT-35" x="242.869141"/>
     </g>
    </g>
    <g id="patch_12">
     <path d="M 178.875 300.87168 
L 233.1 300.87168 
L 233.1 289.39536 
L 178.875 289.39536 
z
" style="fill: #ffffff; stroke: #000000; stroke-linejoin: miter"/>
    </g>
    <g id="text_10">
     <!-- 3 -->
     <g style="fill: #262626" transform="translate(203.207031 297.718676) scale(0.1 -0.1)">
      <use xlink:href="#ArialMT-33"/>
     </g>
    </g>
    <g id="patch_13">
     <path d="M 233.1 300.87168 
L 287.325 300.87168 
L 287.325 289.39536 
L 233.1 289.39536 
z
" style="fill: #ffffff; stroke: #000000; stroke-linejoin: miter"/>
    </g>
    <g id="text_11">
     <!-- 0.1038 -->
     <g style="fill: #262626" transform="translate(244.921094 297.718676) scale(0.1 -0.1)">
      <defs>
       <path id="ArialMT-38" d="M 1131 2484 
Q 781 2613 612 2850 
Q 444 3088 444 3419 
Q 444 3919 803 4259 
Q 1163 4600 1759 4600 
Q 2359 4600 2725 4251 
Q 3091 3903 3091 3403 
Q 3091 3084 2923 2848 
Q 2756 2613 2416 2484 
Q 2838 2347 3058 2040 
Q 3278 1734 3278 1309 
Q 3278 722 2862 322 
Q 2447 -78 1769 -78 
Q 1091 -78 675 323 
Q 259 725 259 1325 
Q 259 1772 486 2073 
Q 713 2375 1131 2484 
z
M 1019 3438 
Q 1019 3113 1228 2906 
Q 1438 2700 1772 2700 
Q 2097 2700 2305 2904 
Q 2513 3109 2513 3406 
Q 2513 3716 2298 3927 
Q 2084 4138 1766 4138 
Q 1444 4138 1231 3931 
Q 1019 3725 1019 3438 
z
M 838 1322 
Q 838 1081 952 856 
Q 1066 631 1291 507 
Q 1516 384 1775 384 
Q 2178 384 2440 643 
Q 2703 903 2703 1303 
Q 2703 1709 2433 1975 
Q 2163 2241 1756 2241 
Q 1359 2241 1098 1978 
Q 838 1716 838 1322 
z
" transform="scale(0.015625)"/>
      </defs>
      <use xlink:href="#ArialMT-30"/>
      <use xlink:href="#ArialMT-2e" x="55.615234"/>
      <use xlink:href="#ArialMT-31" x="83.398438"/>
      <use xlink:href="#ArialMT-30" x="139.013672"/>
      <use xlink:href="#ArialMT-33" x="194.628906"/>
      <use xlink:href="#ArialMT-38" x="250.244141"/>
     </g>
    </g>
    <g id="patch_14">
     <path d="M 287.325 300.87168 
L 341.55 300.87168 
L 341.55 289.39536 
L 287.325 289.39536 
z
" style="fill: #ffffff; stroke: #000000; stroke-linejoin: miter"/>
    </g>
    <g id="text_12">
     <!-- 5.1281 -->
     <g style="fill: #262626" transform="translate(299.146094 297.718676) scale(0.1 -0.1)">
      <use xlink:href="#ArialMT-35"/>
      <use xlink:href="#ArialMT-2e" x="55.615234"/>
      <use xlink:href="#ArialMT-31" x="83.398438"/>
      <use xlink:href="#ArialMT-32" x="139.013672"/>
      <use xlink:href="#ArialMT-38" x="194.628906"/>
      <use xlink:href="#ArialMT-31" x="250.244141"/>
     </g>
    </g>
    <g id="patch_15">
     <path d="M 341.55 300.87168 
L 395.775 300.87168 
L 395.775 289.39536 
L 341.55 289.39536 
z
" style="fill: #ffffff; stroke: #000000; stroke-linejoin: miter"/>
    </g>
    <g id="text_13">
     <!-- 0.0081 -->
     <g style="fill: #262626" transform="translate(353.371094 297.718676) scale(0.1 -0.1)">
      <use xlink:href="#ArialMT-30"/>
      <use xlink:href="#ArialMT-2e" x="55.615234"/>
      <use xlink:href="#ArialMT-30" x="83.398438"/>
      <use xlink:href="#ArialMT-30" x="139.013672"/>
      <use xlink:href="#ArialMT-38" x="194.628906"/>
      <use xlink:href="#ArialMT-31" x="250.244141"/>
     </g>
    </g>
    <g id="patch_16">
     <path d="M 395.775 300.87168 
L 450 300.87168 
L 450 289.39536 
L 395.775 289.39536 
z
" style="fill: #ffffff; stroke: #000000; stroke-linejoin: miter"/>
    </g>
    <g id="text_14">
     <!-- 0.1613 -->
     <g style="fill: #262626" transform="translate(407.596094 297.718676) scale(0.1 -0.1)">
      <defs>
       <path id="ArialMT-36" d="M 3184 3459 
L 2625 3416 
Q 2550 3747 2413 3897 
Q 2184 4138 1850 4138 
Q 1581 4138 1378 3988 
Q 1113 3794 959 3422 
Q 806 3050 800 2363 
Q 1003 2672 1297 2822 
Q 1591 2972 1913 2972 
Q 2475 2972 2870 2558 
Q 3266 2144 3266 1488 
Q 3266 1056 3080 686 
Q 2894 316 2569 119 
Q 2244 -78 1831 -78 
Q 1128 -78 684 439 
Q 241 956 241 2144 
Q 241 3472 731 4075 
Q 1159 4600 1884 4600 
Q 2425 4600 2770 4297 
Q 3116 3994 3184 3459 
z
M 888 1484 
Q 888 1194 1011 928 
Q 1134 663 1356 523 
Q 1578 384 1822 384 
Q 2178 384 2434 671 
Q 2691 959 2691 1453 
Q 2691 1928 2437 2201 
Q 2184 2475 1800 2475 
Q 1419 2475 1153 2201 
Q 888 1928 888 1484 
z
" transform="scale(0.015625)"/>
      </defs>
      <use xlink:href="#ArialMT-30"/>
      <use xlink:href="#ArialMT-2e" x="55.615234"/>
      <use xlink:href="#ArialMT-31" x="83.398438"/>
      <use xlink:href="#ArialMT-36" x="139.013672"/>
      <use xlink:href="#ArialMT-31" x="194.628906"/>
      <use xlink:href="#ArialMT-33" x="250.244141"/>
     </g>
    </g>
    <g id="patch_17">
     <path d="M 70.425 312.348 
L 124.65 312.348 
L 124.65 300.87168 
L 70.425 300.87168 
z
" style="fill: #ffffff; stroke: #000000; stroke-linejoin: miter"/>
    </g>
    <g id="text_15">
     <!-- int time -->
     <g style="fill: #262626" transform="translate(81.422656 309.194996) scale(0.1 -0.1)">
      <defs>
       <path id="ArialMT-69" d="M 425 3934 
L 425 4581 
L 988 4581 
L 988 3934 
L 425 3934 
z
M 425 0 
L 425 3319 
L 988 3319 
L 988 0 
L 425 0 
z
" transform="scale(0.015625)"/>
       <path id="ArialMT-20" transform="scale(0.015625)"/>
       <path id="ArialMT-6d" d="M 422 0 
L 422 3319 
L 925 3319 
L 925 2853 
Q 1081 3097 1340 3245 
Q 1600 3394 1931 3394 
Q 2300 3394 2536 3241 
Q 2772 3088 2869 2813 
Q 3263 3394 3894 3394 
Q 4388 3394 4653 3120 
Q 4919 2847 4919 2278 
L 4919 0 
L 4359 0 
L 4359 2091 
Q 4359 2428 4304 2576 
Q 4250 2725 4106 2815 
Q 3963 2906 3769 2906 
Q 3419 2906 3187 2673 
Q 2956 2441 2956 1928 
L 2956 0 
L 2394 0 
L 2394 2156 
Q 2394 2531 2256 2718 
Q 2119 2906 1806 2906 
Q 1569 2906 1367 2781 
Q 1166 2656 1075 2415 
Q 984 2175 984 1722 
L 984 0 
L 422 0 
z
" transform="scale(0.015625)"/>
      </defs>
      <use xlink:href="#ArialMT-69"/>
      <use xlink:href="#ArialMT-6e" x="22.216797"/>
      <use xlink:href="#ArialMT-74" x="77.832031"/>
      <use xlink:href="#ArialMT-20" x="105.615234"/>
      <use xlink:href="#ArialMT-74" x="133.398438"/>
      <use xlink:href="#ArialMT-69" x="161.181641"/>
      <use xlink:href="#ArialMT-6d" x="183.398438"/>
      <use xlink:href="#ArialMT-65" x="266.699219"/>
     </g>
    </g>
    <g id="patch_18">
     <path d="M 124.65 312.348 
L 178.875 312.348 
L 178.875 300.87168 
L 124.65 300.87168 
z
" style="fill: #ffffff; stroke: #000000; stroke-linejoin: miter"/>
    </g>
    <g id="text_16">
     <!-- 0.0285 -->
     <g style="fill: #262626" transform="translate(136.471094 309.194996) scale(0.1 -0.1)">
      <use xlink:href="#ArialMT-30"/>
      <use xlink:href="#ArialMT-2e" x="55.615234"/>
      <use xlink:href="#ArialMT-30" x="83.398438"/>
      <use xlink:href="#ArialMT-32" x="139.013672"/>
      <use xlink:href="#ArialMT-38" x="194.628906"/>
      <use xlink:href="#ArialMT-35" x="250.244141"/>
     </g>
    </g>
    <g id="patch_19">
     <path d="M 178.875 312.348 
L 233.1 312.348 
L 233.1 300.87168 
L 178.875 300.87168 
z
" style="fill: #ffffff; stroke: #000000; stroke-linejoin: miter"/>
    </g>
    <g id="text_17">
     <!-- 4 -->
     <g style="fill: #262626" transform="translate(203.207031 309.194996) scale(0.1 -0.1)">
      <defs>
       <path id="ArialMT-34" d="M 2069 0 
L 2069 1097 
L 81 1097 
L 81 1613 
L 2172 4581 
L 2631 4581 
L 2631 1613 
L 3250 1613 
L 3250 1097 
L 2631 1097 
L 2631 0 
L 2069 0 
z
M 2069 1613 
L 2069 3678 
L 634 1613 
L 2069 1613 
z
" transform="scale(0.015625)"/>
      </defs>
      <use xlink:href="#ArialMT-34"/>
     </g>
    </g>
    <g id="patch_20">
     <path d="M 233.1 312.348 
L 287.325 312.348 
L 287.325 300.87168 
L 233.1 300.87168 
z
" style="fill: #ffffff; stroke: #000000; stroke-linejoin: miter"/>
    </g>
    <g id="text_18">
     <!-- 0.0071 -->
     <g style="fill: #262626" transform="translate(244.921094 309.194996) scale(0.1 -0.1)">
      <defs>
       <path id="ArialMT-37" d="M 303 3981 
L 303 4522 
L 3269 4522 
L 3269 4084 
Q 2831 3619 2401 2847 
Q 1972 2075 1738 1259 
Q 1569 684 1522 0 
L 944 0 
Q 953 541 1156 1306 
Q 1359 2072 1739 2783 
Q 2119 3494 2547 3981 
L 303 3981 
z
" transform="scale(0.015625)"/>
      </defs>
      <use xlink:href="#ArialMT-30"/>
      <use xlink:href="#ArialMT-2e" x="55.615234"/>
      <use xlink:href="#ArialMT-30" x="83.398438"/>
      <use xlink:href="#ArialMT-30" x="139.013672"/>
      <use xlink:href="#ArialMT-37" x="194.628906"/>
      <use xlink:href="#ArialMT-31" x="250.244141"/>
     </g>
    </g>
    <g id="patch_21">
     <path d="M 287.325 312.348 
L 341.55 312.348 
L 341.55 300.87168 
L 287.325 300.87168 
z
" style="fill: #ffffff; stroke: #000000; stroke-linejoin: miter"/>
    </g>
    <g id="text_19">
     <!-- 0.3513 -->
     <g style="fill: #262626" transform="translate(299.146094 309.194996) scale(0.1 -0.1)">
      <use xlink:href="#ArialMT-30"/>
      <use xlink:href="#ArialMT-2e" x="55.615234"/>
      <use xlink:href="#ArialMT-33" x="83.398438"/>
      <use xlink:href="#ArialMT-35" x="139.013672"/>
      <use xlink:href="#ArialMT-31" x="194.628906"/>
      <use xlink:href="#ArialMT-33" x="250.244141"/>
     </g>
    </g>
    <g id="patch_22">
     <path d="M 341.55 312.348 
L 395.775 312.348 
L 395.775 300.87168 
L 341.55 300.87168 
z
" style="fill: #ffffff; stroke: #000000; stroke-linejoin: miter"/>
    </g>
    <g id="text_20">
     <!-- 1.0 -->
     <g style="fill: #262626" transform="translate(361.7125 309.194996) scale(0.1 -0.1)">
      <use xlink:href="#ArialMT-31"/>
      <use xlink:href="#ArialMT-2e" x="55.615234"/>
      <use xlink:href="#ArialMT-30" x="83.398438"/>
     </g>
    </g>
    <g id="patch_23">
     <path d="M 395.775 312.348 
L 450 312.348 
L 450 300.87168 
L 395.775 300.87168 
z
" style="fill: #ffffff; stroke: #000000; stroke-linejoin: miter"/>
    </g>
    <g id="text_21">
     <!-- 0.0173 -->
     <g style="fill: #262626" transform="translate(407.596094 309.194996) scale(0.1 -0.1)">
      <use xlink:href="#ArialMT-30"/>
      <use xlink:href="#ArialMT-2e" x="55.615234"/>
      <use xlink:href="#ArialMT-30" x="83.398438"/>
      <use xlink:href="#ArialMT-31" x="139.013672"/>
      <use xlink:href="#ArialMT-37" x="194.628906"/>
      <use xlink:href="#ArialMT-33" x="250.244141"/>
     </g>
    </g>
    <g id="patch_24">
     <path d="M 70.425 323.82432 
L 124.65 323.82432 
L 124.65 312.348 
L 70.425 312.348 
z
" style="fill: #ffffff; stroke: #000000; stroke-linejoin: miter"/>
    </g>
    <g id="text_22">
     <!-- current * int time -->
     <g style="fill: #262626" transform="translate(61.138281 320.671316) scale(0.1 -0.1)">
      <defs>
       <path id="ArialMT-2a" d="M 200 3741 
L 344 4184 
Q 841 4009 1066 3881 
Q 1006 4447 1003 4659 
L 1456 4659 
Q 1447 4350 1384 3884 
Q 1706 4047 2122 4184 
L 2266 3741 
Q 1869 3609 1488 3566 
Q 1678 3400 2025 2975 
L 1650 2709 
Q 1469 2956 1222 3381 
Q 991 2941 816 2709 
L 447 2975 
Q 809 3422 966 3566 
Q 563 3644 200 3741 
z
" transform="scale(0.015625)"/>
      </defs>
      <use xlink:href="#ArialMT-63"/>
      <use xlink:href="#ArialMT-75" x="50"/>
      <use xlink:href="#ArialMT-72" x="105.615234"/>
      <use xlink:href="#ArialMT-72" x="138.916016"/>
      <use xlink:href="#ArialMT-65" x="172.216797"/>
      <use xlink:href="#ArialMT-6e" x="227.832031"/>
      <use xlink:href="#ArialMT-74" x="283.447266"/>
      <use xlink:href="#ArialMT-20" x="311.230469"/>
      <use xlink:href="#ArialMT-2a" x="339.013672"/>
      <use xlink:href="#ArialMT-20" x="377.929688"/>
      <use xlink:href="#ArialMT-69" x="405.712891"/>
      <use xlink:href="#ArialMT-6e" x="427.929688"/>
      <use xlink:href="#ArialMT-74" x="483.544922"/>
      <use xlink:href="#ArialMT-20" x="511.328125"/>
      <use xlink:href="#ArialMT-74" x="539.111328"/>
      <use xlink:href="#ArialMT-69" x="566.894531"/>
      <use xlink:href="#ArialMT-6d" x="589.111328"/>
      <use xlink:href="#ArialMT-65" x="672.412109"/>
     </g>
    </g>
    <g id="patch_25">
     <path d="M 124.65 323.82432 
L 178.875 323.82432 
L 178.875 312.348 
L 124.65 312.348 
z
" style="fill: #ffffff; stroke: #000000; stroke-linejoin: miter"/>
    </g>
    <g id="text_23">
     <!-- 0.142 -->
     <g style="fill: #262626" transform="translate(139.251562 320.671316) scale(0.1 -0.1)">
      <use xlink:href="#ArialMT-30"/>
      <use xlink:href="#ArialMT-2e" x="55.615234"/>
      <use xlink:href="#ArialMT-31" x="83.398438"/>
      <use xlink:href="#ArialMT-34" x="139.013672"/>
      <use xlink:href="#ArialMT-32" x="194.628906"/>
     </g>
    </g>
    <g id="patch_26">
     <path d="M 178.875 323.82432 
L 233.1 323.82432 
L 233.1 312.348 
L 178.875 312.348 
z
" style="fill: #ffffff; stroke: #000000; stroke-linejoin: miter"/>
    </g>
    <g id="text_24">
     <!-- 12 -->
     <g style="fill: #262626" transform="translate(200.426562 320.671316) scale(0.1 -0.1)">
      <use xlink:href="#ArialMT-31"/>
      <use xlink:href="#ArialMT-32" x="55.615234"/>
     </g>
    </g>
    <g id="patch_27">
     <path d="M 233.1 323.82432 
L 287.325 323.82432 
L 287.325 312.348 
L 233.1 312.348 
z
" style="fill: #ffffff; stroke: #000000; stroke-linejoin: miter"/>
    </g>
    <g id="text_25">
     <!-- 0.0118 -->
     <g style="fill: #262626" transform="translate(245.289844 320.671316) scale(0.1 -0.1)">
      <use xlink:href="#ArialMT-30"/>
      <use xlink:href="#ArialMT-2e" x="55.615234"/>
      <use xlink:href="#ArialMT-30" x="83.398438"/>
      <use xlink:href="#ArialMT-31" x="139.013672"/>
      <use xlink:href="#ArialMT-31" x="187.253906"/>
      <use xlink:href="#ArialMT-38" x="242.869141"/>
     </g>
    </g>
    <g id="patch_28">
     <path d="M 287.325 323.82432 
L 341.55 323.82432 
L 341.55 312.348 
L 287.325 312.348 
z
" style="fill: #ffffff; stroke: #000000; stroke-linejoin: miter"/>
    </g>
    <g id="text_26">
     <!-- 0.5844 -->
     <g style="fill: #262626" transform="translate(299.146094 320.671316) scale(0.1 -0.1)">
      <use xlink:href="#ArialMT-30"/>
      <use xlink:href="#ArialMT-2e" x="55.615234"/>
      <use xlink:href="#ArialMT-35" x="83.398438"/>
      <use xlink:href="#ArialMT-38" x="139.013672"/>
      <use xlink:href="#ArialMT-34" x="194.628906"/>
      <use xlink:href="#ArialMT-34" x="250.244141"/>
     </g>
    </g>
    <g id="patch_29">
     <path d="M 341.55 323.82432 
L 395.775 323.82432 
L 395.775 312.348 
L 341.55 312.348 
z
" style="fill: #ffffff; stroke: #000000; stroke-linejoin: miter"/>
    </g>
    <g id="text_27">
     <!-- 1.0 -->
     <g style="fill: #262626" transform="translate(361.7125 320.671316) scale(0.1 -0.1)">
      <use xlink:href="#ArialMT-31"/>
      <use xlink:href="#ArialMT-2e" x="55.615234"/>
      <use xlink:href="#ArialMT-30" x="83.398438"/>
     </g>
    </g>
    <g id="patch_30">
     <path d="M 395.775 323.82432 
L 450 323.82432 
L 450 312.348 
L 395.775 312.348 
z
" style="fill: #ffffff; stroke: #000000; stroke-linejoin: miter"/>
    </g>
    <g id="text_28">
     <!-- 0.0806 -->
     <g style="fill: #262626" transform="translate(407.596094 320.671316) scale(0.1 -0.1)">
      <use xlink:href="#ArialMT-30"/>
      <use xlink:href="#ArialMT-2e" x="55.615234"/>
      <use xlink:href="#ArialMT-30" x="83.398438"/>
      <use xlink:href="#ArialMT-38" x="139.013672"/>
      <use xlink:href="#ArialMT-30" x="194.628906"/>
      <use xlink:href="#ArialMT-36" x="250.244141"/>
     </g>
    </g>
   </g>
   <g id="matplotlib.axis_1">
    <g id="xtick_1">
     <g id="line2d_1">
      <path d="M 80.96875 254.9664 
L 80.96875 25.44 
" clip-path="url(#pe0df724135)" style="fill: none; stroke: #ffffff; stroke-width: 0.8; stroke-linecap: round"/>
     </g>
     <g id="line2d_2"/>
     <g id="text_29">
      <!-- 12.5 mA -->
      <g style="fill: #262626" transform="translate(83.553906 295.705462) rotate(-90) scale(0.1 -0.1)">
       <defs>
        <path id="ArialMT-41" d="M -9 0 
L 1750 4581 
L 2403 4581 
L 4278 0 
L 3588 0 
L 3053 1388 
L 1138 1388 
L 634 0 
L -9 0 
z
M 1313 1881 
L 2866 1881 
L 2388 3150 
Q 2169 3728 2063 4100 
Q 1975 3659 1816 3225 
L 1313 1881 
z
" transform="scale(0.015625)"/>
       </defs>
       <use xlink:href="#ArialMT-31"/>
       <use xlink:href="#ArialMT-32" x="55.615234"/>
       <use xlink:href="#ArialMT-2e" x="111.230469"/>
       <use xlink:href="#ArialMT-35" x="139.013672"/>
       <use xlink:href="#ArialMT-20" x="194.628906"/>
       <use xlink:href="#ArialMT-6d" x="222.412109"/>
       <use xlink:href="#ArialMT-41" x="305.712891"/>
      </g>
     </g>
    </g>
    <g id="xtick_2">
     <g id="line2d_3">
      <path d="M 186.40625 254.9664 
L 186.40625 25.44 
" clip-path="url(#pe0df724135)" style="fill: none; stroke: #ffffff; stroke-width: 0.8; stroke-linecap: round"/>
     </g>
     <g id="line2d_4"/>
     <g id="text_30">
      <!-- 25 mA -->
      <g style="fill: #262626" transform="translate(188.991406 287.3664) rotate(-90) scale(0.1 -0.1)">
       <use xlink:href="#ArialMT-32"/>
       <use xlink:href="#ArialMT-35" x="55.615234"/>
       <use xlink:href="#ArialMT-20" x="111.230469"/>
       <use xlink:href="#ArialMT-6d" x="139.013672"/>
       <use xlink:href="#ArialMT-41" x="222.314453"/>
      </g>
     </g>
    </g>
    <g id="xtick_3">
     <g id="line2d_5">
      <path d="M 291.84375 254.9664 
L 291.84375 25.44 
" clip-path="url(#pe0df724135)" style="fill: none; stroke: #ffffff; stroke-width: 0.8; stroke-linecap: round"/>
     </g>
     <g id="line2d_6"/>
     <g id="text_31">
      <!-- 50 mA -->
      <g style="fill: #262626" transform="translate(294.428906 287.3664) rotate(-90) scale(0.1 -0.1)">
       <use xlink:href="#ArialMT-35"/>
       <use xlink:href="#ArialMT-30" x="55.615234"/>
       <use xlink:href="#ArialMT-20" x="111.230469"/>
       <use xlink:href="#ArialMT-6d" x="139.013672"/>
       <use xlink:href="#ArialMT-41" x="222.314453"/>
      </g>
     </g>
    </g>
    <g id="xtick_4">
     <g id="line2d_7">
      <path d="M 397.28125 254.9664 
L 397.28125 25.44 
" clip-path="url(#pe0df724135)" style="fill: none; stroke: #ffffff; stroke-width: 0.8; stroke-linecap: round"/>
     </g>
     <g id="line2d_8"/>
     <g id="text_32">
      <!-- 100 mA -->
      <g style="fill: #262626" transform="translate(399.866406 292.927337) rotate(-90) scale(0.1 -0.1)">
       <use xlink:href="#ArialMT-31"/>
       <use xlink:href="#ArialMT-30" x="55.615234"/>
       <use xlink:href="#ArialMT-30" x="111.230469"/>
       <use xlink:href="#ArialMT-20" x="166.845703"/>
       <use xlink:href="#ArialMT-6d" x="194.628906"/>
       <use xlink:href="#ArialMT-41" x="277.929688"/>
      </g>
     </g>
    </g>
   </g>
   <g id="matplotlib.axis_2">
    <g id="ytick_1">
     <g id="line2d_9">
      <path d="M 28.25 254.9664 
L 450 254.9664 
" clip-path="url(#pe0df724135)" style="fill: none; stroke: #ffffff; stroke-width: 0.8; stroke-linecap: round"/>
     </g>
     <g id="line2d_10"/>
     <g id="text_33">
      <!-- 0.0 -->
      <g style="fill: #262626" transform="translate(10.85 258.545306) scale(0.1 -0.1)">
       <use xlink:href="#ArialMT-30"/>
       <use xlink:href="#ArialMT-2e" x="55.615234"/>
       <use xlink:href="#ArialMT-30" x="83.398438"/>
      </g>
     </g>
    </g>
    <g id="ytick_2">
     <g id="line2d_11">
      <path d="M 28.25 209.184475 
L 450 209.184475 
" clip-path="url(#pe0df724135)" style="fill: none; stroke: #ffffff; stroke-width: 0.8; stroke-linecap: round"/>
     </g>
     <g id="line2d_12"/>
     <g id="text_34">
      <!-- 0.2 -->
      <g style="fill: #262626" transform="translate(10.85 212.763381) scale(0.1 -0.1)">
       <use xlink:href="#ArialMT-30"/>
       <use xlink:href="#ArialMT-2e" x="55.615234"/>
       <use xlink:href="#ArialMT-32" x="83.398438"/>
      </g>
     </g>
    </g>
    <g id="ytick_3">
     <g id="line2d_13">
      <path d="M 28.25 163.402549 
L 450 163.402549 
" clip-path="url(#pe0df724135)" style="fill: none; stroke: #ffffff; stroke-width: 0.8; stroke-linecap: round"/>
     </g>
     <g id="line2d_14"/>
     <g id="text_35">
      <!-- 0.4 -->
      <g style="fill: #262626" transform="translate(10.85 166.981456) scale(0.1 -0.1)">
       <use xlink:href="#ArialMT-30"/>
       <use xlink:href="#ArialMT-2e" x="55.615234"/>
       <use xlink:href="#ArialMT-34" x="83.398438"/>
      </g>
     </g>
    </g>
    <g id="ytick_4">
     <g id="line2d_15">
      <path d="M 28.25 117.620624 
L 450 117.620624 
" clip-path="url(#pe0df724135)" style="fill: none; stroke: #ffffff; stroke-width: 0.8; stroke-linecap: round"/>
     </g>
     <g id="line2d_16"/>
     <g id="text_36">
      <!-- 0.6 -->
      <g style="fill: #262626" transform="translate(10.85 121.19953) scale(0.1 -0.1)">
       <use xlink:href="#ArialMT-30"/>
       <use xlink:href="#ArialMT-2e" x="55.615234"/>
       <use xlink:href="#ArialMT-36" x="83.398438"/>
      </g>
     </g>
    </g>
    <g id="ytick_5">
     <g id="line2d_17">
      <path d="M 28.25 71.838699 
L 450 71.838699 
" clip-path="url(#pe0df724135)" style="fill: none; stroke: #ffffff; stroke-width: 0.8; stroke-linecap: round"/>
     </g>
     <g id="line2d_18"/>
     <g id="text_37">
      <!-- 0.8 -->
      <g style="fill: #262626" transform="translate(10.85 75.417605) scale(0.1 -0.1)">
       <use xlink:href="#ArialMT-30"/>
       <use xlink:href="#ArialMT-2e" x="55.615234"/>
       <use xlink:href="#ArialMT-38" x="83.398438"/>
      </g>
     </g>
    </g>
    <g id="ytick_6">
     <g id="line2d_19">
      <path d="M 28.25 26.056773 
L 450 26.056773 
" clip-path="url(#pe0df724135)" style="fill: none; stroke: #ffffff; stroke-width: 0.8; stroke-linecap: round"/>
     </g>
     <g id="line2d_20"/>
     <g id="text_38">
      <!-- 1.0 -->
      <g style="fill: #262626" transform="translate(10.85 29.635679) scale(0.1 -0.1)">
       <use xlink:href="#ArialMT-31"/>
       <use xlink:href="#ArialMT-2e" x="55.615234"/>
       <use xlink:href="#ArialMT-30" x="83.398438"/>
      </g>
     </g>
    </g>
   </g>
   <g id="patch_31">
    <path d="M 54.609375 254.9664 
L 65.153125 254.9664 
L 65.153125 72.388082 
L 54.609375 72.388082 
z
" clip-path="url(#pe0df724135)" style="fill: #1f77b4"/>
   </g>
   <g id="patch_32">
    <path d="M 160.046875 254.9664 
L 170.590625 254.9664 
L 170.590625 73.715757 
L 160.046875 73.715757 
z
" clip-path="url(#pe0df724135)" style="fill: #1f77b4"/>
   </g>
   <g id="patch_33">
    <path d="M 265.484375 254.9664 
L 276.028125 254.9664 
L 276.028125 88.503319 
L 265.484375 88.503319 
z
" clip-path="url(#pe0df724135)" style="fill: #1f77b4"/>
   </g>
   <g id="patch_34">
    <path d="M 370.921875 254.9664 
L 381.465625 254.9664 
L 381.465625 99.765673 
L 370.921875 99.765673 
z
" clip-path="url(#pe0df724135)" style="fill: #1f77b4"/>
   </g>
   <g id="patch_35">
    <path d="M 65.153125 254.9664 
L 75.696875 254.9664 
L 75.696875 77.057838 
L 65.153125 77.057838 
z
" clip-path="url(#pe0df724135)" style="fill: #ff7f0e"/>
   </g>
   <g id="patch_36">
    <path d="M 170.590625 254.9664 
L 181.134375 254.9664 
L 181.134375 77.240966 
L 170.590625 77.240966 
z
" clip-path="url(#pe0df724135)" style="fill: #ff7f0e"/>
   </g>
   <g id="patch_37">
    <path d="M 276.028125 254.9664 
L 286.571875 254.9664 
L 286.571875 84.566074 
L 276.028125 84.566074 
z
" clip-path="url(#pe0df724135)" style="fill: #ff7f0e"/>
   </g>
   <g id="patch_38">
    <path d="M 381.465625 254.9664 
L 392.009375 254.9664 
L 392.009375 135.429793 
L 381.465625 135.429793 
z
" clip-path="url(#pe0df724135)" style="fill: #ff7f0e"/>
   </g>
   <g id="patch_39">
    <path d="M 75.696875 254.9664 
L 86.240625 254.9664 
L 86.240625 78.156604 
L 75.696875 78.156604 
z
" clip-path="url(#pe0df724135)" style="fill: #2ca02c"/>
   </g>
   <g id="patch_40">
    <path d="M 181.134375 254.9664 
L 191.678125 254.9664 
L 191.678125 82.551669 
L 181.134375 82.551669 
z
" clip-path="url(#pe0df724135)" style="fill: #2ca02c"/>
   </g>
   <g id="patch_41">
    <path d="M 286.571875 254.9664 
L 297.115625 254.9664 
L 297.115625 98.392215 
L 286.571875 98.392215 
z
" clip-path="url(#pe0df724135)" style="fill: #2ca02c"/>
   </g>
   <g id="patch_42">
    <path d="M 392.009375 254.9664 
L 402.553125 254.9664 
L 402.553125 119.451901 
L 392.009375 119.451901 
z
" clip-path="url(#pe0df724135)" style="fill: #2ca02c"/>
   </g>
   <g id="patch_43">
    <path d="M 86.240625 254.9664 
L 96.784375 254.9664 
L 96.784375 75.043433 
L 86.240625 75.043433 
z
" clip-path="url(#pe0df724135)" style="fill: #d62728"/>
   </g>
   <g id="patch_44">
    <path d="M 191.678125 254.9664 
L 202.221875 254.9664 
L 202.221875 83.925127 
L 191.678125 83.925127 
z
" clip-path="url(#pe0df724135)" style="fill: #d62728"/>
   </g>
   <g id="patch_45">
    <path d="M 297.115625 254.9664 
L 307.659375 254.9664 
L 307.659375 95.233262 
L 297.115625 95.233262 
z
" clip-path="url(#pe0df724135)" style="fill: #d62728"/>
   </g>
   <g id="patch_46">
    <path d="M 402.553125 254.9664 
L 413.096875 254.9664 
L 413.096875 105.671541 
L 402.553125 105.671541 
z
" clip-path="url(#pe0df724135)" style="fill: #d62728"/>
   </g>
   <g id="patch_47">
    <path d="M 96.784375 254.9664 
L 107.328125 254.9664 
L 107.328125 79.118025 
L 96.784375 79.118025 
z
" clip-path="url(#pe0df724135)" style="fill: #9467bd"/>
   </g>
   <g id="patch_48">
    <path d="M 202.221875 254.9664 
L 212.765625 254.9664 
L 212.765625 102.283679 
L 202.221875 102.283679 
z
" clip-path="url(#pe0df724135)" style="fill: #9467bd"/>
   </g>
   <g id="patch_49">
    <path d="M 307.659375 254.9664 
L 318.203125 254.9664 
L 318.203125 86.763606 
L 307.659375 86.763606 
z
" clip-path="url(#pe0df724135)" style="fill: #9467bd"/>
   </g>
   <g id="patch_50">
    <path d="M 413.096875 254.9664 
L 423.640625 254.9664 
L 423.640625 93.401985 
L 413.096875 93.401985 
z
" clip-path="url(#pe0df724135)" style="fill: #9467bd"/>
   </g>
   <g id="LineCollection_1">
    <path d="M 59.88125 89.479524 
L 59.88125 55.29664 
" clip-path="url(#pe0df724135)" style="fill: none; stroke: #262626; stroke-width: 1.5"/>
    <path d="M 165.31875 90.452323 
L 165.31875 56.979192 
" clip-path="url(#pe0df724135)" style="fill: none; stroke: #262626; stroke-width: 1.5"/>
    <path d="M 270.75625 113.260718 
L 270.75625 63.74592 
" clip-path="url(#pe0df724135)" style="fill: none; stroke: #262626; stroke-width: 1.5"/>
    <path d="M 376.19375 137.88136 
L 376.19375 61.649986 
" clip-path="url(#pe0df724135)" style="fill: none; stroke: #262626; stroke-width: 1.5"/>
   </g>
   <g id="LineCollection_2">
    <path d="M 70.425 93.706509 
L 70.425 60.409167 
" clip-path="url(#pe0df724135)" style="fill: none; stroke: #262626; stroke-width: 1.5"/>
    <path d="M 175.8625 94.377569 
L 175.8625 60.104362 
" clip-path="url(#pe0df724135)" style="fill: none; stroke: #262626; stroke-width: 1.5"/>
    <path d="M 281.3 106.283916 
L 281.3 62.848231 
" clip-path="url(#pe0df724135)" style="fill: none; stroke: #262626; stroke-width: 1.5"/>
    <path d="M 386.7375 204.989775 
L 386.7375 65.869811 
" clip-path="url(#pe0df724135)" style="fill: none; stroke: #262626; stroke-width: 1.5"/>
   </g>
   <g id="LineCollection_3">
    <path d="M 80.96875 89.041973 
L 80.96875 67.271235 
" clip-path="url(#pe0df724135)" style="fill: none; stroke: #262626; stroke-width: 1.5"/>
    <path d="M 186.40625 108.420685 
L 186.40625 56.682653 
" clip-path="url(#pe0df724135)" style="fill: none; stroke: #262626; stroke-width: 1.5"/>
    <path d="M 291.84375 130.828394 
L 291.84375 65.956036 
" clip-path="url(#pe0df724135)" style="fill: none; stroke: #262626; stroke-width: 1.5"/>
    <path d="M 397.28125 175.695933 
L 397.28125 63.207869 
" clip-path="url(#pe0df724135)" style="fill: none; stroke: #262626; stroke-width: 1.5"/>
   </g>
   <g id="LineCollection_4">
    <path d="M 91.5125 92.527694 
L 91.5125 57.559173 
" clip-path="url(#pe0df724135)" style="fill: none; stroke: #262626; stroke-width: 1.5"/>
    <path d="M 196.95 101.817017 
L 196.95 66.033236 
" clip-path="url(#pe0df724135)" style="fill: none; stroke: #262626; stroke-width: 1.5"/>
    <path d="M 302.3875 115.480057 
L 302.3875 74.986468 
" clip-path="url(#pe0df724135)" style="fill: none; stroke: #262626; stroke-width: 1.5"/>
    <path d="M 407.825 134.189584 
L 407.825 77.153499 
" clip-path="url(#pe0df724135)" style="fill: none; stroke: #262626; stroke-width: 1.5"/>
   </g>
   <g id="LineCollection_5">
    <path d="M 102.05625 100.580912 
L 102.05625 57.655138 
" clip-path="url(#pe0df724135)" style="fill: none; stroke: #262626; stroke-width: 1.5"/>
    <path d="M 207.49375 168.197529 
L 207.49375 36.369829 
" clip-path="url(#pe0df724135)" style="fill: none; stroke: #262626; stroke-width: 1.5"/>
    <path d="M 312.93125 109.713666 
L 312.93125 63.813547 
" clip-path="url(#pe0df724135)" style="fill: none; stroke: #262626; stroke-width: 1.5"/>
    <path d="M 418.36875 116.185911 
L 418.36875 70.618059 
" clip-path="url(#pe0df724135)" style="fill: none; stroke: #262626; stroke-width: 1.5"/>
   </g>
   <g id="patch_51">
    <path d="M 28.25 254.9664 
L 28.25 25.44 
" style="fill: none"/>
   </g>
   <g id="patch_52">
    <path d="M 450 254.9664 
L 450 25.44 
" style="fill: none"/>
   </g>
   <g id="patch_53">
    <path d="M 28.25 254.9664 
L 450 254.9664 
" style="fill: none"/>
   </g>
   <g id="patch_54">
    <path d="M 28.25 25.44 
L 450 25.44 
" style="fill: none"/>
   </g>
   <g id="text_39">
    <!-- AS7262 -->
    <g style="fill: #262626" transform="translate(217.774375 19.44) scale(0.12 -0.12)">
     <use xlink:href="#ArialMT-41"/>
     <use xlink:href="#ArialMT-53" x="66.699219"/>
     <use xlink:href="#ArialMT-37" x="133.398438"/>
     <use xlink:href="#ArialMT-32" x="189.013672"/>
     <use xlink:href="#ArialMT-36" x="244.628906"/>
     <use xlink:href="#ArialMT-32" x="300.244141"/>
    </g>
   </g>
   <g id="legend_1">
    <g id="patch_55">
     <path d="M 216.783594 187.39765 
L 236.783594 187.39765 
L 236.783594 180.39765 
L 216.783594 180.39765 
z
" style="fill: #1f77b4"/>
    </g>
    <g id="text_40">
     <!-- 50 -->
     <g style="fill: #262626" transform="translate(244.783594 187.39765) scale(0.1 -0.1)">
      <use xlink:href="#ArialMT-35"/>
      <use xlink:href="#ArialMT-30" x="55.615234"/>
     </g>
    </g>
    <g id="patch_56">
     <path d="M 216.783594 201.542962 
L 236.783594 201.542962 
L 236.783594 194.542962 
L 216.783594 194.542962 
z
" style="fill: #ff7f0e"/>
    </g>
    <g id="text_41">
     <!-- 100 -->
     <g style="fill: #262626" transform="translate(244.783594 201.542962) scale(0.1 -0.1)">
      <use xlink:href="#ArialMT-31"/>
      <use xlink:href="#ArialMT-30" x="55.615234"/>
      <use xlink:href="#ArialMT-30" x="111.230469"/>
     </g>
    </g>
    <g id="patch_57">
     <path d="M 216.783594 215.688275 
L 236.783594 215.688275 
L 236.783594 208.688275 
L 216.783594 208.688275 
z
" style="fill: #2ca02c"/>
    </g>
    <g id="text_42">
     <!-- 150 -->
     <g style="fill: #262626" transform="translate(244.783594 215.688275) scale(0.1 -0.1)">
      <use xlink:href="#ArialMT-31"/>
      <use xlink:href="#ArialMT-35" x="55.615234"/>
      <use xlink:href="#ArialMT-30" x="111.230469"/>
     </g>
    </g>
    <g id="patch_58">
     <path d="M 216.783594 229.833587 
L 236.783594 229.833587 
L 236.783594 222.833587 
L 216.783594 222.833587 
z
" style="fill: #d62728"/>
    </g>
    <g id="text_43">
     <!-- 200 -->
     <g style="fill: #262626" transform="translate(244.783594 229.833587) scale(0.1 -0.1)">
      <use xlink:href="#ArialMT-32"/>
      <use xlink:href="#ArialMT-30" x="55.615234"/>
      <use xlink:href="#ArialMT-30" x="111.230469"/>
     </g>
    </g>
    <g id="patch_59">
     <path d="M 216.783594 243.9789 
L 236.783594 243.9789 
L 236.783594 236.9789 
L 216.783594 236.9789 
z
" style="fill: #9467bd"/>
    </g>
    <g id="text_44">
     <!-- 250 -->
     <g style="fill: #262626" transform="translate(244.783594 243.9789) scale(0.1 -0.1)">
      <use xlink:href="#ArialMT-32"/>
      <use xlink:href="#ArialMT-35" x="55.615234"/>
      <use xlink:href="#ArialMT-30" x="111.230469"/>
     </g>
    </g>
   </g>
  </g>
 </g>
 <defs>
  <clipPath id="pe0df724135">
   <rect x="28.25" y="25.44" width="421.75" height="229.5264"/>
  </clipPath>
 </defs>
</svg>
